<?xml version="1.0" encoding="UTF-8"?>
<svg id="Livello_1" xmlns="http://www.w3.org/2000/svg" version="1.1" viewBox="0 0 11 11">
  <!-- Generator: Adobe Illustrator 29.7.1, SVG Export Plug-In . SVG Version: 2.1.1 Build 8)  -->
  <defs>
    <style>
      .st0 {
        fill: #fcc133;
      }
    </style>
  </defs>
  <g id="avena">
    <path class="st0" d="M8.8,1.1s0,0,0,0c0,0,0,0,0-.1l.6-.7s0,0,0,0l-1.4.7h0c-.2,0-.3.2-.4.4-.4.5-.3,1.2,0,1.5.4.3,1.1.2,1.4-.3.1-.2.2-.3.2-.5h0s.3-1.6.3-1.6c0,0,0,0,0,0l-.6.7s0,0,0,0Z"/>
    <path class="st0" d="M6,4.8c.5,0,1-.4,1.1-1,0-.2,0-.4,0-.6h0s-.5-1.5-.5-1.5c0,0,0,0,0,0v1c-.1,0-.1,0-.2,0s0,0,0,0c0,0,0,0,0-.1v-1c0,0,0,0,0,0l-.9,1.3h0c0,.2-.2.3-.2.5,0,.6.2,1.2.8,1.3Z"/>
    <path class="st0" d="M4.3,6.8c.5,0,1-.4,1.1-1,0-.2,0-.4,0-.6h0s-.5-1.5-.5-1.5c0,0,0,0,0,0v1c-.1,0-.1,0-.2,0s0,0,0,0c0,0,0,0,0-.1v-1c0,0,0,0,0,0l-.9,1.3h0c0,.2-.2.3-.2.5,0,.6.2,1.2.8,1.3Z"/>
    <path class="st0" d="M2.6,9c.5,0,1-.4,1.1-1,0-.2,0-.4,0-.6h0s-.5-1.5-.5-1.5c0,0,0,0,0,0v.9c0,0-.1,0-.2,0s0,0,0,0c0,0,0,0,0-.1v-.9c0,0,0,0,0,0l-.9,1.3h0c0,.2-.2.3-.2.5,0,.6.2,1.2.8,1.3Z"/>
    <path class="st0" d="M8.3,3.8s0,0,0,0c0,0,0-.1,0-.1l.8-.3s0,0,0,0h-1.6s0,0,0,0c0,0-.1,0-.2,0v.2c0,.1,0,.3,0,.4,0,.5-.4,1-.9,1.1.3.3.8.4,1.3.1.2,0,.3-.2.5-.3h0s1-1.2,1-1.2c0,0,0,0,0,0l-.8.3s0,0,0,0Z"/>
    <path class="st0" d="M6.9,6s0,0,0,0c0,0,0-.1,0-.1l.7-.3s0,0,0,0h-1.6s0,0,0,0c-.1,0-.2,0-.4,0,0,.1,0,.3,0,.4,0,.5-.4.9-.8,1.1.2.4.9.6,1.4.4.2,0,.3-.2.5-.3h0s1-1.2,1-1.2c0,0,0,0,0,0l-.7.3s0,0,0,0Z"/>
    <path class="st0" d="M5.1,8.2s0,0,0,0c0,0,0-.1,0-.1l.9-.4s0,0,0,0h-1.6s0,0,0,0c-.1,0-.2,0-.4,0,0,.1,0,.3,0,.4,0,.5-.4.9-.8,1.1.2.4.9.6,1.4.4.2,0,.3-.2.5-.3h0s1-1.2,1-1.2c0,0,0,0,0,0l-.9.4s0,0,0,0Z"/>
    <path class="st0" d="M1.6,10.3c-.1.2,0,.3,0,.4.1,0,.4,0,.5,0,.3-.3.7-1,.7-1l-.5-.4s-.5.6-.7,1Z"/>
  </g>
</svg>