<?xml version="1.0" encoding="UTF-8"?>
<svg id="Livello_1" xmlns="http://www.w3.org/2000/svg" version="1.1" viewBox="0 0 100 100">
  <!-- Generator: Adobe Illustrator 29.7.1, SVG Export Plug-In . SVG Version: 2.1.1 Build 8)  -->
  <defs>
    <style>
      .st0 {
        fill: #2c2c2c;
      }
    </style>
  </defs>
  <path class="st0" d="M66.1,58.9l-.5.5-4.2-4.3c.8-1.9,2-3.5,2.9-5.3,9.6-21-7-44.3-29.9-42.2-11.9,1.1-22.3,9.8-25.6,21.2-7.1,24.3,17.3,45.7,40.6,35.6,1.1-.5,5.5-3.3,6-3l4.1,4.1-.5.5c-1.6,1.6-1.6,4.1,0,5.7l20.6,20.6c1.6,1.6,4.1,1.6,5.7,0l7.1-7.1c1.6-1.6,1.6-4.1,0-5.7l-20.6-20.6c-1.6-1.6-4.1-1.6-5.7,0ZM50,54.2c-11.3,9.1-28.7,3.2-33-10.5-3.7-12,4.2-26,17-27.4,22.2-2.5,33.4,23.9,16,37.9Z"/>
</svg>