<?xml version="1.0" encoding="UTF-8"?>
<svg id="Livello_1" xmlns="http://www.w3.org/2000/svg" version="1.1" viewBox="0 0 11 11">
  <!-- Generator: Adobe Illustrator 29.7.1, SVG Export Plug-In . SVG Version: 2.1.1 Build 8)  -->
  <defs>
    <style>
      .st0 {
        fill: #fcc133;
      }
    </style>
  </defs>
  <g id="colza">
    <path class="st0" d="M2.2,10c0,0-.1,0-.2,0-.1,0-.1-.2,0-.4l4.3-5.5c0-.1.2-.1.4,0,.1,0,.1.2,0,.4l-4.3,5.5c0,0-.1,0-.2,0Z"/>
    <path class="st0" d="M9.1,2.8c-.1,0-.3,0-.5,0,.1,0,.2-.2.3-.4.3-.6.1-1.3-.5-1.6s-1.3-.1-1.6.5c0,.1,0,.3,0,.5,0-.1-.2-.2-.4-.3-.6-.3-1.3-.1-1.6.5-.3.6,0,1.3.5,1.6,0,0,.3,0,.5,0,0,0-.2.2-.3.4-.3.6,0,1.3.5,1.6s1.3,0,1.6-.5c0,0,0-.3,0-.5,0,0,.2.2.4.3.6.3,1.3,0,1.6-.5s.1-1.3-.5-1.6Z"/>
    <path class="st0" d="M8.3,6.8h-.2l.2-.2c.1-.3,0-.6-.3-.8-.3,0-.6,0-.8.3v.2l-.2-.2c-.3,0-.6,0-.8.3,0,.3,0,.6.3.8h.2l-.2.2c0,.3,0,.6.3.8.3.1.6,0,.8-.3v-.2l.2.2c.3.1.6,0,.8-.3.1-.3,0-.6-.3-.8Z"/>
    <path class="st0" d="M4.1,4.6s.2,0,.3,0c.3-.3.3-.7,0-1s-.7-.3-1,0c0,0,0,.2-.2.3,0,0,0-.2,0-.3-.3-.3-.7-.3-1,0s-.3.7,0,1c0,0,.2,0,.3.2,0,0-.2,0-.3,0-.3.3-.3.7,0,1s.7.3,1,0c0,0,0-.2.2-.3,0,0,0,.2,0,.3.3.3.7.3,1,0s.3-.7,0-1c0,0-.2,0-.3-.2Z"/>
    <path class="st0" d="M2.3,10.1h0c0,.1-.3.1-.4,0h0c-.3-.4-.5-.9-.5-1.4v-.5c0-.5.2-1,.5-1.4h0c.1,0,.3,0,.4,0h0c.3.4.5.9.5,1.4v.5c0,.5-.2,1-.5,1.4Z"/>
    <path class="st0" d="M2,10.2h0c-.1,0-.2-.3,0-.4h0c.3-.4.8-.7,1.2-.8h.5c.5-.2,1,0,1.4.2h0c0,0,.2.3,0,.4h0c-.3.4-.8.7-1.2.8h-.5c-.5.2-1,0-1.4-.2Z"/>
  </g>
</svg>