<?xml version="1.0" encoding="UTF-8"?>
<svg id="Livello_1" xmlns="http://www.w3.org/2000/svg" version="1.1" viewBox="0 0 11 11">
  <!-- Generator: Adobe Illustrator 29.7.1, SVG Export Plug-In . SVG Version: 2.1.1 Build 8)  -->
  <defs>
    <style>
      .st0 {
        fill: #fcc133;
      }
    </style>
  </defs>
  <g id="cumino">
    <g>
      <path class="st0" d="M4.5,1.2c2.2.9,4.3,2.2,6.1,3.9h.1c-.2-.5-1.3-1.5-2.8-2.5s-3.1-1.6-3.7-1.5h.3Z"/>
      <path class="st0" d="M9.3,5.1c-.9-.4-1.7-.9-2.5-1.4s-1.2-.8-1.8-1.3l-.9-.7c.3.6,1.4,1.6,2.7,2.5s3,1.6,3.6,1.5l-1.2-.6Z"/>
      <path class="st0" d="M4.4,1.5h-.3c0-.1,1,.7,1,.7,1.3,1,2.7,1.9,4.2,2.6l1.1.5h0c-1.8-1.7-3.8-3-6-3.9Z"/>
    </g>
    <g>
      <path class="st0" d="M.6,5.6c2.4-.4,4.8-.4,7.2,0h.2c-.5-.4-2-.7-3.8-.7s-3.5.3-3.9.7h.3Z"/>
      <path class="st0" d="M6.6,6.4c-.9.1-1.9.2-2.8.1s-1.4,0-2.2-.1H.5c.6.2,2,.5,3.7.5s3.4-.3,3.9-.7l-1.4.2Z"/>
      <path class="st0" d="M.6,5.9h-.3s1.3.2,1.3.2c1.6.2,3.3.2,4.9,0h1.2c0-.1-.1-.2-.1-.2-2.4-.4-4.7-.4-7.1,0Z"/>
    </g>
    <g>
      <path class="st0" d="M3,9.2c2.2-1,4.5-1.6,7-1.8h.2c-.6-.3-2.1-.2-3.8.3s-3.3,1.2-3.6,1.7h.3Z"/>
      <path class="st0" d="M9.1,8.4c-.9.4-1.8.6-2.7.9s-1.4.3-2.1.4l-1.2.2c.7.2,2.1,0,3.7-.3s3.2-1.1,3.6-1.7l-1.3.5Z"/>
      <path class="st0" d="M3.1,9.5h-.3c0,.1,1.3,0,1.3,0,1.6-.2,3.2-.7,4.8-1.3l1.1-.5h-.1c-2.4.2-4.7.8-6.9,1.8Z"/>
    </g>
  </g>
</svg>