<?xml version="1.0" encoding="UTF-8"?>
<svg id="Livello_1" xmlns="http://www.w3.org/2000/svg" version="1.1" viewBox="0 0 11 11">
  <!-- Generator: Adobe Illustrator 29.7.1, SVG Export Plug-In . SVG Version: 2.1.1 Build 8)  -->
  <defs>
    <style>
      .st0 {
        fill: #fcc133;
      }
    </style>
  </defs>
  <g id="erba_medica">
    <path class="st0" d="M4.6,3.8h0c.2-.2.4-.5.4-.8s-.2-.5-.5-.5-.5.2-.5.5,0,0,0,0v-.4c0-.3-.2-.5-.5-.5s-.5.2-.5.5v.5s0,0,0,0c0-.3-.2-.5-.5-.5s-.5.2-.5.5.1.6.4.8h0c-.3,0-.5.2-.5.5s.2.5.5.5h2.6c.3,0,.5-.2.5-.5s-.2-.5-.5-.5Z"/>
    <path class="st0" d="M9,5.9h0c.3,0,.5-.2.6-.4s0-.4-.2-.6-.5,0-.6.1,0,0,0,0l.2-.3c.1-.2,0-.4-.2-.6s-.5,0-.6.1l-.2.3s0,0,0,0c.1-.2,0-.4-.2-.6s-.5,0-.6.1-.2.5,0,.7h0c-.2-.2-.5-.1-.6,0s0,.4.2.6l1.9,1.2c.2.1.5,0,.6-.1s0-.4-.2-.6Z"/>
    <path class="st0" d="M7.8,2.3h0c.2-.1.4-.3.5-.6s0-.4-.3-.5-.5,0-.5.3,0,0,0,0v-.3c.1-.2,0-.4-.2-.5s-.5,0-.5.3v.4c-.1,0-.1,0-.1,0,0-.2,0-.4-.3-.5s-.5,0-.5.3,0,.5.1.7h0c-.2,0-.5,0-.5.3s0,.4.3.5l2.2.6c.2,0,.5,0,.5-.3s0-.4-.3-.5Z"/>
    <path class="st0" d="M4.5,10.3c0,0,0,0-.1,0v-.3c-1-1.9-1.4-4-1.2-6.1,0,0,0-.1.1-.1,0,0,.1,0,.1.1-.1,1.9.2,3.8.9,5.6,0-1.9.3-3.8,1.3-5.5l.9-1.8c0,0,.1,0,.2,0,0,0,0,.1,0,.2l-.9,1.8c-1,1.9-1.4,4-1.2,6.1,0,0,0,.1,0,.1,0,0,0,0,0,0Z"/>
    <path class="st0" d="M4.5,10.3s0,0,0,0c0,0-.1,0,0-.2v-.3c.7-1.9,1.8-3.5,3.3-4.7,0,0,.1,0,.2,0,0,0,0,.1,0,.2-1.5,1.2-2.6,2.8-3.1,4.6v.3c-.1,0-.2,0-.2,0Z"/>
    <path class="st0" d="M3.4,7.2h0c0,0,0,.1.2.1h0c.3,0,.5-.2.6-.5v-.2c.3-.2.3-.5.3-.8h0c0,0,0-.1-.2-.1h0c-.3,0-.5.2-.6.5v.2c-.3.2-.3.5-.3.8Z"/>
    <path class="st0" d="M3.8,8.2h0c0,0,0,.2-.1.2h0c-.3,0-.5,0-.7-.3l-.2-.2c-.2-.2-.3-.4-.4-.7h0c0,0,0-.2.1-.2h0c.3,0,.5,0,.7.3l.2.2c.2.2.3.4.4.7Z"/>
    <path class="st0" d="M4.8,8.8h0c0,0,0,.2,0,.2h0c.3,0,.5,0,.8,0h.2c.3-.2.5-.4.6-.6h0c0,0,0-.2,0-.2h0c-.3,0-.5,0-.8,0h-.2c-.3.2-.5.4-.6.6Z"/>
    <path class="st0" d="M5.6,7.8h0c0,0-.2,0-.2,0h0c-.2-.2-.2-.5-.2-.8v-.3c0-.3.2-.5.3-.7h0c0,0,.2,0,.2,0h0c.2.2.2.5.2.8v.3c0,.3-.2.5-.3.7Z"/>
  </g>
</svg>