<?xml version="1.0" encoding="UTF-8"?>
<svg id="Livello_1" xmlns="http://www.w3.org/2000/svg" version="1.1" viewBox="0 0 11 11">
  <!-- Generator: Adobe Illustrator 29.7.1, SVG Export Plug-In . SVG Version: 2.1.1 Build 8)  -->
  <defs>
    <style>
      .st0 {
        fill: #fcc133;
      }
    </style>
  </defs>
  <g id="fagioli">
    <path class="st0" d="M8.4,7c0-.5-.1-1-.5-1.2-.2-.2-.7-.3-1-.3-.3,0-.6.2-.8.5-.4.6-.2,1.2-1.4,1.4h0c-.5,0-.8.3-1,.8-.4.7,0,1.6.7,1.9,0,0,.2,0,.3.1.4,0,.9,0,1.3,0,.3,0,.6-.2.8-.3.9-.5,1.7-1.5,1.6-2.9ZM4.9,7.9c.3,0,.6-.1.8-.3.2-.1.4-.4.6-.6,0,.7-.7,1.2-1.3.9Z"/>
    <path class="st0" d="M4.2,2.9c-.2-.4-.5-.8-1-.9-.3,0-.7,0-1.1.2-.3.2-.5.5-.5.8,0,.7.3,1.2-.7,1.9h0c-.4.2-.6.6-.6,1.1,0,.8.7,1.4,1.4,1.4.1,0,.2,0,.4,0,.4,0,.8-.3,1.2-.6.2-.2.5-.4.6-.6.6-.9.9-2.1.3-3.3ZM1.4,5.1c.2-.2.5-.3.6-.6.2-.2.2-.5.3-.8.4.6-.2,1.4-.9,1.3Z"/>
    <path class="st0" d="M6.8,1.4c-.2,0-.5.3-.7.4-.4.3-.7.6-.9,1,0,.1-.1.2-.1.3-.2.7.3,1.6,1,1.8.5.1.9,0,1.3-.3h0c.9-.8,1.3-.3,2-.2.3,0,.7,0,.9-.3.3-.3.5-.7.5-1,0-.5-.3-.8-.6-1.2-1-.9-2.2-.9-3.2-.5ZM8.6,3.6c-.3,0-.5,0-.8,0-.2,0-.5.2-.7.4,0-.7,1-1,1.5-.5Z"/>
  </g>
</svg>