<?xml version="1.0" encoding="UTF-8"?>
<svg id="Livello_1" xmlns="http://www.w3.org/2000/svg" version="1.1" viewBox="0 0 11 11">
  <!-- Generator: Adobe Illustrator 29.7.1, SVG Export Plug-In . SVG Version: 2.1.1 Build 8)  -->
  <defs>
    <style>
      .st0 {
        fill: #fcc133;
      }
    </style>
  </defs>
  <g id="farro">
    <path class="st0" d="M9.8,2.7c-.1,0-.3,0-.4.1-.2.2-.3.4-.5.6,0,0-.1,0-.2,0-.5,0-1.1,0-1.6.2-.6.2-1,.6-1.3,1.2,1.1-.5,2.1-.9,3.3-1.1-1,.6-2.1,1-3.3,1.1,0,0,0,0,0,0,0,0,0,0,.1,0,1,.4,2.5,0,3.1-.9.3-.3.5-.7.8-1,.1-.2.1-.3,0-.4Z"/>
    <path class="st0" d="M5.3,4.3c-.3-1-.4-2-.2-3,.2,1,.3,2,.2,2.9,0,0,.1-.1.2-.2.6-.7.6-1.8,0-2.4,0,0,0-.1,0-.2.2-.2.3-.4.5-.7,0-.1,0-.3,0-.3-.1,0-.3,0-.4,0-.3.4-.7.9-1,1.3-.4.6-.3,1.2,0,1.8.1.3.4.5.7.7Z"/>
    <path class="st0" d="M6.2,8.1c-1,.6-2.2,1.1-3.4,1.1,1,.6,3-.1,3.4-1.1Z"/>
    <path class="st0" d="M6.2,8.1c-1-.6-3,0-3.4,1.2,0,0,0,0,0,0,1.1-.5,2.2-.9,3.4-1.2,0,0,0,0,0,0Z"/>
    <path class="st0" d="M2.2,8.6c-.3-1-.3-2-.2-3-1,.8-.8,2.5.2,3Z"/>
    <path class="st0" d="M2.3,8.7c1-.8.9-2.5-.2-3,.2,1,.2,2,.2,3Z"/>
    <path class="st0" d="M4.3,7.1c1,.6,3,0,3.4-1.1-1,.6-2.2,1-3.4,1.1,0,0,0,0,0,0Z"/>
    <path class="st0" d="M7.7,5.9c-1-.6-2.9,0-3.4,1.2,1.1-.5,2.2-.9,3.4-1.1,0,0,0,0,0,0Z"/>
    <path class="st0" d="M3.9,6.5c.9-.8.8-2.4-.2-2.9.1,1,.2,1.9.2,2.9Z"/>
    <path class="st0" d="M3.8,6.5c-.3-1-.3-2-.2-3,0,0,0,0,0,0-1,.8-.9,2.5.2,3Z"/>
    <path class="st0" d="M6.7,3.1c.5,0,.8-.2,1.2-.5.7-.6,1.1-1.2.9-2,0,0,0-.1-.1-.1-.4,1-1.1,2-2,2.7Z"/>
    <path class="st0" d="M6.7,3.1c.5-1,1.2-1.9,1.9-2.7,0,0,0,0-.1,0-.8.2-1.3.6-1.7,1.2-.3.5-.4.9-.2,1.4h0Z"/>
    <path class="st0" d="M1.2,10.1c-.1.2,0,.3,0,.4.1,0,.4,0,.5,0,.3-.3.5-.7.7-1-.2,0-.4-.2-.6-.3-.2.3-.4.6-.7.9Z"/>
  </g>
</svg>