<?xml version="1.0" encoding="UTF-8"?>
<svg id="Livello_1" xmlns="http://www.w3.org/2000/svg" version="1.1" viewBox="0 0 11 11">
  <!-- Generator: Adobe Illustrator 29.7.1, SVG Export Plug-In . SVG Version: 2.1.1 Build 8)  -->
  <defs>
    <style>
      .st0 {
        fill: #fcc133;
      }
    </style>
  </defs>
  <path id="favino" class="st0" d="M9.9,2s0,0,0-.1c0-.6-.2-.9-.2-.9v-.2c-.1-.2-.4-.2-.5,0,0,0-1.1,5.5-8.2,9-.2.1-.2.4,0,.5h.2c0,.2,0,.2.1.2.1,0,.6,0,1.1,0,0,0,0,0,.1,0,.2.1.6.1.9,0,.3,0,.5-.2.7-.4.1,0,.2,0,.3-.1.2,0,.4,0,.7-.1.3-.1.5-.3.7-.6,0,0,0,0,0,0,0,0,0,0,0,0,0,0,0,0,.2,0,.3,0,.6-.1.9-.4s.4-.5.4-.7c0,0,.2-.2.2-.3.3,0,.6-.3.8-.7.2-.3.2-.6.2-.9,0-.1.1-.2.2-.3.3-.1.5-.4.6-.8,0-.3,0-.6,0-.8,0,0,0-.1,0-.2,0,0,0,0,0,0,0,0,0,0,0-.1.2-.2.4-.5.5-.8,0-.4,0-.8-.2-1ZM2.5,9.7c0-.5.9-.9,1.2-.4-.5-.1-.9,0-1.2.4ZM4.1,9.2c-.2-.5.7-1.2,1.1-.8-.5,0-.8.3-1.1.8ZM5.5,8.1c-.2-.5.7-1.2,1.1-.8-.5,0-.8.3-1.1.8ZM7,6.8c-.3-.4.2-1.3.8-1.1-.5.2-.7.6-.8,1.1ZM8.1,5.3c-.4-.4,0-1.3.6-1.2-.4.2-.6.7-.6,1.2ZM9,3.4c-.4-.2-.2-1,.3-1-.3.3-.3.6-.3,1Z"/>
</svg>