<?xml version="1.0" encoding="UTF-8"?>
<svg id="Livello_1" xmlns="http://www.w3.org/2000/svg" version="1.1" viewBox="0 0 11 11">
  <!-- Generator: Adobe Illustrator 29.7.1, SVG Export Plug-In . SVG Version: 2.1.1 Build 8)  -->
  <defs>
    <style>
      .st0 {
        fill: #fcc133;
      }
    </style>
  </defs>
  <g id="frumento">
    <path class="st0" d="M6.2,5c.2-.5.7-.9,1.2-1.1.5-.2,1-.3,1.5-.2,0,0,.1,0,.2,0,.2-.2.3-.4.5-.6.1-.2.3-.2.4-.1.1,0,.2.2,0,.4-.2.3-.5.7-.7,1-.6.8-2.1,1.2-3,.8,0,0,0,0-.1,0Z"/>
    <path class="st0" d="M5.7,4.5c-.3-.2-.6-.4-.7-.7-.3-.6-.3-1.1,0-1.7.3-.4.6-.8.9-1.3,0-.1.2-.1.4,0,.1,0,.1.2,0,.3-.1.2-.3.4-.5.6,0,0,0,.1,0,.2.6.6.6,1.7,0,2.3,0,0-.1.2-.2.2Z"/>
    <path class="st0" d="M3.3,9.2c.4-1.1,2.3-1.7,3.2-1.1-.3,1-2.3,1.7-3.2,1.1Z"/>
    <path class="st0" d="M2.6,5.8c1.1.5,1.2,2.2.2,2.9-1-.4-1.2-2.1-.2-2.9Z"/>
    <path class="st0" d="M4.7,7.1c.4-1.1,2.3-1.7,3.2-1.1-.3,1-2.2,1.7-3.2,1.1Z"/>
    <path class="st0" d="M4,3.7c1.1.5,1.2,2.2.2,2.9-1.1-.5-1.2-2.1-.2-2.9Z"/>
    <path class="st0" d="M7,3.4c-.2-.5,0-.9.2-1.4.3-.6.8-1,1.6-1.2.2,0,.2,0,.2.1.1.8-.2,1.4-.9,1.9-.3.3-.7.4-1.1.5Z"/>
    <path class="st0" d="M2.4,9.2c.2,0,.4.2.5.3-.2.3-.4.6-.7.9-.1.1-.3.2-.4,0-.1,0-.2-.2,0-.4.2-.3.5-.6.7-.9Z"/>
  </g>
</svg>