<?xml version="1.0" encoding="UTF-8"?>
<svg id="Livello_1" xmlns="http://www.w3.org/2000/svg" version="1.1" viewBox="0 0 11 11">
  <!-- Generator: Adobe Illustrator 29.7.1, SVG Export Plug-In . SVG Version: 2.1.1 Build 8)  -->
  <defs>
    <style>
      .st0 {
        fill: #fcc133;
      }
    </style>
  </defs>
  <g id="grano_saraceno">
    <path class="st0" d="M5.3,6.2c-.2-1.2-1.6-1.4-1.6-1.4-.8-.2-1.3.2-1.5.5,0,.5.1,1.1.4,1.5,0,0,0,.1,0,.2,0,0-.1,0-.2,0-.1-.2-.3-.4-.3-.6-.1-.3-.2-.5-.2-.8-.5,0-.9.1-1.1.4-.2.2-.3.6-.3.9.2,2,2.6,2.8,2.6,2.8h.6c0,.1.1.1.2.1-.3-.3-.6-.6-.7-1,0,0,0-.2,0-.2,0,0,.1,0,.2,0,.2.4.5.7.9.9,0,0,.1-.2.2-.3l.7-2.1c0-.3.1-.6,0-.9Z"/>
    <path class="st0" d="M5.4,5.2c1,.7,2.1,0,2.1,0,.7-.4.8-1,.8-1.4-.4-.4-.8-.7-1.3-.8,0,0-.1,0,0-.2,0,0,0,0,.1,0,.2,0,.5.1.7.2.3.1.5.3.8.4.4-.3.5-.7.5-1,0-.3-.2-.6-.4-.8-1.5-1.3-3.8-.2-3.8-.2l-.5.4c0,0,0,0-.1.1.4,0,.8,0,1.2.3,0,0,0,.1,0,.2,0,0-.1,0-.2,0-.4-.1-.9-.1-1.3,0,0,.1,0,.2,0,.3l1,2c.1.3.3.5.5.7Z"/>
    <path class="st0" d="M9.8,6.2c-.8-1-2-.5-2-.5-.8.2-1,.8-1.1,1.1.3.5.6.9,1.1,1.2,0,0,0,.1,0,.2,0,0-.1,0-.2,0-.2,0-.4-.2-.6-.4-.2-.2-.4-.4-.6-.6-.5.2-.7.5-.8.8,0,.3,0,.6.2.9,1.1,1.6,3.6,1.2,3.6,1.2l.6-.2c0,0,.1,0,.2,0-.4,0-.8-.3-1.1-.6,0,0,0-.1,0-.2,0,0,.1,0,.2,0,.4.2.8.3,1.2.3,0-.1,0-.2,0-.3l-.4-2.2c0-.3-.2-.6-.3-.8Z"/>
  </g>
</svg>