<?xml version="1.0" encoding="UTF-8"?>
<svg id="Livello_1" xmlns="http://www.w3.org/2000/svg" version="1.1" viewBox="0 0 100 100">
  <!-- Generator: Adobe Illustrator 29.7.1, SVG Export Plug-In . SVG Version: 2.1.1 Build 8)  -->
  <defs>
    <style>
      .st0 {
        fill: #fcc133;
      }
    </style>
  </defs>
  <path class="st0" d="M88.9,40.5L53.9,14.1c0,0-.2-.1-.3-.2-.2-.1-.4-.3-.7-.4-.2-.1-.4-.2-.6-.3-.2,0-.4-.2-.6-.2-.2,0-.4-.1-.7-.2-.2,0-.4,0-.7,0-.2,0-.4,0-.7,0s-.5,0-.7,0c-.2,0-.4,0-.6,0-.2,0-.5.1-.7.2-.2,0-.4.1-.6.2-.2,0-.4.2-.6.3-.2.1-.4.2-.6.4-.1,0-.2.1-.3.2L10.6,40.5c-.9.7-1.5,1.7-1.5,2.8-.4,5.8,3.4,9,7.2,9s2-.2,2.9-.7v33.7c0,1.5,1.2,2.8,2.8,2.8h16.9c.7,0,1.3-.6,1.3-1.3v-14.8c0-1.8,1.4-3.2,3.2-3.2h12.9c1.8,0,3.2,1.4,3.2,3.2v14.8c0,.7.6,1.3,1.3,1.3h16.9c1.5,0,2.8-1.2,2.8-2.8v-33.7c.9.4,1.9.7,2.9.7,3.9,0,7.7-3.2,7.2-9,0-1.1-.7-2.1-1.5-2.7h0Z"/>
</svg>