<?xml version="1.0" encoding="UTF-8"?>
<svg id="Livello_1" xmlns="http://www.w3.org/2000/svg" version="1.1" viewBox="0 0 11 11">
  <!-- Generator: Adobe Illustrator 29.7.1, SVG Export Plug-In . SVG Version: 2.1.1 Build 8)  -->
  <defs>
    <style>
      .st0 {
        fill: #fcc133;
      }
    </style>
  </defs>
  <g id="lino">
    <path class="st0" d="M2.2,8.2h.2c.3.3.6.6.9.8l.2.2c.3.3.8.4,1.2.2.2,0,.3-.2.5-.4.2-.2.3-.5.3-.7v-1.6q0,0,0,0s0,0,0,0c.1.5.2,1,.2,1.5,0,.1,0,.2,0,.3.3,1.1,1,1.2,1.4,1.2.3,0,.6-.2.7-.4l.2-.2c.2-.3.5-.6.8-.8h.2c.4-.4.5-.9.3-1.3-.1-.2-.2-.4-.4-.6-.1-.1-.3-.2-.5-.3-.5-.1-1-.2-1.5-.4,0,0,0,0,0,0,.6,0,1.1.1,1.7.2,0,0,.2,0,.3,0,.8-.2,1-.7,1-1.1,0-.3-.1-.6-.3-.8l-.2-.2c-.3-.3-.5-.6-.7-.9v-.2c-.3-.4-.8-.6-1.2-.5,0,0-.1,0-.2,0-.1,0-.2.1-.3.2-.2.5-.5.9-.9,1.2.2-.4.5-.8.7-1.2,0-.1.1-.3.1-.4,0-.7-.3-1-.6-1.2-.3-.1-.6-.2-.9,0h-.3c-.4.2-.7.3-1.1.3h-.2c-.5,0-.9.3-1,.7,0,0,0,.2,0,.3,0,.1,0,.3.2.4.4.4.8.9,1.1,1.4,0,0,0,0,0,0h0s0,0,0,0c-.4-.4-.8-.7-1.1-1.2,0-.1-.3-.2-.4-.2-.2,0-.4.1-.6.3-.2.2-.4.5-.4.8v.3c0,.4-.1.7-.3,1.1v.2c-.3.4-.1.9.2,1.1,0,0,.2.1.3.1,0,0,0,0,.1,0,.8-.3,1.7-.6,2.5-.6,0,0,0,0,0,0,0,0,0,0,0,0l-2.4.9c-.2,0-.3.2-.4.4,0,.2,0,.3,0,.5,0,.3.3.5.5.7ZM8.4,7.4h0c-.3,0-.5,0-.7-.2-.2-.1-.4-.3-.6-.4h0c.3.1.7.2,1,.4,0,0,.2.2.3.3ZM8.7,4.8c-.2.2-.4.3-.6.3-.2,0-.5,0-.7,0h0c.3-.2.6-.3,1-.4.1,0,.2,0,.4,0h0ZM8.4,4c0,.2-.3.3-.5.4-.2,0-.4.1-.6.2h0c.2-.2.4-.4.7-.6,0,0,.2,0,.3,0h0ZM7.2,3.4c0,0,.2-.2.3-.3h0c0,.3-.2.5-.4.7-.2.2-.4.4-.6.6h0c.2-.4.4-.7.6-1.1ZM6,1.8h0c0,.3,0,.6-.2.9-.1.3-.2.6-.4.8h0c0-.5.2-.9.3-1.4,0-.1.1-.3.3-.4ZM4.8,2.3c0-.1,0-.2,0-.3h0c.2.2.2.4.2.7,0,.2,0,.5,0,.7h0c0-.3-.2-.7-.2-1ZM4,2.7c0,0,0-.2,0-.3.2,0,.3.2.3.4,0,.2.1.3.2.5h0c-.2-.2-.4-.3-.5-.5ZM6.5,5.4c-.4.1-.7,0-1-.2.4-.1.7,0,1,.2ZM5.2,4.3c.2.3.3.6.2.9-.2-.3-.3-.6-.2-.9ZM7.6,7.8c0,0,0,.2,0,.3,0,0,0,0,0,0-.2,0-.3-.2-.4-.4,0-.2-.2-.3-.3-.5h0c.2.2.5.3.6.6ZM5.3,5.4c.4.2.6.5.6.9-.4-.2-.6-.5-.6-.9ZM5.1,5.3c-.3.1-.5,0-.7-.2.3-.1.5,0,.7.2ZM2.6,3.7s0,0,0,0c.2,0,.4,0,.5.3.1.1.3.3.4.4h0c-.3-.1-.6-.2-.8-.4,0,0-.1-.2-.2-.3ZM6.1,7h0c.2.3.5.7.7,1.1,0,.1,0,.3,0,.4h0c-.3-.2-.4-.4-.5-.7-.1-.3-.2-.5-.3-.8ZM3.4,5.3c-.3.1-.6.3-.9.3-.1,0-.2,0-.3,0h0c.2-.2.3-.3.6-.3.2,0,.4,0,.6,0h0ZM3.3,4.8c-.3,0-.6,0-.9,0,0,0-.2,0-.3-.2h0c.2-.1.4,0,.6,0,.2,0,.4.1.5.2h0ZM4.6,8.4c0,.1,0,.2-.2.3h0c0-.3,0-.5,0-.7,0-.2.2-.4.2-.7h0c0,.4,0,.7-.1,1ZM2.9,7.3c.1-.2.3-.3.5-.4.2,0,.4-.2.6-.3h0c-.3.2-.5.5-.8.6-.1,0-.2,0-.4,0h0ZM3.7,7.5c.2-.2.4-.3.6-.5h0c-.2.3-.4.7-.6.9,0,0-.2.2-.3.2h0c0-.3.2-.5.4-.6Z"/>
  </g>
</svg>