<?xml version="1.0" encoding="UTF-8"?>
<svg id="Livello_1" xmlns="http://www.w3.org/2000/svg" version="1.1" viewBox="0 0 543.2 391.1">
  <!-- Generator: Adobe Illustrator 29.7.1, SVG Export Plug-In . SVG Version: 2.1.1 Build 8)  -->
  <defs>
    <style>
      .st0 {
        fill: #fff;
      }

      .st1 {
        fill: #616160;
      }

      .st2 {
        display: none;
      }
    </style>
  </defs>
  <g id="Livello_2" class="st2">
    <rect class="st1" x="-207" y="-56.3" width="972.7" height="553.4"/>
  </g>
  <g id="Livello_11" data-name="Livello_1">
    <g>
      <path class="st0" d="M429,281.9c1.9-5.1,4.6-9.3,8.2-12.5s8.4-5.5,14.2-6.9c2.1-.5,4.4-.8,6.7-1.1,2.3-.3,4.6-.4,6.9-.4s4.9,0,7.4.3,4.9.7,7.2,1.3c5.7,1.3,10.4,3.6,14.1,6.8,3.6,3.2,6.3,7.4,8.1,12.5.7,2.3,1.3,4.8,1.7,7.4.4,2.6.6,5.2.6,7.8s-.2,5.5-.5,8.2c-.4,2.7-.9,5.2-1.7,7.6-1.7,5.3-4.4,9.5-8.2,12.7-3.7,3.2-8.5,5.4-14.4,6.7-2.3.5-4.7.9-7.1,1.1s-4.9.3-7.4.3-4.4-.1-6.7-.4c-2.2-.3-4.4-.6-6.6-1.1-5.8-1.2-10.6-3.5-14.3-6.7-3.7-3.2-6.4-7.4-8.2-12.7-.7-2.3-1.3-4.7-1.7-7.4-.4-2.7-.6-5.4-.6-8.1s.2-5.4.5-8.1c.4-2.7.9-5.1,1.7-7.3h0ZM445.8,286.8c-.5,1.8-.9,3.5-1.1,5.3s-.3,3.6-.3,5.3.1,3.6.4,5.4c.2,1.8.6,3.5,1,5.2.8,3,2.1,5.6,3.9,7.8,1.8,2.2,4.4,3.8,7.7,4.9,1.2.4,2.5.7,3.9.9,1.4.2,2.7.3,4.1.3s2.7,0,4.1-.3c1.4-.2,2.6-.5,3.9-.9,3.3-1,5.9-2.7,7.7-4.9,1.9-2.2,3.2-4.8,3.9-7.8.4-1.7.8-3.4,1-5.2.3-1.8.4-3.6.4-5.4s-.1-3.5-.4-5.3-.6-3.5-1-5.2c-.7-3-2-5.6-3.9-7.8-1.9-2.2-4.4-3.8-7.7-4.8-1.2-.4-2.5-.7-3.9-.9s-2.7-.3-4.1-.3-2.7,0-4.1.3c-1.4.2-2.6.5-3.9.9-3.3,1-5.8,2.7-7.6,4.9-1.8,2.2-3.1,4.8-4,7.8h0v-.2Z"/>
      <path class="st0" d="M236,261.6h-51v71.5h16.9v-24.2h34c11.8,0,21.5-9.7,21.5-21.5v-4.3c0-11.8-9.7-21.5-21.5-21.5h0ZM238.2,286.2c0,5.3-4.3,9.7-9.7,9.7h-26.6v-21.2h26.6c5.3,0,9.7,4.3,9.7,9.7v1.9h0Z"/>
      <path class="st0" d="M146.2,321c-6.8,0-12.4-5.6-12.4-12.4v-47h-16.9v43.2c0,4.5.8,8.9,2.6,13,3.1,7,9.8,15.2,24.5,15.2h32.4v-12.1h-30.2Z"/>
      <path class="st0" d="M299.1,274.6h32.9v-13h-29.8c-4.1,0-8.1.5-12.1,1.6-10,2.8-24.6,10.7-23.9,34.2,1,32.9,22.2,35.8,29,35.8h36.7v-12.1h-29s-14.8.4-17.2-16.9h46.2v-13.1h-46.4c.1-3.6,1.5-16.4,13.5-16.4h0Z"/>
      <path class="st0" d="M376.6,274.6h40.6v-13h-44.9s-29.5,1.4-31.4,35.8c-1.9,34.3,30,35.8,30,35.8h46.4v-42.1h-40.6v13.1h24.2v16.9h-26.1s-16.4-.2-16.4-23.8,18.4-22.6,18.4-22.6h-.2Z"/>
      <path class="st0" d="M85.5,261.6h-16.9l-29.5,71.5h16.4l7.2-16.4h29.5l6.3,16.4h18.4l-31.4-71.5h0ZM77.5,279l9.5,24.5h-18.9l9.5-24.5h0Z"/>
    </g>
    <path class="st0" d="M230.9,68c-4.7-.5-9.9,0-15.6,1.9-8.1,2.9-14.8,8.8-19.3,16.1l-74.8,120s-13.7,23.4-37.8,21.2l-7.1,17.3h82.7s30.3.9,44.5-21.3c15-23.2,67.6-109.2,67.6-109.2l-14.5-27.8c-5.1-9.9-14.7-16.9-25.7-18.2Z"/>
    <path class="st0" d="M480.6,227.2h-2.2c-15.5,0-28.9-8.6-35.8-21.3h0l-63.2-118.5c-5.5-10.1-12.1-16.8-18.4-21.2-8.2-5.8-18.1-8.8-28.1-8.8h-98.4c13.5,2.3,24.1,8.7,31.9,23.7l17.3,33.3h0c20.4,37.9,49,91.1,58,107.3,12.2,23.9,36.7,22.7,36.7,22.7h109.8l-7.6-17.3h0Z"/>
  </g>
</svg>