<?xml version="1.0" encoding="UTF-8"?>
<svg xmlns="http://www.w3.org/2000/svg" version="1.1" viewBox="0 0 543.2 391.1">
  <!-- Generator: Adobe Illustrator 29.7.1, SVG Export Plug-In . SVG Version: 2.1.1 Build 8)  -->
  <defs>
    <style>
      .st0 {
        fill: #fff;
      }

      .st1 {
        display: none;
      }

      .st2 {
        fill: #616160;
      }
    </style>
  </defs>
  <g id="Livello_2" class="st1">
    <rect class="st2" x="-207" y="-56.3" width="972.7" height="553.4"/>
  </g>
  <g id="Livello_1">
    <g>
      <path class="st0" d="M128.8,352.2v-8.5l-5.9-12.1h4.1l2.2,5.2c.6,1.5,1.1,2.8,1.6,4.2h0c.5-1.4,1-2.7,1.6-4.2l2.2-5.2h4l-6.2,12v8.6h-3.6Z"/>
      <path class="st0" d="M151.1,344.6c0,5.6-3.6,7.9-7,7.9s-6.8-2.8-6.8-7.7,3-7.8,7-7.8,6.8,3,6.8,7.6ZM141,344.7c0,2.8,1.1,5.1,3.2,5.1s3.2-2.3,3.2-5.1-.8-5.1-3.2-5.1-3.2,2.7-3.2,5.1Z"/>
      <path class="st0" d="M166.3,347.7c0,1.7,0,3.2.1,4.4h-3.2l-.2-2h0c-.6,1-2,2.4-4.3,2.4s-4.8-1.8-4.8-6.3v-8.9h3.6v8.3c0,2.4.7,3.9,2.5,3.9s2.2-1,2.5-1.8c.1-.3.2-.7.2-1.2v-9.2h3.6v10.5Z"/>
      <path class="st0" d="M170.1,341.9c0-1.8,0-3.3-.1-4.6h3.1v2.7h.3c.7-1.9,2.3-3,3.8-3s.6,0,.8,0v3.5c-.3,0-.6,0-1,0-1.6,0-2.8,1.1-3.1,2.8,0,.3-.1.8-.1,1.2v7.8h-3.6v-10.3Z"/>
      <path class="st0" d="M186.3,331.8c1.3-.2,3-.4,5.2-.4s4.5.5,5.8,1.6c1.2,1,1.9,2.6,1.9,4.5s-.6,3.6-1.7,4.7c-1.4,1.5-3.7,2.2-6.1,2.2s-1.1,0-1.6-.1v7.9h-3.6v-20.4ZM189.9,341.4c.4.1.9.1,1.5.1,2.6,0,4.2-1.4,4.2-3.8s-1.4-3.5-3.8-3.5-1.5,0-1.9.2v7Z"/>
      <path class="st0" d="M209.1,352.2l-.2-1.6h0c-.9,1.2-2.3,1.9-4,1.9-2.8,0-4.4-2-4.4-4.4,0-3.8,3.3-5.6,8.2-5.6v-.3c0-1.1-.5-2.6-2.8-2.6-1.3,0-2.7.4-3.6,1l-.7-2.4c1-.6,2.8-1.2,5-1.2,4.5,0,5.7,2.9,5.7,6.1v5.5c0,1.3,0,2.6.2,3.5h-3.3ZM208.6,344.8c-2.2,0-4.7.5-4.7,2.8s.9,2.2,2,2.2,2.3-.8,2.6-2c0-.3,0-.5,0-.8v-2.3Z"/>
      <path class="st0" d="M215.9,341.9c0-1.8,0-3.3-.1-4.6h3.1v2.7h.3c.7-1.9,2.3-3,3.8-3s.6,0,.8,0v3.5c-.3,0-.6,0-1,0-1.6,0-2.8,1.1-3.1,2.8,0,.3-.1.8-.1,1.2v7.8h-3.6v-10.3Z"/>
      <path class="st0" d="M230.8,333.1v4.2h3.4v2.7h-3.4v6.9c0,1.8.6,2.6,1.8,2.6s1,0,1.3-.1v2.8c-.5.2-1.4.3-2.5.3s-2.4-.4-3.1-1.1c-.8-.8-1.2-2.1-1.2-4.1v-7.2h-2v-2.7h2v-3.3l3.6-.9Z"/>
      <path class="st0" d="M236.8,341.6c0-1.7,0-3.1-.1-4.4h3.2l.2,2.1h0c.7-1.2,2.2-2.4,4.4-2.4s4.8,1.8,4.8,6.1v9.1h-3.6v-8.7c0-1.9-.6-3.5-2.5-3.5s-2.2.9-2.6,2.1c-.1.3-.2.8-.2,1.2v8.9h-3.6v-10.5Z"/>
      <path class="st0" d="M255.6,345.7c0,2.9,2,4,4.2,4s2.7-.3,3.7-.6l.5,2.5c-1.2.5-2.8.9-4.8.9-4.5,0-7.1-2.9-7.1-7.5s2.5-8,6.8-8,5.9,3.6,5.9,7.1,0,1.3-.1,1.6h-9.1ZM261.5,343.2c0-1.7-.6-3.7-2.8-3.7s-2.9,2.1-3.1,3.7h5.8Z"/>
      <path class="st0" d="M267.7,341.9c0-1.8,0-3.3-.1-4.6h3.1v2.7h.3c.7-1.9,2.3-3,3.8-3s.6,0,.8,0v3.5c-.3,0-.6,0-1,0-1.6,0-2.8,1.1-3.1,2.8,0,.3-.1.8-.1,1.2v7.8h-3.6v-10.3Z"/>
      <path class="st0" d="M287.5,331.5v20.6h-3.6v-20.6h3.6Z"/>
      <path class="st0" d="M291.6,341.6c0-1.7,0-3.1-.1-4.4h3.2l.2,2.1h0c.7-1.2,2.2-2.4,4.4-2.4s4.8,1.8,4.8,6.1v9.1h-3.6v-8.7c0-1.9-.6-3.5-2.5-3.5s-2.2.9-2.6,2.1c-.1.3-.2.8-.2,1.2v8.9h-3.6v-10.5Z"/>
      <path class="st0" d="M316.3,334.7h-5.2v-3.1h14.1v3.1h-5.3v17.5h-3.6v-17.5Z"/>
      <path class="st0" d="M327,330.6h3.6v8.6h0c.4-.6,1-1.2,1.7-1.6.7-.4,1.5-.6,2.4-.6,2.5,0,4.7,1.8,4.7,6.2v9h-3.6v-8.6c0-2-.6-3.6-2.5-3.6s-2.2.9-2.6,2c-.1.3-.2.7-.2,1.1v9.1h-3.6v-21.6Z"/>
      <path class="st0" d="M345.9,345.7c0,2.9,2,4,4.2,4s2.7-.3,3.7-.6l.5,2.5c-1.2.5-2.8.9-4.8.9-4.5,0-7.1-2.9-7.1-7.5s2.5-8,6.8-8,5.9,3.6,5.9,7.1,0,1.3-.1,1.6h-9.1ZM351.7,343.2c0-1.7-.6-3.7-2.8-3.7s-2.9,2.1-3.1,3.7h5.8Z"/>
      <path class="st0" d="M364,331.5h10.9v3h-7.3v5.8h6.8v3h-6.8v8.8h-3.6v-20.6Z"/>
      <path class="st0" d="M381.3,333.2c0,1.1-.8,2-2,2s-2-.9-2-2c0-1.2.8-2,2-2s2,.8,2,2ZM377.5,352.2v-14.9h3.6v14.9h-3.6Z"/>
      <path class="st0" d="M387.6,345.7c0,2.9,2,4,4.2,4s2.7-.3,3.7-.6l.5,2.5c-1.2.5-2.8.9-4.8.9-4.5,0-7.1-2.9-7.1-7.5s2.5-8,6.8-8,5.9,3.6,5.9,7.1,0,1.3-.1,1.6h-9.1ZM393.4,343.2c0-1.7-.6-3.7-2.8-3.7s-2.9,2.1-3.1,3.7h5.8Z"/>
      <path class="st0" d="M399.6,330.6h3.6v21.6h-3.6v-21.6Z"/>
      <path class="st0" d="M419.6,330.6v17.4c0,1.4,0,3.1.1,4.1h-3.2l-.2-2.2h0c-.8,1.5-2.4,2.5-4.3,2.5-3.4,0-5.8-3.1-5.8-7.6,0-5.1,2.8-7.9,6.1-7.9s3.1.8,3.7,1.8h0v-8.2h3.6ZM416,343.3c0-.3,0-.7,0-1-.3-1.4-1.3-2.5-2.8-2.5-2.2,0-3.3,2.2-3.3,4.9s1.2,4.8,3.3,4.8,2.4-.8,2.8-2.4c0-.3.1-.7.1-1.1v-2.7Z"/>
    </g>
    <g>
      <path class="st0" d="M428.8,263c1.9-5.1,4.6-9.3,8.2-12.5,3.6-3.2,8.4-5.5,14.2-6.9,2.1-.5,4.4-.8,6.7-1.1,2.3-.3,4.6-.4,6.9-.4,2.4,0,4.9,0,7.4.3,2.5.3,4.9.7,7.2,1.3,5.7,1.3,10.4,3.6,14.1,6.8,3.6,3.2,6.3,7.4,8.1,12.5.7,2.3,1.3,4.8,1.7,7.4.4,2.6.6,5.2.6,7.8s-.2,5.5-.5,8.2c-.4,2.7-.9,5.2-1.7,7.6-1.7,5.3-4.4,9.5-8.2,12.7-3.7,3.2-8.5,5.4-14.4,6.7-2.3.5-4.7.9-7.1,1.1-2.4.2-4.9.3-7.4.3s-4.4-.1-6.7-.4c-2.2-.3-4.4-.6-6.6-1.1-5.8-1.2-10.6-3.5-14.3-6.7-3.7-3.2-6.4-7.4-8.2-12.7-.7-2.3-1.3-4.7-1.7-7.4-.4-2.7-.6-5.4-.6-8.1s.2-5.4.5-8.1c.4-2.7.9-5.1,1.7-7.3h0ZM445.6,267.9c-.5,1.8-.9,3.5-1.1,5.3-.2,1.8-.3,3.6-.3,5.3s.1,3.6.4,5.4c.2,1.8.6,3.5,1,5.2.8,3,2.1,5.6,3.9,7.8,1.8,2.2,4.4,3.8,7.7,4.9,1.2.4,2.5.7,3.9.9,1.4.2,2.7.3,4.1.3s2.7,0,4.1-.3c1.4-.2,2.6-.5,3.9-.9,3.3-1,5.9-2.7,7.7-4.9,1.9-2.2,3.2-4.8,3.9-7.8.4-1.7.8-3.4,1-5.2.3-1.8.4-3.6.4-5.4s-.1-3.5-.4-5.3c-.3-1.8-.6-3.5-1-5.2-.7-3-2-5.6-3.9-7.8-1.9-2.2-4.4-3.8-7.7-4.8-1.2-.4-2.5-.7-3.9-.9-1.4-.2-2.7-.3-4.1-.3s-2.7,0-4.1.3c-1.4.2-2.6.5-3.9.9-3.3,1-5.8,2.7-7.6,4.9-1.8,2.2-3.1,4.8-4,7.8h0Z"/>
      <path class="st0" d="M235.8,242.7h-51v71.5h16.9v-24.2h34c11.8,0,21.5-9.7,21.5-21.5v-4.3c0-11.8-9.7-21.5-21.5-21.5ZM238,267.3c0,5.3-4.3,9.7-9.7,9.7h-26.6v-21.2h26.6c5.3,0,9.7,4.3,9.7,9.7v1.9Z"/>
      <path class="st0" d="M146,302.1c-6.8,0-12.4-5.6-12.4-12.4v-47h-16.9v43.2c0,4.5.8,8.9,2.6,13,3.1,7,9.8,15.2,24.5,15.2h32.4v-12.1h-30.1Z"/>
      <path class="st0" d="M298.9,255.7h32.9v-13h-29.8c-4.1,0-8.1.5-12.1,1.6-10,2.8-24.6,10.7-23.9,34.2,1,32.9,22.2,35.8,29,35.8h36.7v-12.1h-29s-14.8.4-17.2-16.9h46.2v-13.1h-46.4c.1-3.6,1.5-16.4,13.5-16.4Z"/>
      <path class="st0" d="M376.4,255.7h40.6v-13h-44.9s-29.5,1.4-31.4,35.8c-1.9,34.3,30,35.8,30,35.8h46.4v-42.1h-40.6v13.1h24.2v16.9h-26.1s-16.4-.2-16.4-23.8,18.4-22.6,18.4-22.6Z"/>
      <path class="st0" d="M85.3,242.7h-16.9l-29.5,71.5h16.4l7.2-16.4h29.5l6.3,16.4h18.4l-31.4-71.5ZM77.3,260.1l9.5,24.5h-18.9l9.5-24.5Z"/>
    </g>
    <path class="st0" d="M230.7,49.1c-4.7-.5-9.9-.1-15.6,1.9-8.1,2.9-14.8,8.8-19.3,16.1l-74.8,120s-13.7,23.4-37.8,21.2l-7.1,17.3h82.7s30.3.9,44.5-21.3c15-23.2,67.6-109.2,67.6-109.2l-14.5-27.8c-5.1-9.9-14.7-16.9-25.7-18.2Z"/>
    <path class="st0" d="M480.4,208.3h0c-.7,0-1.4,0-2.2,0-15.5,0-28.9-8.6-35.8-21.3h0s-63.2-118.5-63.2-118.5c-5.5-10.1-12.1-16.8-18.4-21.2-8.2-5.8-18.1-8.8-28.1-8.8h-98.4c13.5,2.3,24.1,8.7,31.9,23.7l17.3,33.3h0c20.4,37.9,49,91.1,58,107.3,12.2,23.9,36.7,22.7,36.7,22.7h109.8l-7.6-17.3Z"/>
  </g>
</svg>