<?xml version="1.0" encoding="UTF-8"?>
<svg id="Livello_1" xmlns="http://www.w3.org/2000/svg" version="1.1" viewBox="0 0 11 11">
  <!-- Generator: Adobe Illustrator 29.7.1, SVG Export Plug-In . SVG Version: 2.1.1 Build 8)  -->
  <defs>
    <style>
      .st0 {
        fill: #fcc133;
      }
    </style>
  </defs>
  <g id="loietto">
    <path class="st0" d="M.9,10.4c3.6-1.3,6.6-4.4,7.8-8l.2-.7s0,0,0,0c0,0,0,0,0,0l-.2.7c-1.2,3.7-4.2,6.9-7.9,8.2-.2,0-.2-.2,0-.2h0Z"/>
    <path class="st0" d="M7.2,5.2c0,.4-.1.6-.3.6s-.2-.3-.2-.7.3-.6.3-.6c0,0,.2.3.2.7Z"/>
    <path class="st0" d="M8.1,5.3c-.3,0-.7,0-.7,0s.2-.3.6-.4.7,0,.7,0c0,0-.2.3-.6.4Z"/>
    <path class="st0" d="M8.6,4.1c-.3,0-.6,0-.6,0s.2-.2.5-.3.6,0,.6,0c0,0-.2.2-.5.3Z"/>
    <path class="st0" d="M9.1,2.9c-.3,0-.5,0-.5,0s.2-.2.4-.3.5,0,.5,0c0,0-.2.2-.4.3Z"/>
    <path class="st0" d="M9.3,2c-.2,0-.4.1-.4,0s.1-.2.3-.3.4,0,.4,0c0,0-.1.2-.3.3Z"/>
    <path class="st0" d="M7.8,4.1c0,.3,0,.6-.1.6s-.2-.2-.3-.6.1-.6.1-.6c0,0,.2.2.3.6Z"/>
    <path class="st0" d="M8.4,3c0,.3,0,.6-.1.6s-.2-.2-.3-.6.1-.6.1-.6c0,0,.2.2.3.6Z"/>
    <path class="st0" d="M8.7,2c0,.3,0,.5,0,.5s-.2-.2-.3-.5,0-.5,0-.5c0,0,.2.2.3.5Z"/>
    <path class="st0" d="M9.3,1.2c0,.3-.2.5-.3.5s-.1-.3,0-.6.3-.5.3-.5c0,0,.1.3,0,.6Z"/>
    <path class="st0" d="M2.1,10.1s2.9,0,4.9-1.3c0,0-2.9.3-3.6.5,0,0-1.1.3-1.3.7Z"/>
    <path class="st0" d="M5.8,7.3s2.1-.5,3.3-1.7c0,0-1.4.6-2.2.9s-.4.2-.6.3-.4.3-.5.5Z"/>
    <path class="st0" d="M4.1,8.8s1.6-3,1.7-4.7c0,0,.2-1.3,0-2,0,0-.1,1.9-1.1,4,0,0-1,2.3-1.1,3l.5-.4Z"/>
  </g>
</svg>