<?xml version="1.0" encoding="UTF-8"?>
<svg id="Livello_1" xmlns="http://www.w3.org/2000/svg" version="1.1" viewBox="0 0 11 11">
  <!-- Generator: Adobe Illustrator 29.7.1, SVG Export Plug-In . SVG Version: 2.1.1 Build 8)  -->
  <defs>
    <style>
      .st0 {
        fill: #fcc133;
      }
    </style>
  </defs>
  <g id="lupini">
    <path class="st0" d="M3.4,8.9s-1.1-.1-1-1.2,0-.3.2-.3.3,0,.5.4c0,0,0-.7.4-.5s.5.9.2,1.3v.2c-.1,0-.3,0-.3,0Z"/>
    <path class="st0" d="M4.3,9.4s.9.6,1.5-.2.1-.3,0-.4-.3-.2-.7,0c0,0,.4-.6,0-.7s-1,.3-1,.9v.2c0,0,.1.1.1.1Z"/>
    <path class="st0" d="M4.5,7.5s-.9-.1-.9-1,0-.2.2-.2.3,0,.5.4c0,0,0-.6.4-.4s.4.8.2,1.1v.2c0,0-.3,0-.3,0Z"/>
    <path class="st0" d="M5.3,7.8s.7.5,1.3-.1,0-.2,0-.3-.2-.1-.6,0c0,0,.3-.5,0-.6s-.8.3-.9.7v.2s.1.1.1.1Z"/>
    <path class="st0" d="M5.4,6s-.9-.1-.8-.9,0-.2.2-.2.3,0,.4.3c0,0,0-.5.3-.4s.4.7.2,1.1v.2c0,0-.3,0-.3,0Z"/>
    <path class="st0" d="M6.1,6.4s.7.5,1.2-.1,0-.2,0-.3-.2-.1-.5,0c0,0,.3-.4,0-.5s-.8.3-.8.7v.2s0,.1,0,.1Z"/>
    <path class="st0" d="M5.9,4.6s-.8,0-.9-.8,0-.2.1-.2.2,0,.4.3c0,0,0-.5.3-.4s.4.6.2,1v.2c0,0-.2,0-.2,0Z"/>
    <path class="st0" d="M6.6,4.9s.7.4,1.1-.2,0-.2,0-.3-.2-.1-.5,0c0,0,.3-.4,0-.5s-.7.3-.7.7v.2s.1,0,.1,0Z"/>
    <path class="st0" d="M6.5,3.1s-.8-.1-.7-.9,0-.2.2-.2.2,0,.4.3c0,0,0-.5.3-.4s.3.7,0,1h0c0,.1-.2.1-.2.1Z"/>
    <path class="st0" d="M7.1,3.5s.6.5,1.2,0,0-.2,0-.3-.2-.1-.5,0c0,0,.3-.4,0-.5s-.7.2-.8.6v.2s0,.1,0,.1Z"/>
    <path class="st0" d="M7.5,2s-.7-.1-.7-.8,0-.2.2-.2.2,0,.4.3c0,0,0-.5.3-.3s.3.6,0,.9h0c0,.1-.2.1-.2.1Z"/>
    <path class="st0" d="M7.5,2s.6.5,1.1,0,0-.2,0-.2-.2-.1-.5,0c0,0,.3-.4,0-.5s-.7.2-.8.6v.2s0,0,0,0Z"/>
    <path class="st0" d="M7.7,1.5s-.7-.1-.6-.8,0-.2.1-.2.3.2.4.4c0,0,.5.1.3.4h0c0,.1-.1.1-.1.1Z"/>
    <path class="st0" d="M7.8,1.5s.5.4,1,0,0-.2,0-.2-.4,0-.7,0c0,0-.4-.3-.4,0h0c0,.1.1.2.1.2Z"/>
    <path class="st0" d="M3,10.5c.7-1.9,1.7-2.9,2.7-4.5.8-1.5,1-3.4,2.2-4.7,0,0,0,0,0,0h0s0,0,0,0c0,0,0,0,0,0,0,0,0,0,0,0,.2.1,0,0,0,0,0,0,0,0,0,0-1.2,1.4-1.4,3.2-2.2,4.7-.8,1.5-2.2,2.8-2.5,4.6,0,.3-.5.1-.3-.1h0Z"/>
    <ellipse class="st0" cx="3.9" cy="8.9" rx=".4" ry=".5" transform="translate(-5.8 9.4) rotate(-69.1)"/>
    <ellipse class="st0" cx="4.8" cy="7.4" rx=".4" ry=".5" transform="translate(-4 8.3) rotate(-62.4)"/>
    <ellipse class="st0" cx="5.8" cy="6" rx=".4" ry=".5" transform="translate(-2.2 8.4) rotate(-62.4)"/>
    <ellipse class="st0" cx="6.4" cy="4.6" rx=".3" ry=".5" transform="translate(.7 10) rotate(-79.2)"/>
    <ellipse class="st0" cx="6.9" cy="3.2" rx=".3" ry=".4" transform="translate(1.8 8.8) rotate(-72.8)"/>
    <ellipse class="st0" cx="7.5" cy="2" rx=".3" ry=".4" transform="translate(2.2 7.7) rotate(-62.4)"/>
    <ellipse class="st0" cx="8" cy=".9" rx=".6" ry=".3" transform="translate(3.4 7.5) rotate(-61.1)"/>
  </g>
</svg>