<?xml version="1.0" encoding="UTF-8"?>
<svg id="Livello_1" xmlns="http://www.w3.org/2000/svg" version="1.1" viewBox="0 0 100 64.7">
  <!-- Generator: Adobe Illustrator 29.7.1, SVG Export Plug-In . SVG Version: 2.1.1 Build 8)  -->
  <defs>
    <style>
      .st0 {
        fill: #2c2c2c;
      }

      .st1 {
        fill: #f4f4f4;
      }

      .st1, .st2 {
        stroke: #f4f4f4;
        stroke-miterlimit: 10;
        stroke-width: .8px;
      }

      .st2 {
        fill: none;
      }
    </style>
  </defs>
  <path class="st0" d="M85.4,10.2H14.7c-6.3,0-11.4,10-11.4,22.2s5.1,22.2,11.4,22.2h70.7c6.3,0,11.4-10,11.4-22.2s-5.1-22.2-11.4-22.2Z"/>
  <ellipse class="st1" cx="14.8" cy="32.4" rx="11.4" ry="22.2"/>
  <ellipse class="st0" cx="14.8" cy="31.8" rx="3.4" ry="6.7"/>
  <g>
    <path class="st2" d="M47,18.1h0"/>
    <line class="st2" x1="47" y1="18.3" x2="47" y2="18.3"/>
    <path class="st2" d="M34.1,22.2c-1.5-5.6-4.5-8.2-4.5-8.2"/>
    <path class="st2" d="M34.4,41.5c2.7-9.5,0-18.4,0-18.4"/>
    <path class="st2" d="M25.2,52.5c6,0,8.6-8.9,8.9-10"/>
    <path class="st2" d="M34.1,42.5h0"/>
    <path class="st2" d="M43.2,46.5c-.4.8-3.1,6-7.4,6"/>
    <path class="st2" d="M46,28.6s1,9.1-2.2,16.5"/>
    <path class="st2" d="M41.8,15.8s3,3.7,4.2,12.5"/>
    <path class="st2" d="M46,28.6v-.3"/>
    <path class="st2" d="M46,28.3h0"/>
    <path class="st2" d="M40.4,14.1c-2-2-4.5-2-4.5-2"/>
    <path class="st2" d="M46.6,12.1h0"/>
    <path class="st2" d="M56.7,36c1-9.6-2.2-16.5-2.2-16.5"/>
    <path class="st2" d="M52.5,48.8s3.7-4.7,4.2-12.4"/>
    <path class="st2" d="M56.7,36.3h0"/>
    <path class="st2" d="M46.6,52.5s2.8,0,4.4-2"/>
    <path class="st2" d="M66.5,23.1s2.6,9,0,18.4"/>
    <path class="st2" d="M66.3,42.4c-1.7,5.8-4.6,8.2-4.6,8.2"/>
    <path class="st2" d="M68,52.5s3.4,1,7.3-5.9"/>
    <path class="st2" d="M76,45.1c3.3-7.3,2.2-16.5,2.2-16.5"/>
    <path class="st2" d="M78.2,28.6v-.3"/>
    <path class="st2" d="M78.1,28.3h0"/>
    <path class="st2" d="M78.1,28.3c-.7-8.1-4.2-12.5-4.2-12.5"/>
    <path class="st2" d="M72.5,14.1s-1.8-2-4.4-2"/>
    <path class="st2" d="M84.7,48.8s3.2-3.9,4.2-12.5"/>
    <line class="st2" x1="78.7" y1="52.5" x2="78.7" y2="52.5"/>
    <path class="st2" d="M78.7,52.5c3,0,4.4-2,4.4-2"/>
    <line class="st2" x1="36.5" y1="22.2" x2="36.5" y2="22.2"/>
    <polyline class="st2" points="34.4 23.1 34.4 23.1 36.5 22.2"/>
    <line class="st2" x1="25.1" y1="23.1" x2="34.4" y2="23.1"/>
    <line class="st2" x1="24.9" y1="23.1" x2="25.1" y2="23.1"/>
    <line class="st2" x1="24.9" y1="23.1" x2="24.9" y2="23.1"/>
    <polyline class="st2" points="34.4 41.5 34.4 41.5 36.5 42.4"/>
    <line class="st2" x1="36.4" y1="42.4" x2="36.4" y2="42.4"/>
    <line class="st2" x1="24.9" y1="41.5" x2="25.1" y2="41.5"/>
    <line class="st2" x1="34.4" y1="41.5" x2="25.1" y2="41.5"/>
    <path class="st2" d="M25.2,52.5h-5.9"/>
    <line class="st2" x1="25.2" y1="52.5" x2="26.3" y2="54.5"/>
    <line class="st2" x1="26.3" y1="54.5" x2="26.3" y2="54.5"/>
    <polyline class="st2" points="45 14.1 41.8 15.8 41.8 15.8"/>
    <line class="st2" x1="34.2" y1="15.8" x2="41.8" y2="15.8"/>
    <line class="st2" x1="45" y1="14.1" x2="45" y2="14.1"/>
    <line class="st2" x1="45" y1="14.1" x2="45" y2="14.1"/>
    <line class="st2" x1="49.2" y1="28.3" x2="49.2" y2="28.3"/>
    <line class="st2" x1="46" y1="28.6" x2="37.7" y2="28.6"/>
    <line class="st2" x1="37.6" y1="28.6" x2="37.7" y2="28.6"/>
    <line class="st2" x1="37.6" y1="28.6" x2="37.4" y2="28.6"/>
    <polyline class="st2" points="48.3 28.4 46.1 28.6 46 28.6"/>
    <line class="st2" x1="49.1" y1="28.3" x2="49.2" y2="28.3"/>
    <line class="st2" x1="48.3" y1="28.4" x2="49.1" y2="28.3"/>
    <line class="st2" x1="49.2" y1="28.3" x2="49.2" y2="28.3"/>
    <polyline class="st2" points="37.9 10.2 35.9 12.1 31.5 12.1"/>
    <line class="st2" x1="38" y1="10.1" x2="37.9" y2="10.2"/>
    <line class="st2" x1="31.5" y1="12.1" x2="31.5" y2="12.1"/>
    <line class="st2" x1="29.6" y1="13.9" x2="31.5" y2="12.1"/>
    <line class="st2" x1="21.1" y1="13.9" x2="29.6" y2="13.9"/>
    <line class="st2" x1="21.1" y1="13.9" x2="21" y2="13.9"/>
    <line class="st2" x1="47" y1="46.5" x2="47" y2="46.5"/>
    <polyline class="st2" points="47 46.5 43.8 45.1 43.8 45.1"/>
    <line class="st2" x1="35.9" y1="45.1" x2="43.8" y2="45.1"/>
    <line class="st2" x1="35.7" y1="45.1" x2="35.8" y2="45.1"/>
    <line class="st2" x1="35.8" y1="45.1" x2="35.9" y2="45.1"/>
    <line class="st2" x1="31.5" y1="52.5" x2="35.9" y2="52.5"/>
    <line class="st2" x1="38" y1="54.5" x2="38" y2="54.5"/>
    <line class="st2" x1="35.9" y1="52.5" x2="38" y2="54.5"/>
    <line class="st2" x1="46.6" y1="12.1" x2="49.7" y2="10.2"/>
    <line class="st2" x1="49.7" y1="10.2" x2="49.8" y2="10.1"/>
    <line class="st2" x1="43.3" y1="12.1" x2="46.6" y2="12.1"/>
    <polyline class="st2" points="46.6 12.1 46.6 12.1 46.6 12.1"/>
    <line class="st2" x1="58.6" y1="18.1" x2="54" y2="18.1"/>
    <path class="st2" d="M46.6,12.1s3.5.5,7.3,6"/>
    <line class="st2" x1="47.5" y1="19.4" x2="47.5" y2="19.4"/>
    <line class="st2" x1="47.5" y1="19.4" x2="47.5" y2="19.4"/>
    <line class="st2" x1="47.3" y1="19.4" x2="47.5" y2="19.4"/>
    <line class="st2" x1="47.5" y1="19.4" x2="54.6" y2="19.4"/>
    <polyline class="st2" points="54.6 19.4 54.6 19.4 58.3 18.3"/>
    <line class="st2" x1="58.3" y1="18.3" x2="58.6" y2="18.1"/>
    <line class="st2" x1="58.6" y1="18.1" x2="58.6" y2="18.1"/>
    <line class="st2" x1="58.6" y1="18.1" x2="58.6" y2="18.1"/>
    <line class="st2" x1="56.7" y1="36" x2="49.5" y2="36"/>
    <line class="st2" x1="49.2" y1="36" x2="49.4" y2="36"/>
    <line class="st2" x1="49.4" y1="36" x2="49.5" y2="36"/>
    <line class="st2" x1="60.9" y1="36.3" x2="60.9" y2="36.3"/>
    <polyline class="st2" points="56.7 36 56.7 36 60.9 36.3"/>
    <line class="st2" x1="52.5" y1="48.8" x2="45.9" y2="48.8"/>
    <line class="st2" x1="56.7" y1="50.5" x2="52.5" y2="48.8"/>
    <polyline class="st2" points="43.2 52.5 46.6 52.5 49.9 54.5"/>
    <line class="st2" x1="49.9" y1="54.5" x2="49.9" y2="54.5"/>
    <line class="st2" x1="49.9" y1="54.5" x2="49.9" y2="54.5"/>
    <line class="st2" x1="57.5" y1="12" x2="61.4" y2="10.2"/>
    <line class="st2" x1="61.7" y1="10.1" x2="61.4" y2="10.2"/>
    <line class="st2" x1="61.7" y1="10.1" x2="61.7" y2="10.1"/>
    <line class="st2" x1="66.7" y1="12" x2="66.7" y2="12"/>
    <line class="st2" x1="61.6" y1="13.9" x2="66.7" y2="12"/>
    <line class="st2" x1="61.6" y1="13.9" x2="61.6" y2="13.9"/>
    <line class="st2" x1="56.6" y1="13.9" x2="61.6" y2="13.9"/>
    <line class="st2" x1="71.2" y1="22.3" x2="66.5" y2="23.1"/>
    <line class="st2" x1="71.2" y1="22.3" x2="71.7" y2="22.2"/>
    <line class="st2" x1="60.2" y1="23.1" x2="60.3" y2="23.1"/>
    <line class="st2" x1="60.3" y1="23.1" x2="60.4" y2="23.1"/>
    <line class="st2" x1="60.4" y1="23.1" x2="66.5" y2="23.1"/>
    <line class="st2" x1="71.7" y1="22.2" x2="71.7" y2="22.2"/>
    <line class="st2" x1="71.7" y1="22.2" x2="71.7" y2="22.2"/>
    <line class="st2" x1="71.7" y1="22.2" x2="71.7" y2="22.2"/>
    <line class="st2" x1="60.2" y1="23.1" x2="60.2" y2="23.1"/>
    <line class="st2" x1="71.7" y1="42.4" x2="66.5" y2="41.5"/>
    <line class="st2" x1="60.4" y1="41.5" x2="60.4" y2="41.5"/>
    <line class="st2" x1="60.2" y1="41.5" x2="60.4" y2="41.5"/>
    <line class="st2" x1="66.5" y1="41.5" x2="60.4" y2="41.5"/>
    <line class="st2" x1="60.2" y1="41.5" x2="60.2" y2="41.5"/>
    <line class="st2" x1="71.7" y1="42.4" x2="71.7" y2="42.4"/>
    <line class="st2" x1="71.7" y1="42.4" x2="71.7" y2="42.4"/>
    <line class="st2" x1="61.6" y1="50.6" x2="56.6" y2="50.6"/>
    <line class="st2" x1="66.4" y1="52.5" x2="66.4" y2="52.5"/>
    <polyline class="st2" points="66.4 52.5 61.6 50.6 61.6 50.6"/>
    <line class="st2" x1="57.4" y1="52.5" x2="57.6" y2="52.6"/>
    <line class="st2" x1="61.6" y1="54.5" x2="57.6" y2="52.6"/>
    <line class="st2" x1="66.8" y1="12.1" x2="68" y2="12.1"/>
    <line class="st2" x1="73.2" y1="10.2" x2="73.4" y2="10.1"/>
    <line class="st2" x1="68" y1="12.1" x2="73.2" y2="10.2"/>
    <line class="st2" x1="80.2" y1="14.1" x2="80.2" y2="14.1"/>
    <line class="st2" x1="80.2" y1="14.1" x2="80.2" y2="14.1"/>
    <line class="st2" x1="74" y1="15.8" x2="69.5" y2="15.8"/>
    <line class="st2" x1="80.2" y1="14.1" x2="80.2" y2="14.1"/>
    <line class="st2" x1="80.2" y1="14.1" x2="80.2" y2="14.1"/>
    <line class="st2" x1="74" y1="15.8" x2="80.2" y2="14.1"/>
    <line class="st2" x1="80.2" y1="14.1" x2="80.2" y2="14.1"/>
    <line class="st2" x1="73" y1="28.6" x2="73.1" y2="28.6"/>
    <line class="st2" x1="78.2" y1="28.6" x2="73.1" y2="28.6"/>
    <line class="st2" x1="72.9" y1="28.6" x2="73" y2="28.6"/>
    <line class="st2" x1="84.4" y1="28.3" x2="84.4" y2="28.3"/>
    <line class="st2" x1="82.7" y1="28.4" x2="84.4" y2="28.3"/>
    <polyline class="st2" points="78.2 28.6 78.2 28.6 82.7 28.4"/>
    <line class="st2" x1="76" y1="45.1" x2="82.3" y2="46.5"/>
    <line class="st2" x1="76" y1="45.1" x2="71.2" y2="45.1"/>
    <line class="st2" x1="71" y1="45.1" x2="71.1" y2="45.1"/>
    <line class="st2" x1="71.1" y1="45.1" x2="71.2" y2="45.1"/>
    <line class="st2" x1="68" y1="52.5" x2="73.4" y2="54.5"/>
    <line class="st2" x1="73.4" y1="54.5" x2="73.4" y2="54.5"/>
    <line class="st2" x1="66.7" y1="52.5" x2="66.7" y2="52.5"/>
    <line class="st2" x1="68" y1="52.5" x2="66.7" y2="52.5"/>
    <line class="st2" x1="66.7" y1="52.5" x2="66.4" y2="52.5"/>
    <line class="st2" x1="66.7" y1="52.5" x2="66.7" y2="52.5"/>
    <line class="st2" x1="66.4" y1="52.5" x2="66.4" y2="52.5"/>
    <line class="st2" x1="79.5" y1="12.3" x2="85" y2="10.2"/>
    <line class="st2" x1="85.2" y1="10.1" x2="85" y2="10.2"/>
    <line class="st2" x1="86.7" y1="19.4" x2="94" y2="18.1"/>
    <line class="st2" x1="84.9" y1="36" x2="84.9" y2="36"/>
    <line class="st2" x1="84.9" y1="36" x2="88.9" y2="36"/>
    <line class="st2" x1="84.4" y1="36" x2="84.9" y2="36"/>
    <path class="st2" d="M86.7,19.4s3.3,5.9,2.2,16.5"/>
    <line class="st2" x1="86.7" y1="19.4" x2="82.9" y2="19.4"/>
    <line class="st2" x1="82.9" y1="19.4" x2="82.7" y2="19.4"/>
    <line class="st2" x1="82.9" y1="19.4" x2="82.9" y2="19.4"/>
    <polyline class="st2" points="96.2 36.3 88.9 36 88.9 36"/>
    <line class="st2" x1="96.2" y1="36.3" x2="96.2" y2="36.3"/>
    <line class="st2" x1="96.2" y1="36.3" x2="96.2" y2="36.3"/>
    <polyline class="st2" points="84.7 48.8 84.7 48.8 92 50.5"/>
    <line class="st2" x1="92" y1="50.5" x2="92" y2="50.5"/>
    <line class="st2" x1="81.2" y1="48.8" x2="81.3" y2="48.8"/>
    <line class="st2" x1="84.7" y1="48.8" x2="81.3" y2="48.8"/>
    <line class="st2" x1="81.3" y1="48.8" x2="81.3" y2="48.8"/>
    <line class="st2" x1="92" y1="50.5" x2="92" y2="50.5"/>
    <line class="st2" x1="78.5" y1="52.5" x2="78.5" y2="52.5"/>
    <polyline class="st2" points="78.5 52.5 78.7 52.5 78.7 52.5"/>
    <line class="st2" x1="78.7" y1="52.5" x2="85.2" y2="54.5"/>
    <line class="st2" x1="85.2" y1="54.5" x2="85.2" y2="54.5"/>
    <path class="st2" d="M14.6,54.5h.4"/>
    <path class="st2" d="M19.5,52.3c-.4.4-.8.7-1.2.9"/>
    <path class="st2" d="M14.6,10.1c-6.3,0-11.4,10-11.4,22.2s5.1,22.2,11.4,22.2,0,0,0,0"/>
    <path class="st2" d="M24.6,42.9c-.4,1.4-.9,2.7-1.4,3.9"/>
    <path class="st2" d="M14.6,54.5h1.3"/>
    <path class="st2" d="M26.2,54.5h-10.3"/>
    <path class="st2" d="M20,51.8c-.2.2-.4.4-.5.6"/>
    <path class="st2" d="M20.5,13.3c-.5-.6-1-1.1-1.5-1.5"/>
    <path class="st2" d="M24.6,42.9c-.4,1.4-.9,2.7-1.4,3.9"/>
    <path class="st2" d="M14.6,10.1h11.7"/>
    <path class="st2" d="M24.6,42.9c.1-.5.3-.9.4-1.4"/>
    <path class="st2" d="M24.9,41.5c.1-.5.2-1,.3-1.5"/>
    <path class="st2" d="M21.4,14.5c.7,1.1,1.4,2.3,2,3.7"/>
    <path class="st2" d="M25.9,32.3v2.3"/>
    <path class="st2" d="M15,54.5h-.4"/>
    <path class="st2" d="M18.1,53.4s.2,0,.2,0"/>
    <path class="st2" d="M15.7,54.4h.1"/>
    <path class="st2" d="M18.3,53.3c.4-.3.8-.6,1.2-.9"/>
    <path class="st2" d="M15.7,54.4h-.5"/>
    <path class="st2" d="M17,54h.1"/>
    <path class="st2" d="M17.1,54c.3-.2.7-.3,1-.5"/>
    <path class="st2" d="M15,54.5h.3"/>
    <path class="st2" d="M17,54c-.4.2-.7.3-1.1.4"/>
    <path class="st2" d="M22.8,47.6c-.2.5-.5,1-.8,1.4"/>
    <path class="st2" d="M21.6,49.7c.1-.2.3-.4.4-.7"/>
    <path class="st2" d="M23.2,46.8c-.1.3-.2.5-.4.8"/>
    <path class="st2" d="M25.6,37.9c0,.7-.2,1.4-.3,2.1"/>
    <path class="st2" d="M15.7,10.2h0"/>
    <path class="st2" d="M14.6,10.1c.4,0,.8,0,1.1.1"/>
    <path class="st2" d="M25.9,34.6c0,.7,0,1.5-.2,2.2"/>
    <path class="st2" d="M21.6,49.7c-.3.4-.5.8-.8,1.1"/>
    <path class="st2" d="M20,51.8c.3-.3.6-.6.8-1"/>
    <path class="st2" d="M21.4,14.5c-.3-.4-.6-.8-.9-1.2"/>
    <path class="st2" d="M25.7,36.8c0,.4,0,.7-.1,1.1"/>
    <path class="st2" d="M24.9,23.1c-.4-1.8-.9-3.5-1.6-5"/>
    <path class="st2" d="M24.9,23.1c.6,2.8,1,5.9,1,9.2"/>
    <path class="st2" d="M15.7,10.2c.8.2,1.5.5,2.3.9"/>
    <path class="st2" d="M18,11.1c.3.2.7.4,1,.7"/>
    <path class="st2" d="M26.2,54.5h.1"/>
    <line class="st2" x1="47" y1="46.5" x2="47" y2="46.5"/>
    <path class="st2" d="M26.5,10.1h-.1"/>
    <path class="st2" d="M26.5,10.1h11.6"/>
    <path class="st2" d="M49.2,28.3h0"/>
    <path class="st2" d="M36.4,42.4h0"/>
    <path class="st2" d="M45,14.1h0"/>
    <path class="st2" d="M38,54.5h-10.3"/>
    <path class="st2" d="M27.6,54.5h-1.2"/>
    <path class="st2" d="M27.6,54.5h.1"/>
    <path class="st2" d="M38,10.1h0"/>
    <path class="st2" d="M26.2,54.5h.1"/>
    <path class="st2" d="M26.2,10.1h.1"/>
    <line class="st2" x1="26.2" y1="10.2" x2="26.2" y2="10.1"/>
    <line class="st2" x1="26" y1="11.9" x2="26.2" y2="10.2"/>
    <path class="st2" d="M49.8,54.5h-10.4"/>
    <path class="st2" d="M49.8,54.5h0"/>
    <path class="st2" d="M39.4,54.5h-1.3"/>
    <path class="st2" d="M39.4,54.5h0"/>
    <path class="st2" d="M58.6,18.1h0"/>
    <path class="st2" d="M38.2,10.1h11.7"/>
    <path class="st2" d="M38.2,10.1h-.2"/>
    <path class="st2" d="M60.9,36.3h0"/>
    <path class="st2" d="M49.2,28.3h0"/>
    <path class="st2" d="M61.7,10.1h11.8"/>
    <path class="st2" d="M61.7,10.1h0"/>
    <path class="st2" d="M84.4,28.3h0"/>
    <path class="st2" d="M80.2,14.1h0"/>
    <path class="st2" d="M80.2,14.1h0"/>
    <path class="st2" d="M71.7,22.2h0"/>
    <path class="st2" d="M63,54.5h-1.3"/>
    <path class="st2" d="M73.4,54.5h0"/>
    <path class="st2" d="M73.4,54.5h-10.4"/>
    <path class="st2" d="M63,54.5h0"/>
    <line class="st2" x1="58.6" y1="18.1" x2="58.6" y2="18.1"/>
    <path class="st2" d="M71.7,22.2h0"/>
    <path class="st2" d="M66.4,52.5h0"/>
    <path class="st2" d="M71.7,42.4h0"/>
    <path class="st2" d="M51.2,54.5h10.4"/>
    <path class="st2" d="M50,54.5h1.2"/>
    <path class="st2" d="M49.8,54.5h0"/>
    <path class="st2" d="M49.6,54.5h.2"/>
    <path class="st2" d="M49.9,54.5h0"/>
    <path class="st2" d="M51.2,54.5h0"/>
    <path class="st2" d="M50,10.1h11.7"/>
    <path class="st2" d="M49.9,10.1h0"/>
    <path class="st2" d="M74.8,54.5h-1.3"/>
    <path class="st2" d="M85.2,54.5h-10.4"/>
    <path class="st2" d="M74.8,54.5h0"/>
    <path class="st2" d="M92,50.5h0"/>
    <path class="st2" d="M96.2,36.3h0"/>
    <path class="st2" d="M73.5,10.1h0"/>
    <path class="st2" d="M85.2,10.1h-11.8"/>
    <path class="st2" d="M80.2,14.1h0"/>
    <line class="st2" x1="31.3" y1="11.9" x2="31.3" y2="11.9"/>
    <line class="st2" x1="26" y1="11.9" x2="31.3" y2="11.9"/>
    <line class="st2" x1="26" y1="11.9" x2="25.9" y2="11.9"/>
    <line class="st2" x1="19.2" y1="11.9" x2="25.9" y2="11.9"/>
    <line class="st2" x1="45" y1="14.1" x2="45" y2="14.1"/>
    <line class="st2" x1="45" y1="14.1" x2="45" y2="14.1"/>
    <line class="st2" x1="45" y1="14.1" x2="40.4" y2="14.1"/>
    <line class="st2" x1="40.4" y1="14.1" x2="33.2" y2="14.1"/>
    <line class="st2" x1="33.2" y1="14.1" x2="33.2" y2="14.1"/>
    <line class="st2" x1="46.8" y1="18.1" x2="46.8" y2="18.1"/>
    <line class="st2" x1="47" y1="18.1" x2="47" y2="18.1"/>
    <line class="st2" x1="47" y1="18.1" x2="54" y2="18.1"/>
    <line class="st2" x1="46.9" y1="18.1" x2="47" y2="18.1"/>
    <line class="st2" x1="46.8" y1="18.1" x2="46.9" y2="18.1"/>
    <line class="st2" x1="58.6" y1="18.1" x2="58.6" y2="18.1"/>
    <line class="st2" x1="58.6" y1="18.1" x2="58.6" y2="18.1"/>
    <line class="st2" x1="66.7" y1="12" x2="57.5" y2="12"/>
    <line class="st2" x1="57.4" y1="12" x2="57.5" y2="12"/>
    <line class="st2" x1="66.7" y1="12" x2="66.7" y2="12"/>
    <line class="st2" x1="54.9" y1="12" x2="57.4" y2="12"/>
    <line class="st2" x1="80.2" y1="14.1" x2="80.2" y2="14.1"/>
    <line class="st2" x1="80.2" y1="14.1" x2="80.2" y2="14.1"/>
    <line class="st2" x1="72.5" y1="14.1" x2="68.5" y2="14.1"/>
    <line class="st2" x1="80.2" y1="14.1" x2="80.2" y2="14.1"/>
    <line class="st2" x1="72.5" y1="14.1" x2="80.2" y2="14.1"/>
    <line class="st2" x1="86.4" y1="18.1" x2="82.4" y2="18.1"/>
    <line class="st2" x1="82.4" y1="18.1" x2="82.3" y2="18.1"/>
    <line class="st2" x1="86.4" y1="18.1" x2="94" y2="18.1"/>
    <line class="st2" x1="24.9" y1="22.2" x2="34.1" y2="22.2"/>
    <line class="st2" x1="24.9" y1="22.2" x2="24.7" y2="22.2"/>
    <line class="st2" x1="34.1" y1="22.2" x2="36.5" y2="22.2"/>
    <line class="st2" x1="36.5" y1="22.2" x2="36.5" y2="22.2"/>
    <line class="st2" x1="49.1" y1="28.3" x2="46" y2="28.3"/>
    <line class="st2" x1="49.1" y1="28.3" x2="49.2" y2="28.3"/>
    <line class="st2" x1="49.2" y1="28.3" x2="49.2" y2="28.3"/>
    <line class="st2" x1="49.2" y1="28.3" x2="49.2" y2="28.3"/>
    <line class="st2" x1="37.6" y1="28.3" x2="37.7" y2="28.3"/>
    <line class="st2" x1="37.6" y1="28.3" x2="37.5" y2="28.3"/>
    <line class="st2" x1="46" y1="28.3" x2="37.7" y2="28.3"/>
    <line class="st2" x1="37.4" y1="28.3" x2="37.5" y2="28.3"/>
    <line class="st2" x1="49.4" y1="36.3" x2="56.7" y2="36.3"/>
    <line class="st2" x1="49.4" y1="36.3" x2="49.2" y2="36.3"/>
    <line class="st2" x1="49.2" y1="36.3" x2="49.1" y2="36.3"/>
    <line class="st2" x1="49.2" y1="36.3" x2="49.2" y2="36.3"/>
    <line class="st2" x1="49.4" y1="36.3" x2="49.4" y2="36.3"/>
    <line class="st2" x1="60.9" y1="36.3" x2="60.9" y2="36.3"/>
    <line class="st2" x1="56.7" y1="36.3" x2="60.9" y2="36.3"/>
    <line class="st2" x1="71.7" y1="22.2" x2="71.7" y2="22.2"/>
    <line class="st2" x1="71.7" y1="22.2" x2="71.7" y2="22.2"/>
    <line class="st2" x1="71.7" y1="22.2" x2="66.2" y2="22.2"/>
    <line class="st2" x1="71.7" y1="22.2" x2="71.7" y2="22.2"/>
    <path class="st2" d="M66.2,22.2c-1.6-6.2-4.6-8.2-4.6-8.2"/>
    <line class="st2" x1="60.1" y1="22.2" x2="66.2" y2="22.2"/>
    <line class="st2" x1="60.1" y1="22.2" x2="60" y2="22.2"/>
    <line class="st2" x1="60.1" y1="22.2" x2="60.1" y2="22.2"/>
    <line class="st2" x1="84.4" y1="28.3" x2="84.4" y2="28.3"/>
    <line class="st2" x1="78.1" y1="28.3" x2="73" y2="28.3"/>
    <line class="st2" x1="72.8" y1="28.3" x2="73" y2="28.3"/>
    <line class="st2" x1="73" y1="28.3" x2="73" y2="28.3"/>
    <line class="st2" x1="78.1" y1="28.3" x2="84.4" y2="28.3"/>
    <line class="st2" x1="96.2" y1="36.3" x2="96.2" y2="36.3"/>
    <line class="st2" x1="84.8" y1="36.3" x2="84.8" y2="36.3"/>
    <line class="st2" x1="88.9" y1="36.3" x2="96.2" y2="36.3"/>
    <line class="st2" x1="88.9" y1="36.3" x2="84.8" y2="36.3"/>
    <line class="st2" x1="96.2" y1="36.3" x2="96.2" y2="36.3"/>
    <line class="st2" x1="84.6" y1="36.3" x2="84.4" y2="36.3"/>
    <line class="st2" x1="84.6" y1="36.3" x2="84.8" y2="36.3"/>
    <line class="st2" x1="84.6" y1="36.3" x2="84.6" y2="36.3"/>
    <line class="st2" x1="84.6" y1="36.3" x2="84.6" y2="36.3"/>
    <line class="st2" x1="36.4" y1="42.4" x2="36.4" y2="42.4"/>
    <line class="st2" x1="24.7" y1="42.4" x2="24.9" y2="42.4"/>
    <line class="st2" x1="36.5" y1="42.4" x2="24.9" y2="42.4"/>
    <line class="st2" x1="35.2" y1="46.5" x2="35.4" y2="46.5"/>
    <line class="st2" x1="43.2" y1="46.5" x2="35.4" y2="46.5"/>
    <line class="st2" x1="47" y1="46.5" x2="43.2" y2="46.5"/>
    <line class="st2" x1="47" y1="46.5" x2="47" y2="46.5"/>
    <line class="st2" x1="44.9" y1="50.5" x2="56.7" y2="50.5"/>
    <line class="st2" x1="71.7" y1="42.4" x2="60.2" y2="42.4"/>
    <line class="st2" x1="60" y1="42.4" x2="60.2" y2="42.4"/>
    <line class="st2" x1="60.2" y1="42.4" x2="60.2" y2="42.4"/>
    <line class="st2" x1="71.7" y1="42.4" x2="71.7" y2="42.4"/>
    <line class="st2" x1="71.7" y1="42.4" x2="71.7" y2="42.4"/>
    <line class="st2" x1="82.3" y1="46.5" x2="70.7" y2="46.5"/>
    <line class="st2" x1="70.6" y1="46.5" x2="70.5" y2="46.5"/>
    <line class="st2" x1="70.7" y1="46.5" x2="70.6" y2="46.5"/>
    <line class="st2" x1="92" y1="50.5" x2="92" y2="50.5"/>
    <line class="st2" x1="83.1" y1="50.5" x2="92" y2="50.5"/>
    <line class="st2" x1="92" y1="50.5" x2="92" y2="50.5"/>
    <line class="st2" x1="83.1" y1="50.5" x2="80.2" y2="50.5"/>
    <line class="st2" x1="66.4" y1="52.5" x2="66.4" y2="52.5"/>
    <line class="st2" x1="55" y1="52.5" x2="57.4" y2="52.5"/>
    <line class="st2" x1="55" y1="52.5" x2="55" y2="52.5"/>
    <line class="st2" x1="66.4" y1="52.5" x2="57.4" y2="52.5"/>
    <path class="st2" d="M86.4,18.1h0"/>
    <path class="st2" d="M78.6,12.2c.4,0,3.9-.1,7.7,6"/>
    <path class="st2" d="M31.5,12.1c.6.6,1.2,1.2,1.7,2"/>
    <path class="st2" d="M26.4,54.5c9.7,0,13-19.1,10-32.4"/>
    <path class="st2" d="M31.5,12.1h-.1"/>
    <path class="st2" d="M26.5,10.1h0"/>
    <path class="st2" d="M31.3,11.9c-1.4-1.2-3-1.9-4.9-1.9"/>
    <path class="st2" d="M36.5,22.2c-.7-3.2-1.8-6-3.3-8.1"/>
    <path class="st2" d="M36.5,22.2h0"/>
    <path class="st2" d="M85.2,54.5c2.8,0,5-1.5,6.7-4"/>
    <path class="st2" d="M92,50.5h0"/>
    <path class="st2" d="M96.2,36.3h0"/>
    <path class="st2" d="M92,50.5c2.3-3.4,3.7-8.6,4.2-14.2"/>
    <path class="st2" d="M85.2,54.5h0"/>
    <path class="st2" d="M85.2,10.1c8.3-.1,11.9,14,10.9,26.3"/>
    <path class="st2" d="M80.2,14.1c7.5,11,5.3,40.6-6.8,40.4"/>
    <path class="st2" d="M73.5,10.1h0"/>
    <path class="st2" d="M80.2,14.1h0"/>
    <path class="st2" d="M80.2,14.1h0"/>
    <path class="st2" d="M73.5,10.1c2.8,0,5,1.5,6.7,4"/>
    <path class="st2" d="M61.7,10.1h0"/>
    <path class="st2" d="M66.7,12h0"/>
    <path class="st2" d="M71.7,22.2c-1-4.3-2.7-8-5-10.2"/>
    <path class="st2" d="M61.7,54.5c1.9,0,3.6-.7,5-2"/>
    <path class="st2" d="M71.7,42.4c1.4-6.3,1.4-13.9,0-20.2"/>
    <path class="st2" d="M66.7,12c-1.4-1.3-3.1-2-5-2"/>
    <path class="st2" d="M71.7,42.4c-1,4.3-2.6,8-5,10.1"/>
    <path class="st2" d="M71.7,22.2h0"/>
    <path class="st2" d="M71.7,42.4h0"/>
    <path class="st2" d="M50,10.1h0"/>
    <path class="st2" d="M50,54.5h0"/>
    <path class="st2" d="M50,10.1c12.8-.1,14.5,33.8,5,42.5"/>
    <path class="st2" d="M55,52.5c-1.4,1.3-3.1,2-5,2"/>
    <path class="st2" d="M49.1,28.3c.5,6.3-.2,13.1-2.1,18.2"/>
    <path class="st2" d="M45,14.1h0"/>
    <path class="st2" d="M47,18.1c.2.4.3.9.5,1.3"/>
    <path class="st2" d="M49.1,28.3c-.3-3.1-.8-6.2-1.7-8.8"/>
    <path class="st2" d="M47,18.1c-.6-1.5-1.3-2.9-2-4"/>
    <path class="st2" d="M47,46.5h0"/>
    <path class="st2" d="M45,14.1c-1.7-2.5-4-4.1-6.7-4"/>
    <path class="st2" d="M38.2,54.5c4,0,7-3.3,8.8-8.1"/>
    <path class="st2" d="M49.1,28.3h0"/>
    <path class="st2" d="M38.2,10.1h0"/>
  </g>
</svg>