<?xml version="1.0" encoding="UTF-8"?>
<svg id="Livello_1" xmlns="http://www.w3.org/2000/svg" version="1.1" viewBox="0 0 100 64.7">
  <!-- Generator: Adobe Illustrator 29.7.1, SVG Export Plug-In . SVG Version: 2.1.1 Build 8)  -->
  <defs>
    <style>
      .st0, .st1, .st2, .st3 {
        stroke: #f4f4f4;
        stroke-miterlimit: 10;
      }

      .st0, .st2 {
        fill: #f4f4f4;
      }

      .st4 {
        fill: #2c2c2c;
      }

      .st1, .st3 {
        fill: none;
      }

      .st2, .st3 {
        stroke-width: .8px;
      }

      .st5 {
        display: none;
      }
    </style>
  </defs>
  <g class="st5">
    <ellipse class="st0" cx="14.6" cy="32.3" rx="11.4" ry="22.3"/>
    <ellipse class="st4" cx="14.6" cy="32.3" rx="3.4" ry="6.7"/>
    <g>
      <path class="st1" d="M14.6,10.1h.6"/>
      <path class="st1" d="M14.6,10.1h0"/>
      <path class="st1" d="M14.6,54.6h.6"/>
      <path class="st1" d="M14.6,54.6h0"/>
      <path class="st1" d="M15.2,54.6c14-1.1,14-43.4,0-44.5"/>
      <path class="st1" d="M38.1,10.1h0"/>
      <line class="st1" x1="49.2" y1="28.3" x2="49.2" y2="28.3"/>
      <path class="st1" d="M49.2,28.3h0"/>
      <path class="st1" d="M49.2,28.3h0"/>
      <path class="st1" d="M38.1,10.1h0"/>
      <path class="st1" d="M38.1,10.1h0"/>
      <path class="st1" d="M49.3,28.3h0"/>
      <path class="st1" d="M73.6,54.6h0"/>
      <path class="st1" d="M82.4,46.5h0"/>
      <path class="st1" d="M73.6,10.1h0"/>
      <path class="st1" d="M84.6,28.3h0"/>
      <path class="st1" d="M73.6,54.6h-11.8"/>
      <path class="st1" d="M80.4,14.1h0"/>
      <path class="st1" d="M49.9,54.6h11.4"/>
      <path class="st1" d="M50,10.1h0"/>
      <path class="st1" d="M82.4,46.5h0"/>
      <path class="st1" d="M84.6,28.3h0"/>
      <path class="st1" d="M73.6,54.6h0"/>
      <path class="st1" d="M73.6,54.6h0"/>
      <path class="st1" d="M73.6,10.1h0"/>
      <polyline class="st1" points="73.6 10.1 73.6 10.1 73.6 10.1"/>
      <path class="st1" d="M80.4,14.1h0"/>
      <path class="st1" d="M73.6,10.1h0"/>
      <path class="st1" d="M73.7,10.1h11.8c14.8-.2,14.8,44.8,0,44.6"/>
      <path class="st1" d="M73.7,10.1h0"/>
      <path class="st1" d="M43.3,46.5s-2.7,6-7.4,6"/>
      <path class="st1" d="M46.1,28.7s1,9.2-2.2,16.5"/>
      <path class="st1" d="M46.1,28.3c-1.2-8.8-4.2-12.5-4.2-12.5"/>
      <path class="st1" d="M46.1,28.7v-.4"/>
      <path class="st1" d="M40.5,14.1c-2-2-4.5-2-4.5-2"/>
      <path class="st1" d="M68.2,52.6s3.4,1,7.3-6"/>
      <path class="st1" d="M78.3,28.3c-.7-8.2-4.2-12.5-4.2-12.5"/>
      <path class="st1" d="M78.3,28.7v-.4"/>
      <path class="st1" d="M76.2,45.2c3.3-7.4,2.2-16.5,2.2-16.5"/>
      <path class="st1" d="M72.7,14.1s-1.8-2-4.5-2"/>
      <polyline class="st1" points="45.1 14.1 41.9 15.8 41.9 15.8"/>
      <line class="st1" x1="45.1" y1="14.1" x2="45.1" y2="14.1"/>
      <line class="st1" x1="34.3" y1="15.8" x2="41.9" y2="15.8"/>
      <path class="st1" d="M49.3,28.3h0"/>
      <path class="st1" d="M49.3,28.3h0"/>
      <path class="st1" d="M46.1,28.7s2.9-.4,3.1-.4"/>
      <line class="st1" x1="37.5" y1="28.7" x2="46.1" y2="28.7"/>
      <line class="st1" x1="38.1" y1="10.1" x2="38.1" y2="10.1"/>
      <line class="st1" x1="38.1" y1="10.1" x2="38.1" y2="10.1"/>
      <polyline class="st1" points="31.6 12.1 36 12.1 38.1 10.1"/>
      <line class="st1" x1="35.8" y1="45.2" x2="35.8" y2="45.2"/>
      <polyline class="st1" points="47.1 46.5 44 45.2 35.8 45.2"/>
      <line class="st1" x1="47.1" y1="46.5" x2="47.1" y2="46.5"/>
      <line class="st1" x1="36" y1="52.6" x2="31.6" y2="52.6"/>
      <line class="st1" x1="36" y1="52.6" x2="38.1" y2="54.6"/>
      <line class="st1" x1="68.2" y1="12.1" x2="66.9" y2="12.1"/>
      <line class="st1" x1="73.6" y1="10.1" x2="73.6" y2="10.1"/>
      <line class="st1" x1="73.6" y1="10.1" x2="73.6" y2="10.1"/>
      <line class="st1" x1="73.6" y1="10.1" x2="73.6" y2="10.1"/>
      <line class="st1" x1="68.2" y1="12.1" x2="73.6" y2="10.1"/>
      <line class="st1" x1="80.4" y1="14.1" x2="80.4" y2="14.1"/>
      <line class="st1" x1="80.4" y1="14.1" x2="80.4" y2="14.1"/>
      <line class="st1" x1="80.4" y1="14.1" x2="74.1" y2="15.8"/>
      <line class="st1" x1="80.4" y1="14.1" x2="80.4" y2="14.1"/>
      <line class="st1" x1="80.4" y1="14.1" x2="80.4" y2="14.1"/>
      <line class="st1" x1="80.4" y1="14.1" x2="80.4" y2="14.1"/>
      <line class="st1" x1="69.6" y1="15.8" x2="74.1" y2="15.8"/>
      <path class="st1" d="M78.3,28.7l6.2-.4"/>
      <line class="st1" x1="84.6" y1="28.3" x2="84.6" y2="28.3"/>
      <line class="st1" x1="84.6" y1="28.3" x2="84.6" y2="28.3"/>
      <line class="st1" x1="84.6" y1="28.3" x2="84.6" y2="28.3"/>
      <line class="st1" x1="84.6" y1="28.3" x2="84.6" y2="28.3"/>
      <line class="st1" x1="72.8" y1="28.7" x2="78.3" y2="28.7"/>
      <line class="st1" x1="82.4" y1="46.5" x2="82.4" y2="46.5"/>
      <line class="st1" x1="82.4" y1="46.5" x2="82.4" y2="46.5"/>
      <polyline class="st1" points="82.4 46.5 76.2 45.2 71.1 45.2"/>
      <line class="st1" x1="82.4" y1="46.5" x2="82.4" y2="46.5"/>
      <line class="st1" x1="68.2" y1="52.6" x2="66.9" y2="52.6"/>
      <line class="st1" x1="73.6" y1="54.6" x2="73.6" y2="54.6"/>
      <line class="st1" x1="73.6" y1="54.6" x2="73.6" y2="54.6"/>
      <line class="st1" x1="68.2" y1="52.6" x2="73.6" y2="54.6"/>
      <path class="st1" d="M14.6,54.6h0"/>
      <path class="st1" d="M14.6,10.1C-.2,9.9-.2,54.8,14.6,54.6"/>
      <path class="st1" d="M14.6,10.1h0"/>
      <path class="st1" d="M26.3,10.1h-11.7"/>
      <path class="st1" d="M26.3,10.1h0"/>
      <path class="st1" d="M26.3,54.6h-11.7"/>
      <path class="st1" d="M26.3,54.6h0"/>
      <path class="st1" d="M14.6,54.6h.5"/>
      <path class="st1" d="M15.2,54.6h0"/>
      <path class="st1" d="M14.6,10.1h.5"/>
      <path class="st1" d="M15.2,10.1h0"/>
      <line class="st1" x1="47.1" y1="46.5" x2="47.1" y2="46.5"/>
      <line class="st1" x1="35.3" y1="46.5" x2="47.1" y2="46.5"/>
      <path class="st1" d="M26.4,54.6h11.7"/>
      <line class="st1" x1="45.1" y1="14.1" x2="33.3" y2="14.1"/>
      <path class="st1" d="M38.1,10.1h0"/>
      <path class="st1" d="M26.5,10.1h-.1"/>
      <path class="st1" d="M26.5,10.1h11.6"/>
      <path class="st1" d="M38.1,10.1h0"/>
      <path class="st1" d="M26.4,54.6h0"/>
      <path class="st1" d="M26.3,54.6h0"/>
      <path class="st1" d="M26.4,10.1h0"/>
      <path class="st1" d="M26.4,10.1h0"/>
      <path class="st1" d="M49.9,54.6h-11.8"/>
      <path class="st1" d="M49.9,54.6h0"/>
      <path class="st1" d="M49.9,10.1h0"/>
      <path class="st1" d="M38.3,10.1h11.6"/>
      <path class="st1" d="M38.3,10.1h-.2"/>
      <line class="st1" x1="49.3" y1="28.3" x2="49.2" y2="28.3"/>
      <line class="st1" x1="49.3" y1="28.3" x2="49.3" y2="28.3"/>
      <line class="st1" x1="49.3" y1="28.3" x2="49.3" y2="28.3"/>
      <line class="st1" x1="49.2" y1="28.3" x2="49.3" y2="28.3"/>
      <line class="st1" x1="46.1" y1="28.3" x2="49.2" y2="28.3"/>
      <line class="st1" x1="37.5" y1="28.3" x2="46.1" y2="28.3"/>
      <path class="st1" d="M73.6,10.1h0"/>
      <path class="st1" d="M61.8,10.1h0"/>
      <path class="st1" d="M61.9,10.1h11.7"/>
      <path class="st1" d="M80.4,14.1h0"/>
      <path class="st1" d="M73.6,10.1h0"/>
      <line class="st1" x1="70.7" y1="46.5" x2="70.7" y2="46.5"/>
      <line class="st1" x1="82.4" y1="46.5" x2="70.7" y2="46.5"/>
      <line class="st1" x1="73" y1="28.3" x2="78.3" y2="28.3"/>
      <line class="st1" x1="84.6" y1="28.3" x2="84.6" y2="28.3"/>
      <line class="st1" x1="84.6" y1="28.3" x2="84.6" y2="28.3"/>
      <line class="st1" x1="73" y1="28.3" x2="72.8" y2="28.3"/>
      <line class="st1" x1="82.4" y1="46.5" x2="82.4" y2="46.5"/>
      <line class="st1" x1="82.4" y1="46.5" x2="82.4" y2="46.5"/>
      <line class="st1" x1="84.6" y1="28.3" x2="84.6" y2="28.3"/>
      <line class="st1" x1="84.6" y1="28.3" x2="78.3" y2="28.3"/>
      <path class="st1" d="M73.6,54.6h0"/>
      <path class="st1" d="M73.6,54.6h0"/>
      <path class="st1" d="M61.3,54.6h-11.3"/>
      <path class="st1" d="M61.3,54.6h.4"/>
      <path class="st1" d="M61.8,10.1h0"/>
      <path class="st1" d="M50,10.1h0"/>
      <path class="st1" d="M50.1,10.1h11.7"/>
      <line class="st1" x1="80.4" y1="14.1" x2="80.4" y2="14.1"/>
      <line class="st1" x1="80.4" y1="14.1" x2="80.4" y2="14.1"/>
      <line class="st1" x1="80.4" y1="14.1" x2="80.4" y2="14.1"/>
      <line class="st1" x1="80.4" y1="14.1" x2="80.4" y2="14.1"/>
      <line class="st1" x1="80.4" y1="14.1" x2="68.6" y2="14.1"/>
      <path class="st1" d="M73.7,10.1h11.8"/>
      <path class="st1" d="M73.6,10.1h0"/>
      <path class="st1" d="M85.4,54.6h-11.8"/>
      <path class="st1" d="M26.5,10.1h0"/>
      <path class="st1" d="M35.8,45.2c4.2-13.1,1.1-35.3-9.3-35.2"/>
      <path class="st1" d="M35.8,45.2c-1.8,5.5-4.9,9.5-9.3,9.4"/>
      <path class="st1" d="M85.4,10.1c14.8-.2,14.8,44.8,0,44.6"/>
      <path class="st1" d="M80.4,14.1h0"/>
      <path class="st1" d="M84.6,28.3c1,12.4-2.6,26.4-10.9,26.3"/>
      <path class="st1" d="M84.6,28.3h0"/>
      <path class="st1" d="M84.6,28.3c-.5-5.6-1.8-10.8-4.2-14.2"/>
      <path class="st1" d="M73.7,10.1h0"/>
      <path class="st1" d="M73.7,10.1h0"/>
      <path class="st1" d="M73.7,10.1c2.8,0,5,1.5,6.8,4.1"/>
      <path class="st1" d="M70.7,46.5c4.9-12.9,2-36.6-8.8-36.5"/>
      <path class="st1" d="M70.7,46.5c-1.8,4.8-4.8,8.2-8.8,8.1"/>
      <path class="st1" d="M61.9,10.1h0"/>
      <path class="st1" d="M50.1,54.6c14.8.2,14.8-44.8,0-44.6"/>
      <path class="st1" d="M50.1,10.1h0"/>
      <path class="st1" d="M47.1,46.5h0"/>
      <path class="st1" d="M49.3,28.3h0"/>
      <line class="st1" x1="49.3" y1="28.3" x2="49.3" y2="28.3"/>
      <path class="st1" d="M38.3,10.1h0"/>
      <path class="st1" d="M38.3,54.6c4,0,7-3.3,8.8-8.1"/>
      <path class="st1" d="M49.3,28.3c-.8-9.7-4.4-18.3-10.9-18.2"/>
      <path class="st1" d="M49.3,28.3c.5,6.3-.2,13.1-2.1,18.2"/>
    </g>
  </g>
  <path class="st4" d="M85.4,10.1H14.6c-6.3,0-11.4,10-11.4,22.3s5.1,22.3,11.4,22.3h70.8c6.3,0,11.4-10,11.4-22.3s-5.1-22.3-11.4-22.3Z"/>
  <g>
    <ellipse class="st2" cx="14.6" cy="32.4" rx="11.4" ry="22.4"/>
    <ellipse class="st4" cx="14.6" cy="32.4" rx="3.4" ry="6.7"/>
    <g>
      <path class="st3" d="M17,10.5h-.1"/>
      <path class="st3" d="M18.6,11.4h-.1"/>
      <path class="st3" d="M16.5,10.3h-.1"/>
      <path class="st3" d="M18.1,11h-.1"/>
      <path class="st3" d="M19.7,12.3h-.1"/>
      <path class="st3" d="M22.2,49.2h0"/>
      <line class="st3" x1="22.2" y1="49.2" x2="22.2" y2="49.2"/>
      <path class="st3" d="M20.1,12.7h-.1"/>
      <path class="st3" d="M22,15.2c-.3-.5-.6-1-1-1.4"/>
      <path class="st3" d="M23.9,19.2v.2"/>
      <path class="st3" d="M24.7,43c.1-.4.2-.9.3-1.3"/>
      <path class="st3" d="M24.3,20.4c-.1-.3-.2-.7-.3-1"/>
      <path class="st3" d="M25.3,24.2c-.3-1.3-.6-2.5-.9-3.6"/>
      <path class="st3" d="M24.3,20.4h0"/>
      <path class="st3" d="M19.1,53s-.1,0-.2,0"/>
      <path class="st3" d="M25.5,25.2c0-.4-.1-.7-.2-1"/>
      <path class="st3" d="M25.1,41.4v.3"/>
      <path class="st3" d="M25.6,26.3c0-.3-.1-.7-.2-1"/>
      <path class="st3" d="M25.1,41.4c.3-1.3.5-2.6.7-4.1"/>
      <path class="st3" d="M25.6,26.3h0"/>
      <path class="st3" d="M26,30v.9"/>
      <path class="st3" d="M26,29.7v.3"/>
      <path class="st3" d="M26.1,31.2v-.3"/>
      <path class="st3" d="M25.9,36.4c.1-1.3.2-2.6.2-4s0-.8,0-1.2"/>
      <path class="st3" d="M20.1,12.7c.3.3.6.6.8,1"/>
      <path class="st3" d="M25.9,28.5v.2"/>
      <path class="st3" d="M25.5,25.2h0"/>
      <path class="st3" d="M25.8,27.4c0-.3,0-.7-.1-1"/>
      <path class="st3" d="M25.3,24.2h0"/>
      <path class="st3" d="M25.8,27.4v.2"/>
      <path class="st3" d="M25.9,36.4c0,.3,0,.7-.1,1"/>
      <path class="st3" d="M22.9,16.9c-.1-.2-.2-.4-.3-.6"/>
      <path class="st3" d="M22.2,49.2c.1-.2.3-.5.4-.7"/>
      <path class="st3" d="M19.7,12.3c.1.1.2.2.3.3"/>
      <path class="st3" d="M22.4,16c-.1-.2-.2-.4-.3-.6"/>
      <path class="st3" d="M22.6,48.5h0"/>
      <path class="st3" d="M18.6,11.4c.3.2.6.5.9.8"/>
      <path class="st3" d="M17,10.5c.3.1.7.3,1,.5"/>
      <path class="st3" d="M16.5,10.3c.1,0,.3,0,.4.1"/>
      <path class="st3" d="M25.9,28.5v-.9"/>
      <path class="st3" d="M18.1,11c.1,0,.2.2.4.2"/>
      <path class="st3" d="M22.4,16s.1.2.2.3"/>
      <path class="st3" d="M24.1,45c0-.3.2-.6.3-.8"/>
      <path class="st3" d="M24,45.1h0"/>
      <path class="st3" d="M23.7,46c.1-.3.2-.6.3-.9"/>
      <path class="st3" d="M24.4,44c.1-.3.2-.7.3-1"/>
      <path class="st3" d="M26,29.7v-.9"/>
      <path class="st3" d="M24.3,44.2h0"/>
      <path class="st3" d="M24.4,44h0"/>
      <path class="st3" d="M24.7,43h0"/>
      <path class="st3" d="M23.3,46.9c.1-.3.3-.6.4-.9"/>
      <path class="st3" d="M24.1,45h0"/>
      <path class="st3" d="M22,15.2s0,.2.1.2"/>
      <path class="st3" d="M17.9,53.8c.1,0,.2,0,.4-.2"/>
      <path class="st3" d="M18.9,53.1h0"/>
      <path class="st3" d="M18.5,53.4c.1,0,.3-.2.4-.3"/>
      <path class="st3" d="M19.1,53c1.1-.9,2.2-2.2,3.1-3.8"/>
      <path class="st3" d="M19.1,53h0"/>
      <path class="st3" d="M16.7,54.3c.1,0,.2,0,.4,0"/>
      <path class="st3" d="M16.1,54.5c.1,0,.2,0,.4,0"/>
      <path class="st3" d="M15.5,54.7h.4"/>
      <path class="st3" d="M23.3,46.9h0"/>
      <path class="st3" d="M17.3,54.1c.1,0,.2,0,.3-.2"/>
      <path class="st3" d="M23.7,46h0"/>
      <line class="st3" x1="23.3" y1="46.9" x2="23.3" y2="46.9"/>
      <path class="st3" d="M22.6,48.5c.3-.5.5-1,.7-1.5"/>
      <path class="st3" d="M14.6,10h0c.6,0,1.1,0,1.7.2"/>
      <path class="st3" d="M22.9,16.9s0,.2.1.3"/>
      <path class="st3" d="M23.9,19.2c-.3-.7-.5-1.4-.8-2"/>
      <path class="st3" d="M23.7,46h0"/>
      <path class="st3" d="M24.4,44v.2"/>
      <path class="st3" d="M14.6,54.7h.6"/>
      <path class="st3" d="M24.7,43h0"/>
      <path class="st3" d="M24.1,45h0"/>
      <path class="st3" d="M23.7,46h0"/>
      <line class="st3" x1="17.1" y1="54.2" x2="17.1" y2="54.2"/>
      <path class="st3" d="M16.7,54.3h0"/>
      <path class="st3" d="M16.5,54.4h0"/>
      <path class="st3" d="M17.3,54.1h0"/>
      <path class="st3" d="M17.7,53.9h0"/>
      <path class="st3" d="M15.5,54.7h0"/>
      <path class="st3" d="M16.1,54.5h0"/>
      <path class="st3" d="M15.3,54.7h0"/>
      <path class="st3" d="M17.9,53.8h0"/>
      <path class="st3" d="M15.9,54.6h0"/>
      <path class="st3" d="M18.5,53.4h0"/>
      <path class="st3" d="M16.1,54.5h-.2"/>
      <path class="st3" d="M15.5,54.7h-.2"/>
      <line class="st3" x1="14.6" y1="54.7" x2="14.6" y2="54.7"/>
      <path class="st3" d="M16.7,54.3h-.2"/>
      <path class="st3" d="M18.5,53.4s-.1,0-.2,0"/>
      <path class="st3" d="M14.6,54.7h0"/>
      <path class="st3" d="M18.3,53.6h0"/>
      <path class="st3" d="M17.3,54.1s-.2,0-.2,0"/>
      <path class="st3" d="M17.9,53.8s-.2,0-.2,0"/>
      <path class="st3" d="M14.6,10h11.7"/>
      <path class="st3" d="M14.6,54.7h11.7"/>
      <path class="st3" d="M47.1,46.6h0"/>
      <line class="st3" x1="47.1" y1="46.6" x2="47.1" y2="46.6"/>
      <path class="st3" d="M38.2,10h-11.7"/>
      <path class="st3" d="M50.1,10"/>
      <path class="st3" d="M50.1,10h0"/>
      <line class="st3" x1="50.1" y1="10" x2="50.1" y2="10"/>
      <path class="st3" d="M73.9,10h-11.9"/>
      <polyline class="st3" points="62 10 62 10 62 10"/>
      <path class="st3" d="M73.9,54.7"/>
      <path class="st3" d="M50.1,10"/>
      <path class="st3" d="M62,10h0"/>
      <path class="st3" d="M62,10h-11.9"/>
      <polyline class="st3" points="50.1 10 50.1 10 50.1 10"/>
      <path class="st3" d="M73.9,54.7h0"/>
      <path class="st3" d="M85.7,54.7"/>
      <path class="st3" d="M73.9,54.7h11.9"/>
      <path class="st3" d="M73.9,10h11.9"/>
      <path class="st3" d="M73.9,54.7"/>
      <path class="st3" d="M85.7,10"/>
      <path class="st3" d="M43.5,46.6s-2.7,6.1-7.4,6.1"/>
      <path class="st3" d="M44.1,45.3c3.2-7.4,2.2-16.6,2.2-16.6"/>
      <path class="st3" d="M42,15.7s3,3.7,4.2,12.5"/>
      <path class="st3" d="M40.6,14c-2-2-4.5-2-4.5-2"/>
      <path class="st3" d="M46.9,12c.3,0,4.3-.1,7.4,6.1"/>
      <path class="st3" d="M57.1,36c1-9.7-2.2-16.6-2.2-16.6"/>
      <path class="st3" d="M52.8,49s3.7-4.8,4.3-12.6"/>
      <path class="st3" d="M46.9,52.7s2.7,0,4.3-1.9"/>
      <path class="st3" d="M62,13.9s3.5,3,4.6,8.3"/>
      <path class="st3" d="M66.9,41.6c2.7-9.4,0-18.5,0-18.5"/>
      <path class="st3" d="M66.6,42.6c-1.7,5.8-4.7,8.2-4.7,8.2"/>
      <path class="st3" d="M75.8,46.6c-3.8,6.6-7.4,6.1-7.4,6.1"/>
      <path class="st3" d="M76.4,45.3c3.4-7.4,2.2-16.6,2.2-16.6"/>
      <path class="st3" d="M78.6,28.7v-.4"/>
      <path class="st3" d="M74.4,15.7s3.5,4.4,4.2,12.5"/>
      <path class="st3" d="M72.9,14s-1.8-2-4.5-2"/>
      <line class="st3" x1="25.1" y1="23.1" x2="25" y2="23.1"/>
      <line class="st3" x1="42.1" y1="15.7" x2="45.5" y2="14"/>
      <line class="st3" x1="42" y1="15.7" x2="34.7" y2="15.7"/>
      <line class="st3" x1="37.9" y1="28.7" x2="46.3" y2="28.7"/>
      <polyline class="st3" points="38.2 10 36.1 12 32 12"/>
      <polyline class="st3" points="44.1 45.3 44.1 45.3 47.6 46.6"/>
      <line class="st3" x1="44.1" y1="45.3" x2="36.2" y2="45.3"/>
      <line class="st3" x1="36.1" y1="52.7" x2="32" y2="52.7"/>
      <line class="st3" x1="36.1" y1="52.7" x2="38.3" y2="54.7"/>
      <line class="st3" x1="50.1" y1="10" x2="50.1" y2="10"/>
      <line class="st3" x1="46.9" y1="12" x2="50.1" y2="10"/>
      <line class="st3" x1="46.9" y1="12" x2="43.8" y2="12"/>
      <line class="st3" x1="48.1" y1="19.4" x2="54.9" y2="19.4"/>
      <polyline class="st3" points="54.9 19.4 54.9 19.4 59.4 18.1"/>
      <line class="st3" x1="57.1" y1="36" x2="49.8" y2="36"/>
      <line class="st3" x1="61.6" y1="36.4" x2="57.1" y2="36"/>
      <line class="st3" x1="52.8" y1="49" x2="46.5" y2="49"/>
      <line class="st3" x1="52.8" y1="49" x2="57.4" y2="50.7"/>
      <polyline class="st3" points="50.1 54.7 46.9 52.7 43.8 52.7"/>
      <line class="st3" x1="62" y1="10" x2="62" y2="10"/>
      <line class="st3" x1="62" y1="10" x2="57.7" y2="12"/>
      <line class="st3" x1="62" y1="10" x2="62" y2="10"/>
      <line class="st3" x1="62" y1="13.9" x2="66.8" y2="12"/>
      <line class="st3" x1="62" y1="13.9" x2="57.3" y2="13.9"/>
      <line class="st3" x1="60.8" y1="23.1" x2="66.9" y2="23.1"/>
      <line class="st3" x1="72.2" y1="22.2" x2="66.9" y2="23.1"/>
      <line class="st3" x1="72.5" y1="42.5" x2="66.9" y2="41.6"/>
      <line class="st3" x1="60.8" y1="41.6" x2="66.9" y2="41.6"/>
      <line class="st3" x1="62" y1="50.8" x2="57.3" y2="50.8"/>
      <polyline class="st3" points="67.5 52.7 62 50.8 62 50.8"/>
      <line class="st3" x1="57.7" y1="52.7" x2="62" y2="54.7"/>
      <path class="st3" d="M57.7,52.7"/>
      <line class="st3" x1="66.8" y1="12" x2="68.4" y2="12"/>
      <line class="st3" x1="68.4" y1="12" x2="73.9" y2="10"/>
      <line class="st3" x1="81" y1="14" x2="74.4" y2="15.7"/>
      <line class="st3" x1="69.7" y1="15.7" x2="74.4" y2="15.7"/>
      <line class="st3" x1="78.6" y1="28.7" x2="73.3" y2="28.7"/>
      <polyline class="st3" points="78.6 28.7 78.6 28.7 85.2 28.3"/>
      <polyline class="st3" points="76.4 45.3 83 46.6 71.3 46.6"/>
      <line class="st3" x1="76.4" y1="45.3" x2="71.7" y2="45.3"/>
      <line class="st3" x1="73.9" y1="54.7" x2="68.4" y2="52.7"/>
      <line class="st3" x1="67.5" y1="52.7" x2="68.4" y2="52.7"/>
      <path class="st3" d="M22.6,48.5c-.1.2-.3.5-.4.7"/>
      <path class="st3" d="M22.2,49.2h0"/>
      <path class="st3" d="M22.6,48.5h0"/>
      <path class="st3" d="M22.9,47.7c-.1.3-.2.5-.4.7"/>
      <path class="st3" d="M15.9,54.6h0"/>
      <line class="st3" x1="14.6" y1="54.7" x2="14.6" y2="54.7"/>
      <path class="st3" d="M18.9,53.1c-.1,0-.3.2-.4.3"/>
      <path class="st3" d="M16.7,54.3c.1,0,.2,0,.3,0"/>
      <path class="st3" d="M17.7,53.9c-.1,0-.2,0-.3.2"/>
      <path class="st3" d="M18.4,53.5h-.2"/>
      <path class="st3" d="M17.2,54.2h-.1"/>
      <path class="st3" d="M17.9,53.8s.2,0,.3-.2"/>
      <path class="st3" d="M14.6,54.7h.4"/>
      <path class="st3" d="M15.9,54.6h0"/>
      <path class="st3" d="M17.1,54.2h0"/>
      <path class="st3" d="M15.3,54.7h-.2"/>
      <path class="st3" d="M16.5,54.4c-.1,0-.2,0-.4,0"/>
      <path class="st3" d="M18.3,53.6h0"/>
      <path class="st3" d="M17.2,54.2h.1"/>
      <path class="st3" d="M17.7,53.9s.2,0,.2,0"/>
      <path class="st3" d="M15.3,54.7h0"/>
      <path class="st3" d="M15.9,54.6h.2"/>
      <path class="st3" d="M18.4,53.5h0"/>
      <path class="st3" d="M19.1,53c.2,0,.4-.3.5-.5"/>
      <path class="st3" d="M19.1,53s-.1,0-.2,0"/>
      <path class="st3" d="M16.5,54.4h.2"/>
      <path class="st3" d="M15.5,54.7h.4"/>
      <path class="st3" d="M15.3,54.7h.2"/>
      <path class="st3" d="M14.6,10c-6.3,0-11.4,10-11.4,22.4s5.1,22.4,11.4,22.4,0,0,0,0"/>
      <path class="st3" d="M14.6,54.7h0"/>
      <path class="st3" d="M23.7,46h0"/>
      <path class="st3" d="M24.3,44.2v-.2"/>
      <path class="st3" d="M24,45.1h0"/>
      <path class="st3" d="M24,45.1c-.1.3-.2.6-.3.9"/>
      <path class="st3" d="M23.3,46.9h0"/>
      <path class="st3" d="M23.7,46c-.1.3-.2.6-.4.9"/>
      <path class="st3" d="M24.3,44.2c0,.3-.2.6-.3.8"/>
      <path class="st3" d="M24.7,43h0"/>
      <path class="st3" d="M24.7,43c0,.3-.2.7-.3,1"/>
      <path class="st3" d="M21.8,49.8c-.3.4-.5.8-.8,1.1"/>
      <path class="st3" d="M26.4,54.7h-11.7"/>
      <path class="st3" d="M19.6,52.5c.2-.2.4-.4.5-.6"/>
      <path class="st3" d="M20,12.6h.1"/>
      <path class="st3" d="M19.5,12.1h.1"/>
      <path class="st3" d="M20.6,13.2c-.1-.2-.3-.3-.4-.5"/>
      <path class="st3" d="M19.5,12.1c-.2-.1-.3-.3-.5-.4"/>
      <path class="st3" d="M20,12.6c-.1-.1-.2-.2-.3-.3"/>
      <path class="st3" d="M23.3,46.9h0"/>
      <path class="st3" d="M24.7,43h0"/>
      <path class="st3" d="M24,45.1h0"/>
      <path class="st3" d="M24.3,44.2v-.2"/>
      <path class="st3" d="M24.3,44.2c0,.3-.2.6-.3.8"/>
      <path class="st3" d="M23.7,46h0"/>
      <path class="st3" d="M23.7,46c-.1.3-.2.6-.4.9"/>
      <path class="st3" d="M24.7,43c0,.3-.2.7-.3,1"/>
      <path class="st3" d="M23.7,46c.1-.3.2-.6.3-.9"/>
      <path class="st3" d="M14.6,10h11.9"/>
      <path class="st3" d="M25.1,41.4v.3"/>
      <path class="st3" d="M24.7,43c.1-.4.2-.9.3-1.3"/>
      <path class="st3" d="M24.7,43h0"/>
      <path class="st3" d="M25.4,40c0,.5-.2.9-.3,1.3"/>
      <path class="st3" d="M22,15.2s0,.2.1.2"/>
      <path class="st3" d="M22.1,15.4c.1.2.2.4.3.6"/>
      <path class="st3" d="M22.9,16.9s0,.2.1.3"/>
      <path class="st3" d="M22,15.2c-.2-.3-.3-.5-.5-.8"/>
      <path class="st3" d="M22.6,16.3c.1.2.2.4.3.6"/>
      <path class="st3" d="M23,17.2c.1.3.3.6.4.9"/>
      <path class="st3" d="M22.6,16.3s-.1-.2-.2-.3"/>
      <path class="st3" d="M26,34.6v-2.3"/>
      <path class="st3" d="M17.7,53.9c-.1,0-.2,0-.3.2"/>
      <path class="st3" d="M15,54.7h-.4"/>
      <path class="st3" d="M18.4,53.5h0"/>
      <path class="st3" d="M15.8,54.6h-.4"/>
      <path class="st3" d="M15.3,54.7h-.2"/>
      <path class="st3" d="M18.9,53.1s.1,0,.2,0"/>
      <line class="st3" x1="14.6" y1="54.7" x2="14.6" y2="54.7"/>
      <path class="st3" d="M17.1,54.2c-.1,0-.2,0-.3,0"/>
      <path class="st3" d="M16.5,54.4h.2"/>
      <path class="st3" d="M18.2,53.6s-.2,0-.3.2"/>
      <path class="st3" d="M16.5,54.4c-.1,0-.2,0-.4,0"/>
      <path class="st3" d="M18.9,53.1c-.1,0-.3.2-.4.3"/>
      <path class="st3" d="M15.9,54.6h.2"/>
      <path class="st3" d="M19.1,53c.2,0,.4-.3.5-.5"/>
      <path class="st3" d="M18.3,53.6h.2"/>
      <path class="st3" d="M17.2,54.2h.1"/>
      <path class="st3" d="M17.1,54.2h.1"/>
      <path class="st3" d="M18.3,53.6h0"/>
      <path class="st3" d="M17.7,53.9s.2,0,.2,0"/>
      <path class="st3" d="M15.9,54.6h0"/>
      <path class="st3" d="M15.3,54.7h.2"/>
      <path class="st3" d="M15.9,54.6h0"/>
      <path class="st3" d="M17.1,54.2h0"/>
      <path class="st3" d="M15.3,54.7h0"/>
      <path class="st3" d="M22.2,49.2h0"/>
      <path class="st3" d="M22.2,49.2c.3-.5.5-.9.8-1.5"/>
      <path class="st3" d="M22.2,49.2c-.1.2-.3.5-.4.7"/>
      <path class="st3" d="M22.2,49.2h0"/>
      <path class="st3" d="M23.3,46.9h0"/>
      <path class="st3" d="M22.9,47.7c.1-.3.2-.5.4-.8"/>
      <path class="st3" d="M25.7,37.9c0,.7-.2,1.4-.3,2.1"/>
      <path class="st3" d="M14.6,10h0"/>
      <path class="st3" d="M15.8,10.1c-.4,0-.8-.1-1.2-.1"/>
      <path class="st3" d="M25.9,36.4c0-.6,0-1.1.1-1.7"/>
      <path class="st3" d="M25.9,36.4v.5"/>
      <path class="st3" d="M21.8,49.8c-.3.4-.5.8-.8,1.1"/>
      <path class="st3" d="M20.1,52c.3-.3.6-.6.8-1"/>
      <path class="st3" d="M21,13.7c.2.2.3.4.5.7"/>
      <path class="st3" d="M21,13.7c-.1-.2-.3-.4-.4-.5"/>
      <path class="st3" d="M25.8,37.3v-.5"/>
      <path class="st3" d="M25.8,37.3v.6"/>
      <path class="st3" d="M24.3,20.5h0"/>
      <path class="st3" d="M24.3,20.5c.3.8.5,1.7.7,2.6"/>
      <path class="st3" d="M23.9,19.2v.2"/>
      <path class="st3" d="M23.9,19.2c-.1-.4-.3-.7-.4-1.1"/>
      <path class="st3" d="M24,19.4c.1.3.2.7.3,1"/>
      <path class="st3" d="M25.3,24.2c0,.3.1.7.2,1"/>
      <path class="st3" d="M25.9,28.8v.9"/>
      <path class="st3" d="M26.1,31.2v-.3"/>
      <path class="st3" d="M25.7,26.5h0"/>
      <path class="st3" d="M25.5,25.3c0,.3.1.7.2,1"/>
      <path class="st3" d="M25.7,26.5c0,.3,0,.6.1,1"/>
      <path class="st3" d="M25.8,27.6v.9"/>
      <path class="st3" d="M26,30v.9"/>
      <path class="st3" d="M25.1,23.1c0,.3.2.7.2,1.1"/>
      <path class="st3" d="M26,30v-.3"/>
      <path class="st3" d="M25.8,27.6v-.2"/>
      <path class="st3" d="M25.3,24.2h0"/>
      <path class="st3" d="M26.1,32.3v-1.2"/>
      <path class="st3" d="M25.5,25.3h0"/>
      <path class="st3" d="M25.9,28.8v-.2"/>
      <path class="st3" d="M16.8,10.4h.1"/>
      <path class="st3" d="M18.5,11.3h.1"/>
      <path class="st3" d="M16.3,10.2h.1"/>
      <path class="st3" d="M18,11h.1"/>
      <path class="st3" d="M16.8,10.4c-.1,0-.3,0-.4-.1"/>
      <path class="st3" d="M16.3,10.2c-.2,0-.3,0-.5-.1"/>
      <path class="st3" d="M18,11c-.3-.2-.7-.4-1-.5"/>
      <path class="st3" d="M19.1,11.7c-.2-.1-.3-.2-.5-.4"/>
      <path class="st3" d="M18.5,11.3c-.1,0-.2-.2-.4-.2"/>
      <line class="st3" x1="47.1" y1="46.6" x2="47.1" y2="46.6"/>
      <line class="st3" x1="47.1" y1="46.6" x2="47.1" y2="46.6"/>
      <path class="st3" d="M26.5,10h11.7"/>
      <path class="st3" d="M47.1,46.6"/>
      <path class="st3" d="M47.1,46.6h0"/>
      <path class="st3" d="M26.5,54.7h11.7"/>
      <path class="st3" d="M50.1,54.7h-11.9"/>
      <path class="st3" d="M50.1,10"/>
      <path class="st3" d="M50.1,10h0"/>
      <path class="st3" d="M50.1,10h-11.9"/>
      <path class="st3" d="M73.9,10h-11.9"/>
      <path class="st3" d="M73.9,54.7"/>
      <path class="st3" d="M61.9,54.7h12"/>
      <path class="st3" d="M62,10h0"/>
      <path class="st3" d="M62,10h0"/>
      <path class="st3" d="M62,54.7h-11.9"/>
      <path class="st3" d="M50.1,10"/>
      <path class="st3" d="M50.1,10h0"/>
      <path class="st3" d="M62,10h-11.9"/>
      <path class="st3" d="M62,10h0"/>
      <path class="st3" d="M85.7,54.7"/>
      <path class="st3" d="M85.7,54.7h0"/>
      <polyline class="st3" points="73.9 54.7 73.9 54.7 73.9 54.7"/>
      <path class="st3" d="M85.7,54.7h-11.9"/>
      <path class="st3" d="M73.9,54.7"/>
      <path class="st3" d="M85.7,10"/>
      <path class="st3" d="M85.7,10h0"/>
      <path class="st3" d="M73.9,10h11.9"/>
      <line class="st3" x1="40.6" y1="14" x2="45.5" y2="14"/>
      <line class="st3" x1="40.6" y1="14" x2="33.7" y2="14"/>
      <line class="st3" x1="47.6" y1="18.1" x2="59.4" y2="18.1"/>
      <path class="st3" d="M54.3,18.1"/>
      <line class="st3" x1="57.7" y1="12" x2="55.6" y2="12"/>
      <line class="st3" x1="72.9" y1="14" x2="68.6" y2="14"/>
      <line class="st3" x1="81" y1="14" x2="72.9" y2="14"/>
      <line class="st3" x1="37.9" y1="28.3" x2="46.2" y2="28.3"/>
      <line class="st3" x1="57.1" y1="36.4" x2="49.7" y2="36.4"/>
      <line class="st3" x1="61.6" y1="36.4" x2="57.1" y2="36.4"/>
      <line class="st3" x1="66.6" y1="22.2" x2="72.2" y2="22.2"/>
      <line class="st3" x1="66.6" y1="22.2" x2="60.6" y2="22.2"/>
      <line class="st3" x1="73.3" y1="28.3" x2="78.6" y2="28.3"/>
      <line class="st3" x1="85.2" y1="28.3" x2="78.6" y2="28.3"/>
      <polyline class="st3" points="46.3 28.7 46.3 28.7 49.7 28.3"/>
      <line class="st3" x1="49.7" y1="28.3" x2="46.2" y2="28.3"/>
      <line class="st3" x1="43.5" y1="46.6" x2="35.8" y2="46.6"/>
      <line class="st3" x1="47.1" y1="46.6" x2="47.1" y2="46.6"/>
      <line class="st3" x1="43.5" y1="46.6" x2="47.6" y2="46.6"/>
      <line class="st3" x1="57.4" y1="50.7" x2="45.5" y2="50.7"/>
      <line class="st3" x1="60.6" y1="42.5" x2="72.5" y2="42.5"/>
      <line class="st3" x1="57.7" y1="52.7" x2="55.6" y2="52.7"/>
      <line class="st3" x1="57.7" y1="52.7" x2="67.5" y2="52.7"/>
    </g>
    <path class="st3" d="M26.9,10c14.9-.2,14.9,44.9,0,44.8"/>
    <path class="st3" d="M85.6,10c14.9-.2,14.9,44.9,0,44.8"/>
    <path class="st3" d="M74.2,10c14.9-.2,14.9,44.9,0,44.8"/>
    <path class="st3" d="M62.4,10c14.9-.2,14.9,44.9,0,44.8"/>
    <path class="st3" d="M50.6,10c14.9-.2,14.9,44.9,0,44.8"/>
    <path class="st3" d="M38.7,10c14.9-.2,14.9,44.9,0,44.8"/>
  </g>
</svg>