<?xml version="1.0" encoding="UTF-8"?>
<svg id="Livello_1" xmlns="http://www.w3.org/2000/svg" version="1.1" viewBox="0 0 100 64.7">
  <!-- Generator: Adobe Illustrator 29.7.1, SVG Export Plug-In . SVG Version: 2.1.1 Build 8)  -->
  <defs>
    <style>
      .st0 {
        fill: #2c2c2c;
      }

      .st1 {
        fill: #f4f4f4;
      }

      .st1, .st2 {
        stroke: #f4f4f4;
        stroke-miterlimit: 10;
        stroke-width: .8px;
      }

      .st2 {
        fill: none;
      }
    </style>
  </defs>
  <path class="st0" d="M85.4,10.1H14.6c-6.3,0-11.4,10-11.4,22.3s5.1,22.3,11.4,22.3h70.8c6.3,0,11.4-10,11.4-22.3s-5.1-22.3-11.4-22.3Z"/>
  <ellipse class="st1" cx="14.6" cy="32.3" rx="11.4" ry="22.3"/>
  <ellipse class="st0" cx="14.6" cy="32.3" rx="3.4" ry="6.7"/>
  <g>
    <path class="st2" d="M14.6,10.1h.6"/>
    <path class="st2" d="M14.6,10.1h0"/>
    <path class="st2" d="M14.6,54.6h.6"/>
    <path class="st2" d="M14.6,54.6h0"/>
    <path class="st2" d="M15.2,54.6c14-1.1,14-43.4,0-44.5"/>
    <path class="st2" d="M38.1,10.1h0"/>
    <line class="st2" x1="49.2" y1="28.3" x2="49.2" y2="28.3"/>
    <path class="st2" d="M49.2,28.3h0"/>
    <path class="st2" d="M49.2,28.3h0"/>
    <path class="st2" d="M38.1,10.1h0"/>
    <path class="st2" d="M38.1,10.1h0"/>
    <path class="st2" d="M49.3,28.3h0"/>
    <path class="st2" d="M73.6,54.6h0"/>
    <path class="st2" d="M82.4,46.5h0"/>
    <path class="st2" d="M73.6,10.1h0"/>
    <path class="st2" d="M84.6,28.3h0"/>
    <path class="st2" d="M73.6,54.6h-11.8"/>
    <path class="st2" d="M80.4,14.1h0"/>
    <path class="st2" d="M49.9,54.6h11.4"/>
    <path class="st2" d="M50,10.1h0"/>
    <path class="st2" d="M82.4,46.5h0"/>
    <path class="st2" d="M84.6,28.3h0"/>
    <path class="st2" d="M73.6,54.6h0"/>
    <path class="st2" d="M73.6,54.6h0"/>
    <path class="st2" d="M73.6,10.1h0"/>
    <polyline class="st2" points="73.6 10.1 73.6 10.1 73.6 10.1"/>
    <path class="st2" d="M80.4,14.1h0"/>
    <path class="st2" d="M73.6,10.1h0"/>
    <path class="st2" d="M73.7,10.1h11.8c14.8-.2,14.8,44.8,0,44.6"/>
    <path class="st2" d="M73.7,10.1h0"/>
    <path class="st2" d="M43.3,46.5s-2.7,6-7.4,6"/>
    <path class="st2" d="M46.1,28.7s1,9.2-2.2,16.5"/>
    <path class="st2" d="M46.1,28.3c-1.2-8.8-4.2-12.5-4.2-12.5"/>
    <path class="st2" d="M46.1,28.7v-.4"/>
    <path class="st2" d="M40.5,14.1c-2-2-4.5-2-4.5-2"/>
    <path class="st2" d="M68.2,52.6s3.4,1,7.3-6"/>
    <path class="st2" d="M78.3,28.3c-.7-8.2-4.2-12.5-4.2-12.5"/>
    <path class="st2" d="M78.3,28.7v-.4"/>
    <path class="st2" d="M76.2,45.2c3.3-7.4,2.2-16.5,2.2-16.5"/>
    <path class="st2" d="M72.7,14.1s-1.8-2-4.5-2"/>
    <polyline class="st2" points="45.1 14.1 41.9 15.8 41.9 15.8"/>
    <line class="st2" x1="45.1" y1="14.1" x2="45.1" y2="14.1"/>
    <line class="st2" x1="34.3" y1="15.8" x2="41.9" y2="15.8"/>
    <path class="st2" d="M49.3,28.3h0"/>
    <path class="st2" d="M49.3,28.3h0"/>
    <path class="st2" d="M46.1,28.7s2.9-.4,3.1-.4"/>
    <line class="st2" x1="37.5" y1="28.7" x2="46.1" y2="28.7"/>
    <line class="st2" x1="38.1" y1="10.1" x2="38.1" y2="10.1"/>
    <line class="st2" x1="38.1" y1="10.1" x2="38.1" y2="10.1"/>
    <polyline class="st2" points="31.6 12.1 36 12.1 38.1 10.1"/>
    <line class="st2" x1="35.8" y1="45.2" x2="35.8" y2="45.2"/>
    <polyline class="st2" points="47.1 46.5 44 45.2 35.8 45.2"/>
    <line class="st2" x1="47.1" y1="46.5" x2="47.1" y2="46.5"/>
    <line class="st2" x1="36" y1="52.6" x2="31.6" y2="52.6"/>
    <line class="st2" x1="36" y1="52.6" x2="38.1" y2="54.6"/>
    <line class="st2" x1="68.2" y1="12.1" x2="66.9" y2="12.1"/>
    <line class="st2" x1="73.6" y1="10.1" x2="73.6" y2="10.1"/>
    <line class="st2" x1="73.6" y1="10.1" x2="73.6" y2="10.1"/>
    <line class="st2" x1="73.6" y1="10.1" x2="73.6" y2="10.1"/>
    <line class="st2" x1="68.2" y1="12.1" x2="73.6" y2="10.1"/>
    <line class="st2" x1="80.4" y1="14.1" x2="80.4" y2="14.1"/>
    <line class="st2" x1="80.4" y1="14.1" x2="80.4" y2="14.1"/>
    <line class="st2" x1="80.4" y1="14.1" x2="74.1" y2="15.8"/>
    <line class="st2" x1="80.4" y1="14.1" x2="80.4" y2="14.1"/>
    <line class="st2" x1="80.4" y1="14.1" x2="80.4" y2="14.1"/>
    <line class="st2" x1="80.4" y1="14.1" x2="80.4" y2="14.1"/>
    <line class="st2" x1="69.6" y1="15.8" x2="74.1" y2="15.8"/>
    <path class="st2" d="M78.3,28.7l6.2-.4"/>
    <line class="st2" x1="84.6" y1="28.3" x2="84.6" y2="28.3"/>
    <line class="st2" x1="84.6" y1="28.3" x2="84.6" y2="28.3"/>
    <line class="st2" x1="84.6" y1="28.3" x2="84.6" y2="28.3"/>
    <line class="st2" x1="84.6" y1="28.3" x2="84.6" y2="28.3"/>
    <line class="st2" x1="72.8" y1="28.7" x2="78.3" y2="28.7"/>
    <line class="st2" x1="82.4" y1="46.5" x2="82.4" y2="46.5"/>
    <line class="st2" x1="82.4" y1="46.5" x2="82.4" y2="46.5"/>
    <polyline class="st2" points="82.4 46.5 76.2 45.2 71.1 45.2"/>
    <line class="st2" x1="82.4" y1="46.5" x2="82.4" y2="46.5"/>
    <line class="st2" x1="68.2" y1="52.6" x2="66.9" y2="52.6"/>
    <line class="st2" x1="73.6" y1="54.6" x2="73.6" y2="54.6"/>
    <line class="st2" x1="73.6" y1="54.6" x2="73.6" y2="54.6"/>
    <line class="st2" x1="68.2" y1="52.6" x2="73.6" y2="54.6"/>
    <path class="st2" d="M14.6,54.6h0"/>
    <path class="st2" d="M14.6,10.1C-.2,9.9-.2,54.8,14.6,54.6"/>
    <path class="st2" d="M14.6,10.1h0"/>
    <path class="st2" d="M26.3,10.1h-11.7"/>
    <path class="st2" d="M26.3,10.1h0"/>
    <path class="st2" d="M26.3,54.6h-11.7"/>
    <path class="st2" d="M26.3,54.6h0"/>
    <path class="st2" d="M14.6,54.6h.5"/>
    <path class="st2" d="M15.2,54.6h0"/>
    <path class="st2" d="M14.6,10.1h.5"/>
    <path class="st2" d="M15.2,10.1h0"/>
    <line class="st2" x1="47.1" y1="46.5" x2="47.1" y2="46.5"/>
    <line class="st2" x1="35.3" y1="46.5" x2="47.1" y2="46.5"/>
    <path class="st2" d="M26.4,54.6h11.7"/>
    <line class="st2" x1="45.1" y1="14.1" x2="33.3" y2="14.1"/>
    <path class="st2" d="M38.1,10.1h0"/>
    <path class="st2" d="M26.5,10.1h-.1"/>
    <path class="st2" d="M26.5,10.1h11.6"/>
    <path class="st2" d="M38.1,10.1h0"/>
    <path class="st2" d="M26.4,54.6h0"/>
    <path class="st2" d="M26.3,54.6h0"/>
    <path class="st2" d="M26.4,10.1h0"/>
    <path class="st2" d="M26.4,10.1h0"/>
    <path class="st2" d="M49.9,54.6h-11.8"/>
    <path class="st2" d="M49.9,54.6h0"/>
    <path class="st2" d="M49.9,10.1h0"/>
    <path class="st2" d="M38.3,10.1h11.6"/>
    <path class="st2" d="M38.3,10.1h-.2"/>
    <line class="st2" x1="49.3" y1="28.3" x2="49.2" y2="28.3"/>
    <line class="st2" x1="49.3" y1="28.3" x2="49.3" y2="28.3"/>
    <line class="st2" x1="49.3" y1="28.3" x2="49.3" y2="28.3"/>
    <line class="st2" x1="49.2" y1="28.3" x2="49.3" y2="28.3"/>
    <line class="st2" x1="46.1" y1="28.3" x2="49.2" y2="28.3"/>
    <line class="st2" x1="37.5" y1="28.3" x2="46.1" y2="28.3"/>
    <path class="st2" d="M73.6,10.1h0"/>
    <path class="st2" d="M61.8,10.1h0"/>
    <path class="st2" d="M61.9,10.1h11.7"/>
    <path class="st2" d="M80.4,14.1h0"/>
    <path class="st2" d="M73.6,10.1h0"/>
    <line class="st2" x1="70.7" y1="46.5" x2="70.7" y2="46.5"/>
    <line class="st2" x1="82.4" y1="46.5" x2="70.7" y2="46.5"/>
    <line class="st2" x1="73" y1="28.3" x2="78.3" y2="28.3"/>
    <line class="st2" x1="84.6" y1="28.3" x2="84.6" y2="28.3"/>
    <line class="st2" x1="84.6" y1="28.3" x2="84.6" y2="28.3"/>
    <line class="st2" x1="73" y1="28.3" x2="72.8" y2="28.3"/>
    <line class="st2" x1="82.4" y1="46.5" x2="82.4" y2="46.5"/>
    <line class="st2" x1="82.4" y1="46.5" x2="82.4" y2="46.5"/>
    <line class="st2" x1="84.6" y1="28.3" x2="84.6" y2="28.3"/>
    <line class="st2" x1="84.6" y1="28.3" x2="78.3" y2="28.3"/>
    <path class="st2" d="M73.6,54.6h0"/>
    <path class="st2" d="M73.6,54.6h0"/>
    <path class="st2" d="M61.3,54.6h-11.3"/>
    <path class="st2" d="M61.3,54.6h.4"/>
    <path class="st2" d="M61.8,10.1h0"/>
    <path class="st2" d="M50,10.1h0"/>
    <path class="st2" d="M50.1,10.1h11.7"/>
    <line class="st2" x1="80.4" y1="14.1" x2="80.4" y2="14.1"/>
    <line class="st2" x1="80.4" y1="14.1" x2="80.4" y2="14.1"/>
    <line class="st2" x1="80.4" y1="14.1" x2="80.4" y2="14.1"/>
    <line class="st2" x1="80.4" y1="14.1" x2="80.4" y2="14.1"/>
    <line class="st2" x1="80.4" y1="14.1" x2="68.6" y2="14.1"/>
    <path class="st2" d="M73.7,10.1h11.8"/>
    <path class="st2" d="M73.6,10.1h0"/>
    <path class="st2" d="M85.4,54.6h-11.8"/>
    <path class="st2" d="M26.5,10.1h0"/>
    <path class="st2" d="M35.8,45.2c4.2-13.1,1.1-35.3-9.3-35.2"/>
    <path class="st2" d="M35.8,45.2c-1.8,5.5-4.9,9.5-9.3,9.4"/>
    <path class="st2" d="M85.4,10.1c14.8-.2,14.8,44.8,0,44.6"/>
    <path class="st2" d="M80.4,14.1h0"/>
    <path class="st2" d="M84.6,28.3c1,12.4-2.6,26.4-10.9,26.3"/>
    <path class="st2" d="M84.6,28.3h0"/>
    <path class="st2" d="M84.6,28.3c-.5-5.6-1.8-10.8-4.2-14.2"/>
    <path class="st2" d="M73.7,10.1h0"/>
    <path class="st2" d="M73.7,10.1h0"/>
    <path class="st2" d="M73.7,10.1c2.8,0,5,1.5,6.8,4.1"/>
    <path class="st2" d="M70.7,46.5c4.9-12.9,2-36.6-8.8-36.5"/>
    <path class="st2" d="M70.7,46.5c-1.8,4.8-4.8,8.2-8.8,8.1"/>
    <path class="st2" d="M61.9,10.1h0"/>
    <path class="st2" d="M50.1,54.6c14.8.2,14.8-44.8,0-44.6"/>
    <path class="st2" d="M50.1,10.1h0"/>
    <path class="st2" d="M47.1,46.5h0"/>
    <path class="st2" d="M49.3,28.3h0"/>
    <line class="st2" x1="49.3" y1="28.3" x2="49.3" y2="28.3"/>
    <path class="st2" d="M38.3,10.1h0"/>
    <path class="st2" d="M38.3,54.6c4,0,7-3.3,8.8-8.1"/>
    <path class="st2" d="M49.3,28.3c-.8-9.7-4.4-18.3-10.9-18.2"/>
    <path class="st2" d="M49.3,28.3c.5,6.3-.2,13.1-2.1,18.2"/>
  </g>
</svg>