<?xml version="1.0" encoding="UTF-8"?>
<svg id="Livello_1" xmlns="http://www.w3.org/2000/svg" version="1.1" viewBox="0 0 100 64.7">
  <!-- Generator: Adobe Illustrator 29.7.1, SVG Export Plug-In . SVG Version: 2.1.1 Build 8)  -->
  <defs>
    <style>
      .st0 {
        fill: #2c2c2c;
      }

      .st1 {
        fill: #f4f4f4;
      }

      .st1, .st2 {
        stroke: #f4f4f4;
        stroke-miterlimit: 10;
        stroke-width: .8px;
      }

      .st2 {
        fill: none;
      }
    </style>
  </defs>
  <path class="st0" d="M85.4,10.1H14.6c-6.3,0-11.4,10-11.4,22.3s5.1,22.3,11.4,22.3h70.8c6.3,0,11.4-10,11.4-22.3s-5.1-22.3-11.4-22.3Z"/>
  <ellipse class="st1" cx="14.6" cy="32.4" rx="11.4" ry="22.3"/>
  <ellipse class="st0" cx="14.6" cy="32.4" rx="3.4" ry="6.7"/>
  <g>
    <line class="st2" x1="34.9" y1="12.1" x2="39.2" y2="12.1"/>
    <line class="st2" x1="39.2" y1="12.1" x2="39.4" y2="12.1"/>
    <line class="st2" x1="41.2" y1="14.1" x2="41" y2="14.1"/>
    <line class="st2" x1="36.7" y1="14.1" x2="41" y2="14.1"/>
    <line class="st2" x1="43.4" y1="18.2" x2="43.2" y2="18.2"/>
    <line class="st2" x1="39" y1="18.2" x2="43.2" y2="18.2"/>
    <line class="st2" x1="44.8" y1="22.2" x2="44.6" y2="22.2"/>
    <line class="st2" x1="40.3" y1="22.2" x2="44.6" y2="22.2"/>
    <line class="st2" x1="45.8" y1="28.3" x2="45.6" y2="28.3"/>
    <line class="st2" x1="41.4" y1="28.3" x2="45.6" y2="28.3"/>
    <line class="st2" x1="45.6" y1="36.4" x2="41.4" y2="36.4"/>
    <line class="st2" x1="45.8" y1="36.4" x2="45.6" y2="36.4"/>
    <line class="st2" x1="44.6" y1="42.5" x2="40.3" y2="42.5"/>
    <line class="st2" x1="44.8" y1="42.5" x2="44.6" y2="42.5"/>
    <line class="st2" x1="43.2" y1="46.5" x2="39" y2="46.5"/>
    <line class="st2" x1="43.4" y1="46.5" x2="43.2" y2="46.5"/>
    <line class="st2" x1="41.2" y1="50.6" x2="41" y2="50.6"/>
    <line class="st2" x1="36.7" y1="50.6" x2="41" y2="50.6"/>
    <line class="st2" x1="39.2" y1="52.6" x2="34.9" y2="52.6"/>
    <line class="st2" x1="39.2" y1="52.6" x2="39.4" y2="52.6"/>
    <line class="st2" x1="70.4" y1="12.1" x2="74.6" y2="12.1"/>
    <line class="st2" x1="74.6" y1="12.1" x2="74.6" y2="12.1"/>
    <path class="st2" d="M74.6,12.1"/>
    <path class="st2" d="M75,12.1"/>
    <path class="st2" d="M76.8,14.1"/>
    <path class="st2" d="M76.4,14.1"/>
    <line class="st2" x1="76.4" y1="14.1" x2="72.2" y2="14.1"/>
    <line class="st2" x1="76.4" y1="14.1" x2="76.4" y2="14.1"/>
    <line class="st2" x1="78.7" y1="18.2" x2="78.7" y2="18.2"/>
    <path class="st2" d="M79,18.2"/>
    <path class="st2" d="M78.7,18.2"/>
    <line class="st2" x1="78.7" y1="18.2" x2="74.4" y2="18.2"/>
    <line class="st2" x1="80" y1="22.2" x2="80" y2="22.2"/>
    <path class="st2" d="M80.3,22.2"/>
    <path class="st2" d="M80,22.2"/>
    <line class="st2" x1="80" y1="22.2" x2="75.8" y2="22.2"/>
    <line class="st2" x1="81.1" y1="28.3" x2="81.1" y2="28.3"/>
    <line class="st2" x1="76.9" y1="28.3" x2="81.1" y2="28.3"/>
    <path class="st2" d="M81.1,28.3"/>
    <path class="st2" d="M81.4,28.3"/>
    <line class="st2" x1="81.1" y1="36.4" x2="81.1" y2="36.4"/>
    <line class="st2" x1="81.1" y1="36.4" x2="76.9" y2="36.4"/>
    <path class="st2" d="M81.1,36.4"/>
    <path class="st2" d="M81.4,36.4"/>
    <line class="st2" x1="80" y1="42.5" x2="80" y2="42.5"/>
    <line class="st2" x1="80" y1="42.5" x2="75.8" y2="42.5"/>
    <path class="st2" d="M80,42.5"/>
    <path class="st2" d="M80.3,42.5"/>
    <line class="st2" x1="78.7" y1="46.5" x2="78.7" y2="46.5"/>
    <path class="st2" d="M78.7,46.5"/>
    <path class="st2" d="M79,46.5"/>
    <line class="st2" x1="78.7" y1="46.5" x2="74.4" y2="46.5"/>
    <path class="st2" d="M76.7,50.6"/>
    <path class="st2" d="M76.4,50.6"/>
    <line class="st2" x1="72.2" y1="50.6" x2="76.4" y2="50.6"/>
    <line class="st2" x1="76.4" y1="50.6" x2="76.4" y2="50.6"/>
    <path class="st2" d="M74.9,52.6"/>
    <path class="st2" d="M74.6,52.6"/>
    <line class="st2" x1="74.6" y1="52.6" x2="70.4" y2="52.6"/>
    <line class="st2" x1="74.6" y1="52.6" x2="74.6" y2="52.6"/>
    <path class="st2" d="M30.2,10.1h-15.6c6.3,0,11.4,10,11.4,22.3s-5.1,22.3-11.4,22.3h15.6"/>
    <path class="st2" d="M41.5,32.4"/>
    <path class="st2" d="M50.1,10.1h-15.4c6.3,0,11.4,10,11.4,22.3s-5.1,22.3-11.4,22.3h15.4"/>
    <path class="st2" d="M50.2,10.1c6.3,0,11.4,10,11.4,22.3s-5.1,22.3-11.4,22.3"/>
    <path class="st2" d="M65.7,10.1h-15.5"/>
    <path class="st2" d="M77,32.4"/>
    <path class="st2" d="M50.2,54.6h15.4"/>
    <path class="st2" d="M50.1,54.6"/>
    <path class="st2" d="M61.4,32.4"/>
    <path class="st2" d="M50.1,10.1"/>
    <path class="st2" d="M50.1,10.1h0"/>
    <path class="st2" d="M50.1,54.6h0"/>
    <path class="st2" d="M80,22.2c.5,1.9.9,3.9,1.1,6.1"/>
    <path class="st2" d="M74.6,52.6c-1.4,1.3-3.1,2-4.7,2"/>
    <path class="st2" d="M69.9,10.1h15.5c6.3,0,11.4,10,11.4,22.3s-5.1,22.3-11.4,22.3h-15.5"/>
    <path class="st2" d="M76.4,14.1c-.6-.8-1.2-1.5-1.8-2"/>
    <path class="st2" d="M81.1,28.3c0,1.3.2,2.7.2,4.1s0,2.7-.2,4.1"/>
    <path class="st2" d="M69.9,10.1c1.7,0,3.3.7,4.7,2"/>
    <path class="st2" d="M81.1,36.4c-.2,2.1-.6,4.2-1.1,6.1"/>
    <path class="st2" d="M78.7,18.2c.5,1.2,1,2.6,1.4,4.1"/>
    <path class="st2" d="M76.4,14.1c.8,1.2,1.6,2.5,2.2,4.1"/>
    <path class="st2" d="M76.4,50.6c.8-1.2,1.6-2.5,2.2-4.1"/>
    <path class="st2" d="M78.7,46.5c.5-1.2,1-2.6,1.4-4.1"/>
    <path class="st2" d="M74.6,52.6c.6-.6,1.2-1.2,1.8-2"/>
    <path class="st2" d="M39.2,12.1"/>
    <path class="st2" d="M41,14.1"/>
    <path class="st2" d="M44.6,42.5"/>
    <path class="st2" d="M43.2,46.5"/>
    <path class="st2" d="M43.2,46.5"/>
    <path class="st2" d="M41,50.6"/>
    <path class="st2" d="M41,50.6"/>
    <path class="st2" d="M39.2,52.6"/>
    <path class="st2" d="M39.2,52.6"/>
    <path class="st2" d="M34.6,10.1h-4.4c6.3,0,11.4,10,11.4,22.3s-5.1,22.3-11.4,22.3h4.4"/>
    <path class="st2" d="M39.2,12.1"/>
    <path class="st2" d="M45.6,36.4"/>
    <path class="st2" d="M44.6,42.5"/>
    <path class="st2" d="M41,14.1"/>
    <path class="st2" d="M43.2,18.2"/>
    <path class="st2" d="M44.6,22.2"/>
    <path class="st2" d="M45.6,28.3"/>
    <path class="st2" d="M45.6,28.3"/>
    <path class="st2" d="M45.8,32.4"/>
    <path class="st2" d="M45.6,36.4"/>
    <path class="st2" d="M43.2,18.2"/>
    <path class="st2" d="M44.6,22.2"/>
    <path class="st2" d="M69.9,10.1h-4.2c6.3,0,11.4,10,11.4,22.3s-5.1,22.3-11.4,22.3h4.2"/>
    <path class="st2" d="M74.6,52.6c-1.4,1.3-3.1,2-4.7,2"/>
    <path class="st2" d="M74.6,12.1c-1.4-1.3-3.1-2-4.7-2"/>
    <path class="st2" d="M81.1,28.3c0,1.3.2,2.7.2,4.1s0,2.7-.2,4.1"/>
    <path class="st2" d="M80,42.5c.5-1.9.9-3.9,1.1-6.1"/>
    <path class="st2" d="M76.4,50.6c-.6.8-1.2,1.5-1.8,2"/>
    <path class="st2" d="M76.4,14.1c.8,1.2,1.6,2.5,2.2,4.1"/>
    <path class="st2" d="M78.7,46.5c.5-1.2,1-2.6,1.4-4.1"/>
    <path class="st2" d="M76.4,50.6c.8-1.2,1.6-2.5,2.2-4.1"/>
    <path class="st2" d="M78.7,18.2c.5,1.2,1,2.6,1.4,4.1"/>
    <path class="st2" d="M80,22.2c.5,1.9.9,3.9,1.1,6.1"/>
    <path class="st2" d="M76.4,14.1c-.6-.8-1.2-1.5-1.8-2"/>
    <path class="st2" d="M69.9,10.1h0"/>
    <path class="st2" d="M69.9,54.6h0"/>
  </g>
</svg>