<?xml version="1.0" encoding="UTF-8"?>
<svg id="Livello_1" xmlns="http://www.w3.org/2000/svg" version="1.1" viewBox="0 0 100 64.7">
  <!-- Generator: Adobe Illustrator 29.7.1, SVG Export Plug-In . SVG Version: 2.1.1 Build 8)  -->
  <defs>
    <style>
      .st0 {
        fill: #2c2c2c;
      }

      .st1 {
        fill: #f4f4f4;
      }

      .st1, .st2 {
        stroke: #f4f4f4;
        stroke-miterlimit: 10;
        stroke-width: .8px;
      }

      .st2 {
        fill: none;
      }
    </style>
  </defs>
  <path class="st0" d="M85,10H14.2c-6.3,0-11.4,10-11.4,22.3s5.1,22.3,11.4,22.3h70.8c6.3,0,11.4-10,11.4-22.3s-5.1-22.3-11.4-22.3Z"/>
  <ellipse class="st1" cx="14.2" cy="32.3" rx="11.4" ry="22.3"/>
  <ellipse class="st0" cx="14.4" cy="32.6" rx="3.5" ry="6.8"/>
  <g>
    <path class="st2" d="M25.1,14.1"/>
    <polyline class="st2" points="34.5 12 36 12 37.7 14.1 36.3 14.1"/>
    <path class="st2" d="M38.6,18.1"/>
    <path class="st2" d="M38.6,18.1"/>
    <path class="st2" d="M40,22.2"/>
    <path class="st2" d="M39.9,22.2"/>
    <polyline class="st2" points="39.9 22.2 41.7 22.2 40.2 18.1 38.6 18.1"/>
    <polyline class="st2" points="41 36.4 42.8 36.4 42.8 28.2 41 28.2"/>
    <path class="st2" d="M41,28.2"/>
    <path class="st2" d="M41,28.2"/>
    <polyline class="st2" points="39.9 42.4 41.7 42.4 40.5 46.5 38.6 46.5"/>
    <path class="st2" d="M36.4,50.5"/>
    <path class="st2" d="M36.3,50.5"/>
    <polyline class="st2" points="34.5 52.6 36.3 52.6 38.1 50.5 36.3 50.5"/>
    <path class="st2" d="M71.8,14.1"/>
    <polyline class="st2" points="70.1 12 71.5 12 73.1 14.1 71.8 14.1"/>
    <path class="st2" d="M74.1,18.1"/>
    <polyline class="st2" points="75.4 22.2 77.2 22.2 75.7 18.1 74.1 18.1"/>
    <path class="st2" d="M75.4,22.2"/>
    <path class="st2" d="M76.5,28.2"/>
    <polyline class="st2" points="76.5 36.4 78.3 36.4 78.3 28.2 76.5 28.2"/>
    <polyline class="st2" points="75.4 42.4 77.2 42.4 76 46.5 74.1 46.5"/>
    <polyline class="st2" points="70 52.6 71.8 52.6 73.6 50.5 71.8 50.5"/>
    <path class="st2" d="M71.8,50.5"/>
    <path class="st2" d="M14.2,10c6.3,0,11.4,10,11.4,22.3s-5.1,22.3-11.4,22.3h15.5c6.3,0,11.4-10,11.4-22.3s-5.1-22.3-11.4-22.3c0,0-15.5,0-15.5,0Z"/>
    <path class="st2" d="M54.1,11.8c.3.3.7.6,1,.9"/>
    <path class="st2" d="M51.9,54.1c.4,0,.7-.3,1.1-.5"/>
    <path class="st2" d="M58.4,18.1c.3.8.7,1.7,1,2.6"/>
    <path class="st2" d="M59.4,43.9c1-3.4,1.6-7.3,1.6-11.6s-.6-8.2-1.6-11.6"/>
    <path class="st2" d="M58.4,46.5c.3-.8.7-1.7,1-2.6"/>
    <path class="st2" d="M51.9,10.5c.4.1.7.3,1.1.5"/>
    <path class="st2" d="M51.9,10.5c-.7-.3-1.5-.5-2.3-.5h-15.5c6.3,0,11.4,10,11.4,22.3s-5.1,22.3-11.4,22.3h15.5c.8,0,1.6-.2,2.3-.5"/>
    <path class="st2" d="M55.1,51.9c-.3.3-.7.7-1,.9"/>
    <path class="st2" d="M51.9,10.5c.4.1.7.3,1.1.5"/>
    <path class="st2" d="M59.4,43.9c1-3.4,1.6-7.3,1.6-11.6s-.6-8.2-1.6-11.6"/>
    <path class="st2" d="M55.1,51.9c-.3.3-.7.7-1,.9"/>
    <path class="st2" d="M65.3,10h-15.7c.8,0,1.6.2,2.3.5"/>
    <path class="st2" d="M76.6,32.3"/>
    <path class="st2" d="M51.9,54.1c-.7.3-1.5.5-2.3.5h15.7"/>
    <path class="st2" d="M54.1,11.8c.3.3.7.6,1,.9"/>
    <path class="st2" d="M51.9,54.1c.4,0,.7-.3,1.1-.5"/>
    <path class="st2" d="M58.4,18.1c.3.8.7,1.7,1,2.6"/>
    <path class="st2" d="M59.4,43.9c-.3.9-.6,1.8-1,2.6"/>
    <path class="st2" d="M53,53.6c.4-.2.7-.5,1-.7"/>
    <path class="st2" d="M58.4,18.1c-.9-2.2-2.1-4-3.4-5.4"/>
    <path class="st2" d="M55.1,51.9c1.3-1.4,2.4-3.2,3.4-5.4"/>
    <path class="st2" d="M54.1,11.8c-.3-.3-.7-.5-1-.7"/>
    <path class="st2" d="M69.5,54.6"/>
    <path class="st2" d="M69.5,54.6h15.5c6.3,0,11.4-10,11.4-22.3s-5.1-22.3-11.4-22.3h-15.5"/>
    <path class="st2" d="M34.1,10h-4.3"/>
    <path class="st2" d="M45.5,32.3"/>
    <path class="st2" d="M29.8,54.6h4.3"/>
    <path class="st2" d="M41,28.2"/>
    <path class="st2" d="M74.1,18.1c.5,1.2,1,2.6,1.4,4.1"/>
    <path class="st2" d="M71.8,50.5c2.9-4,4.8-10.7,4.8-18.2s0-2.7-.2-4.1"/>
    <path class="st2" d="M76.5,28.2c-.2-2.2-.6-4.2-1.1-6.1"/>
    <path class="st2" d="M71.8,14.1c-1.9-2.6-4.1-4.1-6.5-4.1h4.2"/>
    <path class="st2" d="M74.1,18.1c-.6-1.5-1.4-2.9-2.2-4.1"/>
    <path class="st2" d="M69.5,10c6.3,0,11.4,10,11.4,22.3s-5.1,22.3-11.4,22.3"/>
    <path class="st2" d="M71.8,50.5c-1.9,2.6-4.1,4.1-6.5,4.1h4.2"/>
    <path class="st2" d="M69.5,10"/>
    <path class="st2" d="M69.5,54.6h0"/>
  </g>
</svg>