<?xml version="1.0" encoding="UTF-8"?>
<svg id="Livello_1" xmlns="http://www.w3.org/2000/svg" version="1.1" viewBox="0 0 100 64.7">
  <!-- Generator: Adobe Illustrator 29.7.1, SVG Export Plug-In . SVG Version: 2.1.1 Build 8)  -->
  <defs>
    <style>
      .st0, .st1 {
        fill: #2c2c2c;
      }

      .st1, .st2 {
        stroke: #f4f4f4;
        stroke-miterlimit: 10;
        stroke-width: .8px;
      }

      .st3 {
        fill: #f4f4f4;
      }

      .st2 {
        fill: none;
      }
    </style>
  </defs>
  <path class="st1" d="M85.4,10.1H14.6c-6.3,0-11.4,10-11.4,22.3s5.1,22.3,11.4,22.3h70.8c6.3,0,11.4-10,11.4-22.3s-5.1-22.3-11.4-22.3Z"/>
  <ellipse class="st3" cx="14.6" cy="32.3" rx="11.4" ry="22.3"/>
  <ellipse class="st0" cx="14.6" cy="32.3" rx="3.4" ry="6.7"/>
  <g>
    <line class="st2" x1="37" y1="12.1" x2="41.1" y2="12.1"/>
    <line class="st2" x1="36.9" y1="12.1" x2="37" y2="12.1"/>
    <path class="st2" d="M41.1,12.1"/>
    <line class="st2" x1="36.9" y1="12.1" x2="32.7" y2="12.1"/>
    <path class="st2" d="M41.1,12.1"/>
    <path class="st2" d="M41.1,12.1"/>
    <path class="st2" d="M42.9,14.1"/>
    <path class="st2" d="M43.1,14.1"/>
    <line class="st2" x1="38.7" y1="14.1" x2="38.8" y2="14.1"/>
    <line class="st2" x1="34.5" y1="14.1" x2="38.7" y2="14.1"/>
    <line class="st2" x1="42.9" y1="14.1" x2="38.8" y2="14.1"/>
    <path class="st2" d="M42.9,14.1"/>
    <path class="st2" d="M42.9,14.1"/>
    <line class="st2" x1="36.8" y1="18.2" x2="41" y2="18.2"/>
    <path class="st2" d="M45.2,18.2"/>
    <path class="st2" d="M45.2,18.2"/>
    <line class="st2" x1="41" y1="18.2" x2="41" y2="18.2"/>
    <line class="st2" x1="45.2" y1="18.2" x2="41" y2="18.2"/>
    <path class="st2" d="M45.2,18.2"/>
    <path class="st2" d="M45.3,18.2"/>
    <line class="st2" x1="46.5" y1="22.2" x2="42.4" y2="22.2"/>
    <path class="st2" d="M46.5,22.2"/>
    <path class="st2" d="M46.5,22.2"/>
    <path class="st2" d="M46.7,22.2"/>
    <path class="st2" d="M46.5,22.2"/>
    <line class="st2" x1="38.1" y1="22.2" x2="42.3" y2="22.2"/>
    <line class="st2" x1="42.3" y1="22.2" x2="42.4" y2="22.2"/>
    <path class="st2" d="M47.6,28.3"/>
    <path class="st2" d="M47.8,28.3"/>
    <line class="st2" x1="43.4" y1="28.3" x2="43.4" y2="28.3"/>
    <path class="st2" d="M47.6,28.3"/>
    <path class="st2" d="M47.6,28.3"/>
    <line class="st2" x1="47.6" y1="28.3" x2="43.4" y2="28.3"/>
    <line class="st2" x1="39.2" y1="28.3" x2="43.4" y2="28.3"/>
    <path class="st2" d="M47.6,36.4"/>
    <path class="st2" d="M47.6,36.4"/>
    <path class="st2" d="M47.8,36.4"/>
    <path class="st2" d="M47.6,36.4"/>
    <line class="st2" x1="43.4" y1="36.4" x2="43.4" y2="36.4"/>
    <line class="st2" x1="43.4" y1="36.4" x2="39.2" y2="36.4"/>
    <line class="st2" x1="47.6" y1="36.4" x2="43.4" y2="36.4"/>
    <line class="st2" x1="42.3" y1="42.5" x2="42.4" y2="42.5"/>
    <path class="st2" d="M46.7,42.5"/>
    <path class="st2" d="M46.5,42.5"/>
    <path class="st2" d="M46.5,42.5"/>
    <path class="st2" d="M46.5,42.5"/>
    <line class="st2" x1="46.5" y1="42.5" x2="42.4" y2="42.5"/>
    <line class="st2" x1="38.1" y1="42.5" x2="42.3" y2="42.5"/>
    <line class="st2" x1="41" y1="46.5" x2="41" y2="46.5"/>
    <line class="st2" x1="41" y1="46.5" x2="36.8" y2="46.5"/>
    <path class="st2" d="M45.2,46.5"/>
    <path class="st2" d="M45.2,46.5"/>
    <line class="st2" x1="41" y1="46.5" x2="45.2" y2="46.5"/>
    <path class="st2" d="M45.3,46.5"/>
    <path class="st2" d="M45.2,46.5"/>
    <line class="st2" x1="34.5" y1="50.6" x2="38.7" y2="50.6"/>
    <line class="st2" x1="38.8" y1="50.6" x2="42.9" y2="50.6"/>
    <path class="st2" d="M42.9,50.6"/>
    <path class="st2" d="M42.9,50.6"/>
    <line class="st2" x1="38.7" y1="50.6" x2="38.8" y2="50.6"/>
    <path class="st2" d="M42.9,50.6"/>
    <path class="st2" d="M43.1,50.6"/>
    <line class="st2" x1="36.9" y1="52.6" x2="37" y2="52.6"/>
    <path class="st2" d="M41.1,52.6"/>
    <path class="st2" d="M41.1,52.6"/>
    <line class="st2" x1="37" y1="52.6" x2="41.1" y2="52.6"/>
    <line class="st2" x1="36.9" y1="52.6" x2="32.7" y2="52.6"/>
    <path class="st2" d="M41.1,52.6"/>
    <path class="st2" d="M41.3,52.6"/>
    <line class="st2" x1="72.3" y1="12.1" x2="72.4" y2="12.1"/>
    <line class="st2" x1="68.1" y1="12.1" x2="72.3" y2="12.1"/>
    <line class="st2" x1="76.6" y1="12.1" x2="72.4" y2="12.1"/>
    <line class="st2" x1="69.9" y1="14.1" x2="74.1" y2="14.1"/>
    <line class="st2" x1="74.2" y1="14.1" x2="74.1" y2="14.1"/>
    <line class="st2" x1="74.2" y1="14.1" x2="78.4" y2="14.1"/>
    <line class="st2" x1="72.2" y1="18.2" x2="76.4" y2="18.2"/>
    <line class="st2" x1="80.7" y1="18.2" x2="76.4" y2="18.2"/>
    <line class="st2" x1="76.4" y1="18.2" x2="76.4" y2="18.2"/>
    <line class="st2" x1="73.5" y1="22.2" x2="77.7" y2="22.2"/>
    <line class="st2" x1="82" y1="22.2" x2="77.8" y2="22.2"/>
    <line class="st2" x1="77.8" y1="22.2" x2="77.7" y2="22.2"/>
    <line class="st2" x1="83.1" y1="28.3" x2="78.9" y2="28.3"/>
    <line class="st2" x1="74.6" y1="28.3" x2="78.8" y2="28.3"/>
    <line class="st2" x1="78.9" y1="28.3" x2="78.8" y2="28.3"/>
    <line class="st2" x1="78.9" y1="36.4" x2="78.8" y2="36.4"/>
    <line class="st2" x1="78.8" y1="36.4" x2="74.6" y2="36.4"/>
    <line class="st2" x1="83.1" y1="36.4" x2="78.9" y2="36.4"/>
    <line class="st2" x1="82" y1="42.5" x2="77.8" y2="42.5"/>
    <line class="st2" x1="77.8" y1="42.5" x2="77.7" y2="42.5"/>
    <line class="st2" x1="73.5" y1="42.5" x2="77.7" y2="42.5"/>
    <line class="st2" x1="76.4" y1="46.5" x2="72.2" y2="46.5"/>
    <line class="st2" x1="76.4" y1="46.5" x2="80.7" y2="46.5"/>
    <line class="st2" x1="76.4" y1="46.5" x2="76.4" y2="46.5"/>
    <line class="st2" x1="74.2" y1="50.6" x2="74.1" y2="50.6"/>
    <line class="st2" x1="69.9" y1="50.6" x2="74.1" y2="50.6"/>
    <line class="st2" x1="78.4" y1="50.6" x2="74.2" y2="50.6"/>
    <line class="st2" x1="72.3" y1="52.6" x2="72.4" y2="52.6"/>
    <line class="st2" x1="72.3" y1="52.6" x2="68.1" y2="52.6"/>
    <line class="st2" x1="72.4" y1="52.6" x2="76.6" y2="52.6"/>
    <path class="st2" d="M28.1,10.1h4.1"/>
    <path class="st2" d="M38.8,50.6c-.6.8-1.2,1.5-1.8,2"/>
    <path class="st2" d="M37,12.1c-1.4-1.3-3.1-2-4.7-2"/>
    <path class="st2" d="M42.4,22.2c.5,1.9.9,3.9,1.1,6.1"/>
    <path class="st2" d="M38.8,50.6c.8-1.2,1.6-2.5,2.2-4.1"/>
    <path class="st2" d="M42.4,42.5c-.4,1.4-.8,2.8-1.4,4.1"/>
    <path class="st2" d="M38.8,14.1c.8,1.2,1.6,2.5,2.2,4.1"/>
    <path class="st2" d="M37,52.6c-1.4,1.3-3.1,2-4.7,2"/>
    <path class="st2" d="M43.4,36.4c-.2,2.1-.6,4.2-1.1,6.1"/>
    <path class="st2" d="M41,18.2c.5,1.2,1,2.6,1.4,4.1"/>
    <path class="st2" d="M43.4,28.3c0,1.3.2,2.7.2,4.1s0,2.7-.2,4.1"/>
    <path class="st2" d="M28.1,54.6h4.1"/>
    <path class="st2" d="M28,10.1c6.3,0,11.4,10,11.4,22.3s-5.1,22.3-11.4,22.3"/>
    <path class="st2" d="M37,12.1c.6.6,1.2,1.2,1.8,2"/>
    <path class="st2" d="M47.6,28.3"/>
    <path class="st2" d="M47.8,32.3"/>
    <path class="st2" d="M47.6,36.4"/>
    <path class="st2" d="M42.3,22.2"/>
    <path class="st2" d="M43.4,28.3"/>
    <path class="st2" d="M42.3,22.2"/>
    <path class="st2" d="M41,18.2"/>
    <path class="st2" d="M38.7,14.1"/>
    <path class="st2" d="M41,18.2"/>
    <path class="st2" d="M41,46.5"/>
    <path class="st2" d="M38.7,50.6"/>
    <path class="st2" d="M47.6,28.3"/>
    <path class="st2" d="M46.5,22.2"/>
    <path class="st2" d="M43.4,36.4"/>
    <path class="st2" d="M42.3,42.5"/>
    <path class="st2" d="M45.2,46.5"/>
    <path class="st2" d="M42.9,50.6"/>
    <path class="st2" d="M42.9,50.6"/>
    <path class="st2" d="M41.1,52.6"/>
    <path class="st2" d="M32.2,10.1"/>
    <path class="st2" d="M36.9,12.1"/>
    <path class="st2" d="M38.7,14.1"/>
    <path class="st2" d="M36.9,12.1"/>
    <path class="st2" d="M32.2,54.6"/>
    <path class="st2" d="M36.9,52.6"/>
    <path class="st2" d="M45.2,46.5"/>
    <path class="st2" d="M36.4,10.1"/>
    <path class="st2" d="M41.1,12.1"/>
    <path class="st2" d="M42.9,14.1"/>
    <path class="st2" d="M41.1,12.1"/>
    <path class="st2" d="M36.4,54.6h0"/>
    <path class="st2" d="M41.1,52.6"/>
    <path class="st2" d="M45.2,18.2"/>
    <path class="st2" d="M42.9,14.1"/>
    <path class="st2" d="M32.2,54.6h4.2"/>
    <path class="st2" d="M41,46.5"/>
    <path class="st2" d="M42.3,42.5"/>
    <path class="st2" d="M46.5,22.2"/>
    <path class="st2" d="M38.7,50.6"/>
    <path class="st2" d="M36.9,52.6"/>
    <path class="st2" d="M36.4,10.1h-4.2"/>
    <path class="st2" d="M32.2,54.6h0"/>
    <path class="st2" d="M32.2,10.1h0"/>
    <path class="st2" d="M72.4,12.1"/>
    <path class="st2" d="M67.7,54.6h4.2c6.3,0,11.4-10,11.4-22.3s-5.1-22.3-11.4-22.3h-4.2"/>
    <path class="st2" d="M72.4,52.6"/>
    <path class="st2" d="M72.4,12.1"/>
    <path class="st2" d="M74.2,14.1"/>
    <path class="st2" d="M76.4,46.5"/>
    <path class="st2" d="M77.8,42.5"/>
    <path class="st2" d="M77.8,22.2"/>
    <path class="st2" d="M78.9,28.3"/>
    <path class="st2" d="M76.4,18.2"/>
    <path class="st2" d="M74.2,14.1"/>
    <path class="st2" d="M74.2,50.6"/>
    <path class="st2" d="M72.4,52.6"/>
    <path class="st2" d="M77.8,22.2"/>
    <path class="st2" d="M76.4,18.2"/>
    <path class="st2" d="M76.4,46.5"/>
    <path class="st2" d="M74.2,50.6"/>
    <path class="st2" d="M78.9,36.4"/>
    <path class="st2" d="M77.8,42.5"/>
    <path class="st2" d="M76.4,18.2c-.6-1.5-1.4-2.9-2.2-4.1"/>
    <path class="st2" d="M74.1,50.6c.8-1.2,1.6-2.5,2.2-4.1"/>
    <path class="st2" d="M72.3,52.6c.6-.6,1.2-1.2,1.8-2"/>
    <path class="st2" d="M72.3,12.1c-1.4-1.3-3.1-2-4.7-2h-4.2c6.3,0,11.4,10,11.4,22.3s-5.1,22.3-11.4,22.3h4.2c1.7,0,3.3-.7,4.7-2"/>
    <path class="st2" d="M77.7,42.5c-.4,1.4-.8,2.8-1.4,4.1"/>
    <path class="st2" d="M74.1,14.1c-.6-.8-1.2-1.5-1.8-2"/>
    <path class="st2" d="M78.8,28.3c-.2-2.2-.6-4.2-1.1-6.1"/>
    <path class="st2" d="M78.8,28.3c0,1.3.2,2.7.2,4.1s0,2.7-.2,4.1"/>
    <path class="st2" d="M77.7,42.5c.5-1.9.9-3.9,1.1-6.1"/>
    <path class="st2" d="M76.4,18.2c.5,1.2,1,2.6,1.4,4.1"/>
    <path class="st2" d="M28,10.1h-13.4c6.3,0,11.4,10,11.4,22.3s-5.1,22.3-11.4,22.3h13.4"/>
    <path class="st2" d="M28.1,54.6"/>
    <path class="st2" d="M39.4,32.3"/>
    <path class="st2" d="M28.1,10.1"/>
    <path class="st2" d="M28,54.6h0"/>
    <path class="st2" d="M28,10.1h0"/>
    <path class="st2" d="M46.5,22.2c-.4-1.4-.8-2.8-1.4-4.1"/>
    <path class="st2" d="M45.2,46.5c-.6,1.5-1.4,2.9-2.2,4.1"/>
    <path class="st2" d="M49.8,54.6h-13.4"/>
    <path class="st2" d="M47.6,28.3c-.2-2.2-.6-4.2-1.1-6.1"/>
    <path class="st2" d="M46.5,42.5c-.4,1.4-.8,2.8-1.4,4.1"/>
    <path class="st2" d="M46.5,42.5c.5-1.9.9-3.9,1.1-6.1"/>
    <path class="st2" d="M47.6,36.4c0-1.3.2-2.7.2-4.1s0-2.7-.2-4.1"/>
    <path class="st2" d="M41.1,52.6c.6-.6,1.2-1.2,1.8-2"/>
    <path class="st2" d="M36.4,54.6c1.7,0,3.3-.7,4.7-2"/>
    <path class="st2" d="M42.9,14.1c.8,1.2,1.6,2.5,2.2,4.1"/>
    <path class="st2" d="M49.8,10.1c6.3,0,11.4,10,11.4,22.3s-5.1,22.3-11.4,22.3"/>
    <path class="st2" d="M41.1,12.1c.6.6,1.2,1.2,1.8,2"/>
    <path class="st2" d="M36.4,10.1h13.4"/>
    <path class="st2" d="M41.1,12.1c-1.4-1.3-3.1-2-4.7-2"/>
    <path class="st2" d="M36.4,10.1h0"/>
    <path class="st2" d="M49.8,54.6"/>
    <path class="st2" d="M61.2,32.3"/>
    <path class="st2" d="M49.8,10.1"/>
    <path class="st2" d="M63.3,10.1h-13.4"/>
    <path class="st2" d="M74.6,32.3"/>
    <path class="st2" d="M49.8,54.6h13.4"/>
    <path class="st2" d="M49.8,10.1h0"/>
    <path class="st2" d="M49.8,54.6"/>
    <path class="st2" d="M49.8,54.6"/>
  </g>
</svg>