<?xml version="1.0" encoding="UTF-8"?>
<svg id="Livello_1" xmlns="http://www.w3.org/2000/svg" version="1.1" viewBox="0 0 100 64.7">
  <!-- Generator: Adobe Illustrator 29.7.1, SVG Export Plug-In . SVG Version: 2.1.1 Build 8)  -->
  <defs>
    <style>
      .st0 {
        fill: #2c2c2c;
      }

      .st1 {
        fill: #f4f4f4;
      }

      .st1, .st2 {
        stroke: #f4f4f4;
        stroke-miterlimit: 10;
        stroke-width: .8px;
      }

      .st2 {
        fill: none;
      }
    </style>
  </defs>
  <path class="st0" d="M85.4,10.1H14.6c-6.3,0-11.4,10-11.4,22.3s5.1,22.3,11.4,22.3h70.8c6.3,0,11.4-10,11.4-22.3s-5.1-22.3-11.4-22.3Z"/>
  <ellipse class="st1" cx="14.6" cy="32.3" rx="11.4" ry="22.3"/>
  <ellipse class="st0" cx="14.6" cy="32.3" rx="3.4" ry="6.7"/>
  <g>
    <line class="st2" x1="19.3" y1="12.1" x2="19.2" y2="12.1"/>
    <line class="st2" x1="19.3" y1="12.1" x2="31.1" y2="12.1"/>
    <line class="st2" x1="44.7" y1="14.1" x2="32.9" y2="14.1"/>
    <path class="st2" d="M32.9,14.1"/>
    <line class="st2" x1="23.4" y1="18.2" x2="23.2" y2="18.2"/>
    <line class="st2" x1="35.2" y1="18.2" x2="23.4" y2="18.2"/>
    <path class="st2" d="M36.4,22.2"/>
    <path class="st2" d="M36.3,22.2"/>
    <line class="st2" x1="48.3" y1="22.2" x2="36.5" y2="22.2"/>
    <path class="st2" d="M36.4,22.2"/>
    <path class="st2" d="M36.5,22.2"/>
    <line class="st2" x1="25.8" y1="28.3" x2="37.6" y2="28.3"/>
    <path class="st2" d="M37.6,36.4"/>
    <path class="st2" d="M37.5,36.4"/>
    <path class="st2" d="M37.3,36.4"/>
    <line class="st2" x1="49.3" y1="36.4" x2="37.6" y2="36.4"/>
    <line class="st2" x1="24.7" y1="42.5" x2="24.6" y2="42.5"/>
    <line class="st2" x1="36.5" y1="42.5" x2="24.7" y2="42.5"/>
    <line class="st2" x1="35.2" y1="46.5" x2="46.9" y2="46.5"/>
    <path class="st2" d="M35.2,46.5"/>
    <line class="st2" x1="21.1" y1="50.6" x2="21" y2="50.6"/>
    <line class="st2" x1="21.1" y1="50.6" x2="32.9" y2="50.6"/>
    <path class="st2" d="M31,52.5"/>
    <line class="st2" x1="42.9" y1="52.6" x2="31.1" y2="52.6"/>
    <path class="st2" d="M31.2,52.5"/>
    <path class="st2" d="M42.9,12.1"/>
    <path class="st2" d="M42.7,12.1"/>
    <line class="st2" x1="54.7" y1="12.1" x2="42.9" y2="12.1"/>
    <path class="st2" d="M56.3,14.1"/>
    <line class="st2" x1="68.3" y1="14.1" x2="56.5" y2="14.1"/>
    <path class="st2" d="M56.5,14.1"/>
    <path class="st2" d="M46.9,18.2"/>
    <line class="st2" x1="46.9" y1="18.2" x2="58.7" y2="18.2"/>
    <line class="st2" x1="60.1" y1="22.2" x2="71.9" y2="22.2"/>
    <path class="st2" d="M60.1,22.2"/>
    <path class="st2" d="M59.8,22.2"/>
    <line class="st2" x1="49.3" y1="28.3" x2="61.1" y2="28.3"/>
    <path class="st2" d="M60.8,36.4"/>
    <path class="st2" d="M61.1,36.4"/>
    <path class="st2" d="M61.1,36.4"/>
    <line class="st2" x1="61.1" y1="36.4" x2="73" y2="36.4"/>
    <line class="st2" x1="60.1" y1="42.5" x2="48.3" y2="42.5"/>
    <path class="st2" d="M48.3,42.5"/>
    <path class="st2" d="M48.1,42.5"/>
    <path class="st2" d="M58.7,46.5"/>
    <path class="st2" d="M58.5,46.5"/>
    <line class="st2" x1="58.7" y1="46.5" x2="70.5" y2="46.5"/>
    <path class="st2" d="M44.5,50.6"/>
    <path class="st2" d="M44.6,50.6"/>
    <path class="st2" d="M44.7,50.6"/>
    <line class="st2" x1="44.7" y1="50.6" x2="56.5" y2="50.6"/>
    <line class="st2" x1="54.7" y1="52.6" x2="66.5" y2="52.6"/>
    <path class="st2" d="M54.5,52.5"/>
    <path class="st2" d="M54.8,52.5"/>
    <path class="st2" d="M66.5,12.1"/>
    <path class="st2" d="M66.2,12.1"/>
    <line class="st2" x1="78.3" y1="12.1" x2="66.5" y2="12.1"/>
    <line class="st2" x1="66.5" y1="12.1" x2="66.5" y2="12.1"/>
    <line class="st2" x1="80.1" y1="14.1" x2="91.9" y2="14.1"/>
    <path class="st2" d="M70.2,18.2"/>
    <path class="st2" d="M70.5,18.2"/>
    <line class="st2" x1="70.6" y1="18.2" x2="82.4" y2="18.2"/>
    <line class="st2" x1="70.6" y1="18.2" x2="70.5" y2="18.2"/>
    <line class="st2" x1="83.7" y1="22.2" x2="83.7" y2="22.2"/>
    <line class="st2" x1="83.7" y1="22.2" x2="95.5" y2="22.2"/>
    <path class="st2" d="M83.7,22.2"/>
    <line class="st2" x1="73" y1="28.3" x2="73" y2="28.3"/>
    <path class="st2" d="M72.8,28.3"/>
    <path class="st2" d="M73,28.3"/>
    <line class="st2" x1="84.8" y1="28.3" x2="73" y2="28.3"/>
    <line class="st2" x1="84.8" y1="36.4" x2="84.8" y2="36.4"/>
    <line class="st2" x1="84.8" y1="36.4" x2="96.6" y2="36.4"/>
    <path class="st2" d="M84.8,36.4"/>
    <line class="st2" x1="71.9" y1="42.5" x2="83.7" y2="42.5"/>
    <path class="st2" d="M71.6,42.5"/>
    <path class="st2" d="M71.9,42.5"/>
    <line class="st2" x1="71.9" y1="42.5" x2="71.9" y2="42.5"/>
    <line class="st2" x1="94.1" y1="46.5" x2="82.4" y2="46.5"/>
    <path class="st2" d="M68,50.6"/>
    <path class="st2" d="M68.3,50.6"/>
    <line class="st2" x1="68.3" y1="50.6" x2="80.1" y2="50.6"/>
    <path class="st2" d="M78.4,52.5"/>
    <line class="st2" x1="78.3" y1="52.6" x2="90.1" y2="52.6"/>
    <path class="st2" d="M78.4,52.5"/>
    <path class="st2" d="M24.7,42.5c-.8,3.2-2.1,6-3.6,8.1"/>
    <path class="st2" d="M19.3,12.1c1.6,1.4,3,3.5,4,6.1"/>
    <path class="st2" d="M24.7,42.5c.8-3,1.2-6.5,1.2-10.1,0-5.4-1-10.3-2.6-14.2"/>
    <path class="st2" d="M35.2,46.5c1.2-2.9,2.1-6.3,2.4-10.1"/>
    <path class="st2" d="M26.3,10.1h-11.7c1.7,0,3.3.7,4.7,2"/>
    <path class="st2" d="M36.5,22.2c.8,3,1.2,6.5,1.2,10.1s0,2.7-.2,4.1"/>
    <path class="st2" d="M35.2,46.5c-1.1,2.5-2.4,4.6-3.9,6"/>
    <path class="st2" d="M31.2,52.5c-1.5,1.4-3.1,2.1-4.8,2.1"/>
    <path class="st2" d="M21.1,50.6c-1.9,2.6-4.1,4.1-6.5,4.1h11.7"/>
    <path class="st2" d="M32.9,14.1c-1.9-2.6-4.1-4.1-6.5-4.1"/>
    <path class="st2" d="M32.9,14.1c1.5,2.1,2.8,4.9,3.6,8.1"/>
    <path class="st2" d="M36.4,22.2"/>
    <path class="st2" d="M37.7,32.3"/>
    <path class="st2" d="M36.4,22.2"/>
    <path class="st2" d="M26.3,54.6"/>
    <path class="st2" d="M38.1,54.6h-11.7"/>
    <path class="st2" d="M26.3,10.1"/>
    <path class="st2" d="M26.4,10.1h11.7"/>
    <path class="st2" d="M49.5,32.3"/>
    <path class="st2" d="M26.3,54.6h.1"/>
    <path class="st2" d="M26.3,10.1h.1"/>
    <path class="st2" d="M46.9,18.2c-1.1-2.6-2.5-4.7-4-6.1"/>
    <path class="st2" d="M44.7,50.6c1.5-2.1,2.8-4.9,3.6-8.1"/>
    <path class="st2" d="M49.9,10.1h-11.8c1.7,0,3.3.7,4.7,2"/>
    <path class="st2" d="M46.9,18.2c1.6,3.9,2.6,8.8,2.6,14.2s-.5,7.1-1.2,10.1"/>
    <path class="st2" d="M61.3,32.3"/>
    <path class="st2" d="M44.7,50.6c-1.9,2.6-4.1,4.1-6.5,4.1h11.8"/>
    <path class="st2" d="M71.9,42.5"/>
    <path class="st2" d="M73.2,32.3"/>
    <path class="st2" d="M73,28.3"/>
    <path class="st2" d="M66.5,12.1"/>
    <path class="st2" d="M70.6,18.2"/>
    <path class="st2" d="M61.8,54.6h11.8c1.7,0,3.4-.8,4.9-2.1"/>
    <path class="st2" d="M66.5,12.1"/>
    <path class="st2" d="M83.7,22.2c-1.9-7.2-5.7-12.2-10.1-12.2h-11.8"/>
    <path class="st2" d="M84.8,36.4c0-1.3.2-2.7.2-4.1,0-3.6-.5-7.1-1.2-10.1"/>
    <path class="st2" d="M84.8,36.4c-.7,7.1-3.1,13.1-6.3,16.1"/>
    <path class="st2" d="M71.9,42.5"/>
    <path class="st2" d="M68.3,50.6"/>
    <path class="st2" d="M73,28.3"/>
    <path class="st2" d="M70.6,18.2"/>
    <path class="st2" d="M70.5,18.2c1.2,2.9,2.1,6.3,2.4,10.1"/>
    <path class="st2" d="M56.5,14.1c1.5,2.1,2.8,4.9,3.6,8.1"/>
    <path class="st2" d="M60.1,22.2c.8,3,1.2,6.5,1.2,10.1s0,2.7-.2,4.1"/>
    <path class="st2" d="M58.7,46.5c-1.1,2.5-2.4,4.6-3.9,6"/>
    <path class="st2" d="M68.3,50.6c1.5-2.1,2.8-4.9,3.6-8.1"/>
    <path class="st2" d="M54.8,52.5c-1.5,1.4-3.1,2.1-4.8,2.1h11.8c2.4,0,4.7-1.5,6.5-4.1"/>
    <path class="st2" d="M56.5,14.1c-1.9-2.6-4.1-4.1-6.5-4.1h11.8c1.7,0,3.3.7,4.7,2"/>
    <path class="st2" d="M61.1,36.4c-.4,3.8-1.2,7.3-2.4,10.1"/>
    <path class="st2" d="M73,28.3c0,1.3.2,2.7.2,4.1,0,3.6-.5,7.1-1.2,10.1"/>
    <path class="st2" d="M70.5,18.2c-1.1-2.6-2.5-4.7-4-6.1"/>
    <path class="st2" d="M84.8,36.4"/>
    <path class="st2" d="M83.7,22.2"/>
    <path class="st2" d="M73.6,54.6h11.8c6.3,0,11.4-10,11.4-22.3s-5.1-22.3-11.4-22.3h-11.8"/>
    <path class="st2" d="M84.8,36.4"/>
  </g>
</svg>