<?xml version="1.0" encoding="UTF-8"?>
<svg id="Livello_1" xmlns="http://www.w3.org/2000/svg" version="1.1" viewBox="0 0 100 64.7">
  <!-- Generator: Adobe Illustrator 29.7.1, SVG Export Plug-In . SVG Version: 2.1.1 Build 8)  -->
  <defs>
    <style>
      .st0 {
        fill: #2c2c2c;
      }

      .st1 {
        fill: #f4f4f4;
      }

      .st1, .st2 {
        stroke: #f4f4f4;
        stroke-miterlimit: 10;
        stroke-width: .8px;
      }

      .st2 {
        fill: none;
      }
    </style>
  </defs>
  <path class="st0" d="M85.4,10.1H14.6c-6.3,0-11.4,10-11.4,22.3s5.1,22.3,11.4,22.3h70.8c6.3,0,11.4-10,11.4-22.3s-5.1-22.3-11.4-22.3Z"/>
  <ellipse class="st1" cx="14.6" cy="32.3" rx="11.4" ry="22.3"/>
  <ellipse class="st0" cx="14.6" cy="32.3" rx="3.4" ry="6.7"/>
  <g>
    <line class="st2" x1="44.6" y1="14.1" x2="32.9" y2="14.1"/>
    <path class="st2" d="M44.6,14.1"/>
    <path class="st2" d="M48.3,22.2"/>
    <path class="st2" d="M36.4,22.2"/>
    <path class="st2" d="M36.5,22.2"/>
    <line class="st2" x1="48.2" y1="22.2" x2="36.5" y2="22.2"/>
    <line class="st2" x1="49.3" y1="36.4" x2="49.3" y2="36.4"/>
    <line class="st2" x1="49.3" y1="36.4" x2="37.6" y2="36.4"/>
    <path class="st2" d="M37.6,36.4"/>
    <path class="st2" d="M37.5,36.4"/>
    <line class="st2" x1="46.9" y1="46.5" x2="46.9" y2="46.5"/>
    <line class="st2" x1="46.9" y1="46.5" x2="35.2" y2="46.5"/>
    <path class="st2" d="M31.2,52.5"/>
    <path class="st2" d="M31.1,52.5"/>
    <path class="st2" d="M42.8,52.6"/>
    <line class="st2" x1="31.1" y1="52.6" x2="42.8" y2="52.6"/>
    <path class="st2" d="M42.9,12.1"/>
    <line class="st2" x1="42.8" y1="12.1" x2="54.7" y2="12.1"/>
    <line class="st2" x1="68.3" y1="14.1" x2="56.5" y2="14.1"/>
    <path class="st2" d="M56.5,14.1"/>
    <line class="st2" x1="46.9" y1="18.2" x2="46.9" y2="18.2"/>
    <line class="st2" x1="46.9" y1="18.2" x2="58.7" y2="18.2"/>
    <path class="st2" d="M60.1,22.2"/>
    <path class="st2" d="M59.9,22.2"/>
    <line class="st2" x1="60.1" y1="22.2" x2="71.9" y2="22.2"/>
    <line class="st2" x1="49.3" y1="28.3" x2="61.1" y2="28.3"/>
    <path class="st2" d="M61.1,36.4"/>
    <line class="st2" x1="61.1" y1="36.4" x2="73" y2="36.4"/>
    <path class="st2" d="M61,36.4"/>
    <line class="st2" x1="60.1" y1="42.5" x2="48.2" y2="42.5"/>
    <path class="st2" d="M58.7,46.5"/>
    <line class="st2" x1="58.7" y1="46.5" x2="70.6" y2="46.5"/>
    <line class="st2" x1="44.6" y1="50.6" x2="44.7" y2="50.6"/>
    <line class="st2" x1="44.6" y1="50.6" x2="56.5" y2="50.6"/>
    <line class="st2" x1="44.6" y1="50.6" x2="44.6" y2="50.6"/>
    <path class="st2" d="M54.8,52.5"/>
    <line class="st2" x1="54.7" y1="52.6" x2="66.5" y2="52.6"/>
    <path class="st2" d="M78.4,12.1"/>
    <path class="st2" d="M66.4,12.1"/>
    <path class="st2" d="M66.5,12.1"/>
    <line class="st2" x1="78.3" y1="12.1" x2="66.5" y2="12.1"/>
    <path class="st2" d="M78.3,12.1"/>
    <path class="st2" d="M70.4,18.2"/>
    <line class="st2" x1="70.6" y1="18.2" x2="82.4" y2="18.2"/>
    <path class="st2" d="M70.6,18.2"/>
    <line class="st2" x1="84.8" y1="28.3" x2="73" y2="28.3"/>
    <line class="st2" x1="71.9" y1="42.5" x2="83.7" y2="42.5"/>
    <path class="st2" d="M71.9,42.5"/>
    <path class="st2" d="M71.8,42.5"/>
    <path class="st2" d="M68.2,50.6"/>
    <path class="st2" d="M68.3,50.6"/>
    <line class="st2" x1="68.3" y1="50.6" x2="80.1" y2="50.6"/>
    <path class="st2" d="M37.6,36.4c-.7,7.1-3.1,13.1-6.3,16.1"/>
    <path class="st2" d="M31.2,52.5c-1.5,1.4-3.1,2.1-4.9,2.1"/>
    <path class="st2" d="M37.6,36.4c0-1.3.2-2.7.2-4.1,0-3.6-.5-7.1-1.2-10.1"/>
    <path class="st2" d="M36.5,22.2c-1.9-7.2-5.7-12.2-10.1-12.2"/>
    <path class="st2" d="M26.3,10.1h-11.7c6.3,0,11.4,10,11.4,22.3s-5.1,22.3-11.4,22.3h11.7"/>
    <path class="st2" d="M26.3,54.6"/>
    <path class="st2" d="M37.7,32.3"/>
    <path class="st2" d="M26.3,10.1"/>
    <path class="st2" d="M46.9,46.5c1.2-2.9,2.1-6.3,2.4-10.1"/>
    <path class="st2" d="M46.9,46.5c-.6,1.5-1.4,2.9-2.2,4.1"/>
    <path class="st2" d="M48.2,22.2c-.8-3.2-2.1-6-3.6-8.1"/>
    <path class="st2" d="M44.6,50.6c-.6.8-1.2,1.5-1.8,2"/>
    <path class="st2" d="M48.2,22.2c.8,3,1.2,6.5,1.2,10.1s0,2.7-.2,4.1"/>
    <path class="st2" d="M26.4,54.6h11.7c1.7,0,3.3-.7,4.7-2"/>
    <path class="st2" d="M44.6,14.1c-1.9-2.6-4.1-4.1-6.5-4.1h-11.7"/>
    <path class="st2" d="M26.3,10.1h.1"/>
    <path class="st2" d="M26.3,54.6h.1"/>
    <path class="st2" d="M49.5,32.3"/>
    <path class="st2" d="M46.9,18.2"/>
    <path class="st2" d="M49.9,10.1h-11.8"/>
    <path class="st2" d="M61.3,32.3"/>
    <path class="st2" d="M46.9,18.2"/>
    <path class="st2" d="M38.1,54.6h11.8"/>
    <path class="st2" d="M68.3,50.6c1.5-2.1,2.8-4.9,3.6-8.1"/>
    <path class="st2" d="M68.3,50.6c-1.9,2.6-4.1,4.1-6.5,4.1h11.8c6.3,0,11.4-10,11.4-22.3s-2.7-16.7-6.6-20.3"/>
    <path class="st2" d="M70.6,18.2c1.6,3.9,2.6,8.8,2.6,14.2s-.5,7.1-1.2,10.1"/>
    <path class="st2" d="M78.3,12.1c-1.4-1.3-3.1-2-4.7-2h-11.8c1.7,0,3.3.7,4.7,2"/>
    <path class="st2" d="M70.6,18.2c-1.1-2.6-2.5-4.7-4-6.1"/>
    <path class="st2" d="M73.1,32.3"/>
    <path class="st2" d="M54.8,52.5c-1.5,1.4-3.1,2.1-4.9,2.1h11.8"/>
    <path class="st2" d="M58.7,46.5c-1.1,2.5-2.4,4.6-3.9,6"/>
    <path class="st2" d="M56.5,14.1c-1.9-2.6-4.1-4.1-6.5-4.1h11.8"/>
    <path class="st2" d="M61.1,36.4c-.4,3.8-1.2,7.3-2.4,10.1"/>
    <path class="st2" d="M60.1,22.2c.8,3,1.2,6.5,1.2,10.1s0,2.7-.2,4.1"/>
    <path class="st2" d="M56.5,14.1c1.5,2.1,2.8,4.9,3.6,8.1"/>
    <path class="st2" d="M73.6,54.6h11.8c6.3,0,11.4-10,11.4-22.3s-5.1-22.3-11.4-22.3h-11.8"/>
    <path class="st2" d="M85,32.3"/>
  </g>
</svg>