<?xml version="1.0" encoding="UTF-8"?>
<svg id="Livello_1" xmlns="http://www.w3.org/2000/svg" version="1.1" viewBox="0 0 11 11">
  <!-- Generator: Adobe Illustrator 29.7.1, SVG Export Plug-In . SVG Version: 2.1.1 Build 8)  -->
  <defs>
    <style>
      .st0 {
        fill: #fcc133;
      }
    </style>
  </defs>
  <g id="miglio">
    <path class="st0" d="M4.5,9.9c0,0-.1,0-.1-.1,0-.2-.1-4,1.1-5.5,0,0,.1,0,.2,0,0,0,0,.1,0,.2-1.2,1.4-1.1,5.3-1,5.3,0,0,0,.1-.1.1h0Z"/>
    <circle class="st0" cx="6.2" cy="4.6" r=".4"/>
    <circle class="st0" cx="5.5" cy="3.6" r=".4"/>
    <circle class="st0" cx="6.4" cy="3.7" r=".4"/>
    <circle class="st0" cx="6.1" cy="2.8" r=".4"/>
    <circle class="st0" cx="7.1" cy="3" r=".4"/>
    <circle class="st0" cx="7.6" cy="2.1" r=".4"/>
    <circle class="st0" cx="8.3" cy="1.5" r=".4"/>
    <circle class="st0" cx="9" cy=".8" r=".4"/>
    <circle class="st0" cx="8" cy=".7" r=".4"/>
    <circle class="st0" cx="7.2" cy="1.2" r=".4"/>
    <circle class="st0" cx="6.6" cy="2" r=".4"/>
    <path class="st0" d="M7,5.6s-1.7.6-2.5,3.4c-.4-4.3-2.3-5.5-2.3-5.5,2.2,2.9,1.8,7.1,1.8,7.1h.8v-.2c0-.7.2-3.1,2.2-4.7Z"/>
  </g>
</svg>