<?xml version="1.0" encoding="UTF-8"?>
<svg id="Livello_1" xmlns="http://www.w3.org/2000/svg" version="1.1" viewBox="0 0 11 11">
  <!-- Generator: Adobe Illustrator 29.7.1, SVG Export Plug-In . SVG Version: 2.1.1 Build 8)  -->
  <defs>
    <style>
      .st0 {
        fill: #fcc133;
      }
    </style>
  </defs>
  <g id="orzo">
    <g>
      <path class="st0" d="M1.9,9.3l.5.3-.6.9c0,.2-.2.2-.4,0h0c-.2,0-.2-.2,0-.4l.6-.9h-.1Z"/>
      <path class="st0" d="M3.6,4.4c0-.2-.2-.4-.2-.6l-.2-1.2s0-.2-.2,0c0,0-.2,0,0,.2l.2,1.2v.6c-.5.9-.2,2.1.6,2.8.6-.8.6-2,0-2.9h-.2,0Z"/>
      <path class="st0" d="M4.6,2.6c0-.2-.2-.4-.2-.6l-.2-1.2s0-.2-.2,0c0,0-.2,0,0,.2l.2,1.2v.6c-.5.9-.2,2.1.6,2.8.6-.8.6-2,0-2.9h-.2Z"/>
      <path class="st0" d="M2.5,6.2c0-.2-.2-.4-.2-.6l-.2-1.2s0-.2-.2,0c0,0-.2,0,0,.2l.2,1.2v.6c-.5.9-.2,2.1.6,2.8.6-.8.6-2,0-2.9h-.2,0Z"/>
      <path class="st0" d="M7.9,5.1c0-.2.3-.3.5-.3l1.2-.4v-.2h-.2l-1.2.4h-.6c-1-.3-2.1.2-2.6,1.1.9.5,2.1.3,2.8-.6h0Z"/>
      <path class="st0" d="M6.8,6.8c0-.2.3-.3.5-.3l1.2-.4v-.2h-.2l-1.2.4h-.6c-1-.3-2.1.2-2.6,1.1.9.5,2.1.3,2.8-.6h0Z"/>
      <path class="st0" d="M5.7,8.7c0-.2.3-.3.5-.3l1.2-.4v-.2h-.2l-1.2.4h-.6c-1-.3-2.1.2-2.6,1.1.9.5,2.1.3,2.8-.6h0Z"/>
      <path class="st0" d="M7.3,2.2c0-.2,0-.4.2-.6l.6-1v-.2h-.2l-.6,1c0,.2-.3.3-.4.4-.9.5-1.5,1.5-1.2,2.6,1-.3,1.8-1.2,1.8-2.2h-.2Z"/>
    </g>
    <path class="st0" d="M5.3,3.1h0s-.2,0,0-.2l.3-2.5s0-.2.2,0c0,0,.2,0,0,.2l-.3,2.5h-.2Z"/>
    <path class="st0" d="M7.2,4.1h0v-.2l2.3-1.5h.2v.2l-2.3,1.5h-.2Z"/>
  </g>
</svg>