<?xml version="1.0" encoding="UTF-8"?>
<svg id="Livello_1" xmlns="http://www.w3.org/2000/svg" version="1.1" viewBox="0 0 11 11">
  <!-- Generator: Adobe Illustrator 29.7.1, SVG Export Plug-In . SVG Version: 2.1.1 Build 8)  -->
  <defs>
    <style>
      .st0 {
        fill: #fcc133;
      }
    </style>
  </defs>
  <path class="st0" d="M6,4.2c0,0,.1,0,.2,0,0,0,.1,0,.1.2,0,0,.1,0,.2,0l.4-.4s0,0,.1,0c0,0,0,0,0,.1l-.5.5s0,0,0,0c0,0,.1,0,.2,0,0,0,0,.1,0,.2,0,0,.1,0,.2.1,0,0,0,.1,0,.2,0,0,.1,0,.1.2,0,0,0,0,0,0h2.3c.3-.2.5-.5.7-.8h0c.3-.5.3-1.2-.2-1.6,0-.4-.2-.8-.6-1.1s-.7-.5-1.1-.6c-.4-.4-1.1-.5-1.6-.2h0c-.3.2-.6.4-.8.7v2.4s.1,0,.2,0c0,0,.1,0,.1.1Z"/>
  <path class="st0" d="M5,6.8c0,0-.1,0-.2,0,0,0-.1,0-.1-.2,0,0-.1,0-.2,0,0,0,0,0,0,0l-.5.5s0,0,0,0,0,0,0,0c0,0,0,0,0-.1l.5-.5s0,0,0,0c0,0,0-.1,0-.2,0,0-.1,0-.2-.1,0,0,0-.1,0-.2,0,0-.1,0-.1-.2,0,0,0,0,0,0H1.7c-.3.2-.5.5-.7.8h0c-.3.5-.3,1.2.2,1.6,0,.4.2.8.6,1.1.3.3.7.5,1.1.6.4.4,1.1.5,1.6.2.3-.2.6-.4.8-.7v-2.4s-.1,0-.2,0c0,0-.1,0-.1-.1Z"/>
  <path class="st0" d="M9.3,5.7h-2.3c0,0,0,.1-.1.2,0,0,0,.1,0,.2,0,0,0,.1-.1.1,0,0,0,.1,0,.2,0,0,0,0-.1,0l.5.5s0,0,0,.1c0,0,0,0,0,0s0,0,0,0l-.5-.5s0,0,0,0c0,0-.1,0-.2,0,0,0,0,.1-.1.2s-.1,0-.2,0c0,0,0,.1-.1.1,0,0-.1,0-.2,0,0,0,0,0,0,0v2.4c.2.3.5.5.8.7h0c.5.3,1.2.3,1.6-.2.4,0,.8-.2,1.1-.6s.5-.7.6-1.1c.4-.4.5-1.1.2-1.6-.2-.3-.4-.6-.7-.8Z"/>
  <path class="st0" d="M4.5,1c-.5-.3-1.2-.3-1.6.2-.4,0-.8.2-1.1.6-.3.3-.5.7-.6,1.1-.4.4-.5,1.1-.2,1.6h0c.2.3.4.6.7.8h2.3c0,0,0-.1.1-.2,0,0,0-.1,0-.2,0,0,0-.1.1-.1,0,0,0-.1,0-.2,0,0,.1,0,.2,0,0,0,0,0,0,0l-.4-.4s0,0,0-.1c0,0,0,0,.1,0l.4.4s0,0,.1,0c0,0,0-.1.1-.2,0,0,.1,0,.2,0,0,0,0-.1.1-.1,0,0,.1,0,.2,0,0,0,0,0,0,0V1.7c-.2-.3-.5-.5-.8-.7h0Z"/>
</svg>