<?xml version="1.0" encoding="UTF-8"?>
<svg id="Livello_1" xmlns="http://www.w3.org/2000/svg" version="1.1" viewBox="0 0 11 11">
  <!-- Generator: Adobe Illustrator 29.7.1, SVG Export Plug-In . SVG Version: 2.1.1 Build 8)  -->
  <defs>
    <style>
      .st0, .st1 {
        fill: #fcc133;
      }

      .st1 {
        stroke: #fff;
        stroke-linecap: round;
        stroke-miterlimit: 10;
        stroke-width: .5px;
      }
    </style>
  </defs>
  <g id="phacelia">
    <path class="st0" d="M7.3,1.9c-.2-.2-.5-.2-.7,0,0-.2-.2-.4-.4-.5s-.5,0-.7.2c-.2-.3-.4-.4-.7-.4-.4,0-.7.6-.6,1.3,0,.6.5,1.1.9,1,0,0,0,0,0,0,0,0,0,0,.1,0,.1,0,.2,0,.3,0,0,0,0,0,0,0,.3.3.9.1,1.4-.3.4-.5.5-1.1.2-1.4Z"/>
    <path class="st0" d="M9.9,3.7c-.1-.2-.4-.3-.7-.3,0-.2,0-.5-.2-.6s-.4-.2-.7,0c0-.3-.2-.5-.5-.6-.4,0-.9.3-1,1-.1.6,0,1.2.5,1.3,0,0,0,0,0,0,0,0,0,0,0,.1,0,0,.2.1.3.1,0,0,0,0,0,.1.2.4.8.5,1.4.2.6-.3.9-.8.7-1.2Z"/>
    <path class="st0" d="M3.7,1.1c-.2,0-.5.1-.7.3-.2-.2-.4-.2-.6-.2s-.4.3-.5.5c-.3-.1-.6-.1-.8,0-.3.3-.2.9.2,1.4.4.5,1,.6,1.3.4,0,0,0,0,0,0,0,0,.1,0,.2,0,.1,0,.2,0,.3-.2,0,0,0,0,.1,0,.4,0,.8-.4.9-1,.1-.6-.2-1.2-.6-1.3Z"/>
    <path class="st0" d="M4.2,6s0,0,0,0l-1.2-3s0,0,0-.1c0,0,0,0,.1,0l1.2,3s0,0,0,.1c0,0,0,0,0,0Z"/>
    <path class="st0" d="M4.2,6s0,0,0,0c0,0,0,0,0-.1l3.2-1.6s0,0,.1,0c0,0,0,0,0,.1l-3.2,1.6s0,0,0,0Z"/>
    <path class="st0" d="M3.7,4.7l-1.5-1.2s0,0,0-.1c0,0,0,0,.1,0l1.3,1c.2-.5.2-1,0-1.4v-.3c0,0,0,0,0-.1,0,0,0,0,.1,0v.3c.2.6.1,1.1,0,1.6h0Z"/>
    <path class="st0" d="M4.6,5s0,0,0,0v-1.8s0,0,.1,0c0,0,0,0,0,0v1.8s0,0-.1,0c0,0,0,0,0,0Z"/>
    <path class="st0" d="M4.6,5.1s0,0,0,0c0,0,0,0,0-.1.5-.2.9-.6,1.1-1l.3-.5s0,0,.1,0c0,0,0,0,0,.1l-.3.5c-.3.5-.7.9-1.2,1.1,0,0,0,0,0,0Z"/>
    <path class="st0" d="M5.9,5.1h0c.2-.6.6-1,1-1.3h.1c0-.1,0-.1.1,0,0,0,0,0,0,.1h-.1c-.4.4-.7.8-.9,1.2.7.2,1.4,0,2-.3h0s0,0,.1,0,0,0,0,.1h0c-.7.4-1.5.5-2.2.3h-.1Z"/>
    <path class="st0" d="M1.6,2.6s0,0,0,0l-.2-.2c-.3-.3-.4-.7-.4-1.2,0,0,0,0,0,0,0,0,0,0,0,0,0,.4.1.8.4,1.1l.2.2s0,0,0,0c0,0,0,0,0,0Z"/>
    <path class="st0" d="M2.3,2.3s0,0,0,0l.2-.6c0-.3,0-.7-.1-1,0,0,0,0,0,0,0,0,0,0,0,0,.2.3.2.7.2,1.1l-.2.6s0,0,0,0c0,0,0,0,0,0Z"/>
    <path class="st0" d="M3.7,2.6s0,0,0,0v-.7c-.2-.5-.2-1,0-1.5,0,0,0,0,0,0,0,0,0,0,0,0-.2.4-.3.9-.2,1.4v.7c.1,0,.1,0,.1,0,0,0,0,0,0,0Z"/>
    <path class="st0" d="M4.7,2s0,0,0,0c0-.4,0-.8,0-1.1v-.2c0,0,0,0,0,0s0,0,0,0v.2c-.2.3-.2.7-.1,1.1,0,0,0,0,0,0,0,0,0,0,0,0Z"/>
    <path class="st0" d="M5.6,2.4s0,0,0,0c0,0,0,0,0,0l.3-.3c.3-.3.4-.7.4-1.1,0,0,0,0,0,0,0,0,0,0,0,0,0,.4-.2.8-.4,1.1l-.3.3s0,0,0,0Z"/>
    <path class="st0" d="M6.8,2.9s0,0,0,0v-.4c.2-.4.3-.8.5-1.1,0,0,0,0,0,0,0,0,0,0,0,0-.2.3-.3.7-.4,1.1v.4c-.1,0-.1,0-.1,0,0,0,0,0,0,0Z"/>
    <path class="st0" d="M7.5,3s0,0,0,0c0,0,0,0,0,0l.4-.5c.2-.2.3-.4.4-.7s0,0,0,0,0,0,0,0c-.1.3-.3.5-.4.7l-.4.5s0,0,0,0Z"/>
    <path class="st0" d="M8.7,3.9s0,0,0,0v-.5c.1-.4.3-.7.6-1,0,0,0,0,0,0,0,0,0,0,0,0-.3.3-.4.6-.5,1v.5c0,0,0,0-.1,0,0,0,0,0,0,0Z"/>
    <path class="st0" d="M9.1,4.5s0,0,0,0c0,0,0,0,0,0s0,0,.3-.2c.5-.3.9-.7,1.1-1.3s0,0,0,0,0,0,0,0c-.2.5-.6,1-1.1,1.3-.2.1-.3.2-.3.2,0,0,0,0,0,0Z"/>
    <path class="st0" d="M1.4,2s0,0,0,0c.1-.3.2-.5.2-.8h0c0,0,0,0,0,0,0,0,0,0,0,0h0c0,.3-.1.6-.2.8s0,0,0,0Z"/>
    <path class="st0" d="M2.4,1.4c-.3-.1-.4-.3-.5-.6,0,0,0,0,0,0,0,0,0,0,0,0,0,.3.3.5.5.6,0,0,0,0,0,0,0,0,0,0,0,0,0,0,0,0,0,0Z"/>
    <path class="st0" d="M3,1.5s0,0,0,0v-.7c0,0,.1,0,.1,0,0,0,0,0,0,0v.7c0,0-.1,0-.1,0,0,0,0,0,0,0Z"/>
    <path class="st0" d="M3.7,1.4s0,0,0,0c0,0,0,0,.1-.2.1-.2.3-.4.3-.6h0s0,0,0,0c0,0,0,0,0,0h0c0,.2-.2.5-.3.6-.1.1-.1.2-.1.2,0,0,0,0,0,0,0,0,0,0,0,0Z"/>
    <path class="st0" d="M5,1.5s0,0,0,0c0,0,0,0,0,0h0c.2-.3.3-.5.4-.8,0,0,0,0,0,0,0,0,0,0,0,0,0,.3-.2.6-.4.8h0s0,0,0,0Z"/>
    <path class="st0" d="M5.9,1.7s0,0,0,0c0,0-.1-.4-.1-.6,0,0,.1-.3.1-.3,0,0,0,0,0,0s0,0,0,0c0,0,0,0,0,0,0,0-.1.2-.1.3,0,.1,0,.5.1.5,0,0,0,0,0,0,0,0,0,0,0,0Z"/>
    <path class="st0" d="M6.5,2.2s0,0,0,0v-.3c.2-.2.4-.4.5-.6,0,0,0,0,0,0,0,0,0,0,0,0-.2.2-.3.4-.4.6v.3c-.1,0-.2,0-.2,0Z"/>
    <path class="st0" d="M7.7,2.5s0,0,0,0c0,0,0-.4,0-.6,0,0,.1-.2.1-.2,0,0,0,0,0,0,0,0,0,0,0,0,0,0-.1.2-.1.2,0,.1,0,.6,0,.6,0,0,0,0,0,0,0,0,0,0,0,0Z"/>
    <path class="st0" d="M8.4,2.9s0,0,0,0c0,0,0,0,0,0l.5-.6s0,0,0,0c0,0,0,0,0,0l-.5.6s0,0,0,0Z"/>
    <path class="st0" d="M9.4,3.7s0,0,0,0c0,0,0,0,0,0,0,0,0,0,0-.2,0-.4.1-.7.3-1h0s0,0,0,0c0,0,0,0,0,0h0c-.2.3-.3.6-.3,1,0,.2,0,.2,0,.2,0,0,0,0,0,0Z"/>
    <ellipse class="st0" cx="1.1" cy="1.2" rx="0" ry="0" transform="translate(-.5 1.7) rotate(-68.2)"/>
    <ellipse class="st0" cx="1.6" cy="1.1" rx="0" ry="0" transform="translate(0 2.2) rotate(-68.2)"/>
    <ellipse class="st0" cx="1.9" cy=".8" rx="0" ry="0" transform="translate(-.1 .4) rotate(-11.3)"/>
    <ellipse class="st0" cx="2.3" cy=".7" rx="0" ry="0" transform="translate(0 .5) rotate(-11.3)"/>
    <ellipse class="st0" cx="3.1" cy=".8" rx="0" ry="0" transform="translate(1.5 3.6) rotate(-74.6)"/>
    <ellipse class="st0" cx="3.8" cy=".4" rx="0" ry="0" transform="translate(1.6 3.5) rotate(-61.2)"/>
    <ellipse class="st0" cx="4.2" cy=".5" rx="0" ry="0" transform="translate(2.4 4.4) rotate(-71.8)"/>
    <ellipse class="st0" cx="4.8" cy=".7" rx="0" ry="0" transform="translate(2.4 4.9) rotate(-68.2)"/>
    <ellipse class="st0" cx="5.9" cy=".8" rx="0" ry="0" transform="translate(3 6) rotate(-68.2)"/>
    <ellipse class="st0" cx="6.3" cy=".9" rx="0" ry="0" transform="translate(4.9 7.1) rotate(-85.4)"/>
    <ellipse class="st0" cx="7" cy="1.2" rx="0" ry="0" transform="translate(1.8 6) rotate(-51.8)"/>
    <ellipse class="st0" cx="7.4" cy="1.3" rx="0" ry="0" transform="translate(2.8 7.2) rotate(-62.3)"/>
    <ellipse class="st0" cx="7.8" cy="1.6" rx="0" ry="0" transform="translate(2.3 7.4) rotate(-57.9)"/>
    <ellipse class="st0" cx="8.4" cy="1.8" rx="0" ry="0" transform="translate(4.6 9.5) rotate(-75.4)"/>
    <ellipse class="st0" cx="8.9" cy="2.2" rx="0" ry="0" transform="translate(2.2 8.4) rotate(-56.6)"/>
    <ellipse class="st0" cx="9.3" cy="2.4" rx="0" ry="0" transform="translate(2.2 8.9) rotate(-56.6)"/>
    <ellipse class="st0" cx="9.8" cy="2.5" rx="0" ry="0" transform="translate(2.3 9.3) rotate(-56.6)"/>
    <ellipse class="st0" cx="10.5" cy="2.9" rx="0" ry="0" transform="translate(4.4 11.9) rotate(-71.6)"/>
    <path class="st0" d="M2.2,10.7s0,0,0,0c0,0,0,0,0-.1.8-.7,1.2-1.7,1.4-2.7.4-2.2,1.1-3.5,2-5h0s0,0,0-.1,0,0,.1,0h.2c0,0,0,.2,0,.2-.9,1.5-1.6,2.8-2,5-.2,1.1-.7,2-1.5,2.8,0,0,0,0,0,0Z"/>
    <g>
      <path class="st0" d="M7.5,8.7c0-.1,0-.3-.1-.4,0,0,.2-.2.2-.3s-.1-.2-.2-.3c0-.1.1-.3,0-.4-.1-.2-.5-.2-.7,0-.3.2-.4.5-.3.7,0,0,0,0,0,0,0,0,0,0,0,0,0,0,0,.1,0,.2,0,0,0,0,0,0,0,.2.1.5.5.6.3,0,.6,0,.7-.2Z"/>
      <path class="st0" d="M7.1,6.9c0-.1-.2-.2-.3-.2,0-.1,0-.2,0-.3s-.2-.1-.4-.1c0-.2,0-.3-.2-.4-.2,0-.5.1-.6.4-.1.3,0,.6.1.7,0,0,0,0,0,0,0,0,0,0,0,0,0,0,0,0,.1,0,0,0,0,0,0,0,0,.2.4.3.7.2.3,0,.5-.4.5-.6Z"/>
      <path class="st0" d="M4.9,8.3s0,0,0,0c0,0,0,0,0-.1l1.1-1.3s0,0,.1,0c0,0,0,0,0,.1l-1.1,1.3s0,0-.1,0Z"/>
      <path class="st0" d="M5.3,7.7l.2-1s0,0,.1,0c0,0,0,0,0,.1l-.2.8c.2,0,.4-.1.6-.3h.1c0-.1,0-.1.1,0,0,0,0,0,0,.1h-.1c-.2.3-.5.4-.8.4h-.1Z"/>
      <path class="st0" d="M5.7,8.1s0,0,0,0c0,0,0,0,0-.1l.7-.4s0,0,.1,0c0,0,0,0,0,.1l-.7.4s0,0,0,0Z"/>
      <path class="st0" d="M5.5,8.4c-.1,0-.2-.1-.3-.2,0,0,0,0,0-.1,0,0,0,0,.1,0,.2.2.7.3.9.3h.3s0,0,0,.1c0,0,0,0,0,0h-.3c-.2,0-.5,0-.7-.2Z"/>
      <path class="st0" d="M5.9,6.2h0s0,0,0,0h0c0-.3.3-.5.5-.6,0,0,0,0,0,0,0,0,0,0,0,0-.2,0-.4.2-.5.4h0c0,.1,0,.1,0,.1Z"/>
      <path class="st0" d="M6.2,6.5s0,0,0,0c0,0,0,0,0,0h.3c.2,0,.4-.2.5-.4,0,0,0,0,0,0s0,0,0,0c0,0,0,0,0,0-.1.2-.3.3-.5.3h-.3c0,0,0,0,0,0Z"/>
      <path class="st0" d="M6.4,7.2s0,0,0,0c0,0,0,0,0,0l.3-.2c.2-.2.5-.2.7-.2,0,0,0,0,0,0,0,0,0,0,0,0-.3,0-.5,0-.7.2l-.3.2s0,0,0,0Z"/>
      <path class="st0" d="M6.9,7.5s0,0,0,0c0,0,0,0,0,0,.2-.1.3-.2.6-.2h0s0,0,0,0c0,0,0,0,0,0h0c-.2,0-.4,0-.5.2,0,0,0,0,0,0Z"/>
      <path class="st0" d="M6.9,8.8s0,0,0,0c0,0,0,0,0,0h.2c.2-.1.4-.1.6-.1,0,0,0,0,0,0,0,0,0,0,0,0-.2,0-.4,0-.6,0h-.2c0,0,0,0,0,0Z"/>
      <path class="st0" d="M6.1,5.9s0,0,0,0c0,0,0,0,0,0,.1,0,.3,0,.4,0h0s0,0,0,0c0,0,0,0,0,0h0c-.1,0-.3,0-.4,0,0,0,0,0,0,0Z"/>
      <path class="st0" d="M6.6,6.3s0,0,0,0c0-.2,0-.3.2-.4,0,0,0,0,0,0,0,0,0,0,0,0-.1,0-.2.2-.2.4,0,0,0,0,0,0,0,0,0,0,0,0Z"/>
      <path class="st0" d="M6.7,6.6s0,0,0,0c0,0,0,0,0,0h.3c0-.1,0-.1,0-.1,0,0,0,0,0,0h-.3c0,.1,0,.1,0,.1Z"/>
      <path class="st0" d="M6.9,6.9s0,0,0,0c0,0,0,0,0,0,0,0,0,0,.1,0,.1,0,.3,0,.4,0h0s0,0,0,0c0,0,0,0,0,0h0c-.1,0-.3,0-.4,0,0,0-.1,0-.1,0,0,0,0,0,0,0Z"/>
      <path class="st0" d="M7.2,7.6s0,0,0,0c0,0,0,0,0,0h0c.2,0,.3,0,.5,0,0,0,0,0,0,0,0,0,0,0,0,0-.2,0-.3,0-.5,0h0s0,0,0,0Z"/>
      <path class="st0" d="M7.3,8.2s0,0,0,0c0,0,0,0,0,0h0c.2,0,.3,0,.5,0,0,0,0,0,0,0,0,0,0,0,0,0-.2,0-.3,0-.5,0h0s0,0,0,0Z"/>
      <path class="st0" d="M7.3,8s0,0,0,0c0,0,.2-.2.2-.2,0,0,.2,0,.2,0,0,0,0,0,0,0,0,0,0,0,0,0,0,0-.1,0-.2,0,0,0-.2.2-.2.2,0,0,0,0,0,0,0,0,0,0,0,0Z"/>
      <path class="st0" d="M7.2,8.4s0,0,0,0c0,0,0,0,0,0h.2c.1,0,.3,0,.4,0h0s0,0,0,0c0,0,0,0,0,0-.1,0-.3,0-.4,0h-.2s0,0,0,0Z"/>
      <ellipse class="st0" cx="6.4" cy="5.6" rx="0" ry="0" transform="translate(-.4 .5) rotate(-4)"/>
      <ellipse class="st0" cx="6.6" cy="5.8" rx="0" ry="0" transform="translate(-.4 .5) rotate(-4)"/>
      <ellipse class="st0" cx="6.8" cy="5.9" rx="0" ry="0" transform="translate(-2.2 5.3) rotate(-37.1)"/>
      <ellipse class="st0" cx="7" cy="6.1" rx="0" ry="0" transform="translate(-2.3 5.4) rotate(-37.1)"/>
      <ellipse class="st0" cx="7.1" cy="6.5" rx="0" ry="0" transform="translate(-1.1 1.4) rotate(-10.4)"/>
      <ellipse class="st0" cx="7.4" cy="6.7" rx="0" ry="0" transform="translate(.3 13.8) rotate(-87)"/>
      <ellipse class="st0" cx="7.5" cy="6.9" rx="0" ry="0" transform="translate(-.8 1) rotate(-7.5)"/>
      <ellipse class="st0" cx="7.5" cy="7.3" rx="0" ry="0" transform="translate(-.5 .5) rotate(-4)"/>
      <ellipse class="st0" cx="7.7" cy="7.8" rx="0" ry="0" transform="translate(-.5 .6) rotate(-4)"/>
      <ellipse class="st0" cx="7.7" cy="7.6" rx="0" ry="0" transform="translate(-2.2 3.3) rotate(-21.2)"/>
      <ellipse class="st0" cx="7.8" cy="8.2" rx="0" ry="0" transform="translate(-2.4 3.4) rotate(-21.2)"/>
      <ellipse class="st0" cx="7.8" cy="8.4" rx="0" ry="0" transform="translate(-2.1 14.3) rotate(-77.6)"/>
      <ellipse class="st0" cx="7.8" cy="8.6" rx="0" ry="0" transform="translate(-1.1 16.2) rotate(-88)"/>
    </g>
    <path class="st1" d="M7.6,8.1"/>
    <path class="st0" d="M3,9.7s0,0,0,0c0,0,0,0,0-.1l1.2-1c0,0,1.2-.9,2.5-.4s0,0,0,0c0,0,0,0,0,.1,0,0,0,0-.1,0,0,0,0,0,0,0-1.2-.5-2.3.3-2.3.3l-1.2,1s0,0,0,0Z"/>
  </g>
</svg>