<?xml version="1.0" encoding="UTF-8"?>
<svg id="Livello_1" xmlns="http://www.w3.org/2000/svg" version="1.1" viewBox="0 0 11 11">
  <!-- Generator: Adobe Illustrator 29.7.1, SVG Export Plug-In . SVG Version: 2.1.1 Build 8)  -->
  <defs>
    <style>
      .st0 {
        fill: #fcc133;
      }
    </style>
  </defs>
  <path id="piselli" class="st0" d="M9.2,3.4c0-.9-.4-1.7-1-2h0s-.8-.7-.8-.7c-.3-.3-.7-.1-.8.2-.1.4-.2.8-.2.8-.4.4-.7,1-.7,1.8s.1.9.3,1.3c-.4.2-.7.6-1,1-.2.4-.3.9-.3,1.3-.4,0-.9,0-1.3.3-.7.3-1.1.9-1.3,1.5h0s-.6.6-.6.6c-.3.3-.1.7.2.8l1,.3h0c.6.4,1.5.4,2.3,0,.8-.4,1.2-1.1,1.3-1.7.7,0,1.4-.5,1.8-1.3.4-.7.4-1.5.2-2,.5-.4.9-1.1.9-1.9ZM4.3,8.1c-.6.3-1.1.8-1.4,1.3,0-1,.7-2,2.1-1.6-.2,0-.5.1-.7.2ZM6.4,5.6c-.5.5-.7,1.1-.8,1.8-.3-.9,0-2.1,1.3-2.3-.2.1-.4.3-.5.5ZM6.9,4.6c-.7-.7-.9-1.9.4-2.6-.5.8-.6,1.7-.4,2.6Z"/>
</svg>