<?xml version="1.0" encoding="UTF-8"?>
<svg id="Livello_1" xmlns="http://www.w3.org/2000/svg" version="1.1" viewBox="0 0 11 11">
  <!-- Generator: Adobe Illustrator 29.7.1, SVG Export Plug-In . SVG Version: 2.1.1 Build 8)  -->
  <defs>
    <style>
      .st0 {
        fill: #fcc133;
      }
    </style>
  </defs>
  <g id="ravanello">
    <path class="st0" d="M8.8,6.2c0,1.4-1.9,2.5-3.1,2.5s-3.1-1.1-3.1-2.5,1.9-2.5,3.1-2.5,3.1,1.1,3.1,2.5Z"/>
    <path class="st0" d="M5.7,6.6c.4.3.6.7.7,1.1,0,.4.6,0,.5.3-.1.4-1,1.6-1.2,1.9-.2.3-.4.6-.7.9h-.1c0-.4.2-.8.2-1.1.2-1.5-.7-1.5-.7-1.8,0-.6.6-.2.9-.7,0-.2.1-.4.2-.6h.1Z"/>
  </g>
  <rect class="st0" x="4.6" y="1.2" width=".7" height="3.8" transform="translate(-.9 2.7) rotate(-28.5)"/>
  <path class="st0" d="M5.1,6.6L5.6.2h.7s-.2,3.1-.2,3.1c.3-.6.7-1.1.9-1.4l.2-.2.5.5-.2.2c-.5.5-1.3,2.1-1.6,2.7l-.8,1.6Z"/>
  <rect class="st0" x="4.3" y="2.9" width=".7" height="2.4" transform="translate(-1.5 4.9) rotate(-49.3)"/>
  <rect class="st0" x="5.6" y="3.7" width="2.5" height=".7" transform="translate(-1.1 5.1) rotate(-37.9)"/>
</svg>