<?xml version="1.0" encoding="UTF-8"?>
<svg id="Livello_1" xmlns="http://www.w3.org/2000/svg" version="1.1" viewBox="0 0 11 11">
  <!-- Generator: Adobe Illustrator 29.7.1, SVG Export Plug-In . SVG Version: 2.1.1 Build 8)  -->
  <defs>
    <style>
      .st0 {
        fill: #fcc133;
      }
    </style>
  </defs>
  <g id="riso">
    <g id="riso1" data-name="riso">
      <ellipse class="st0" cx="8.9" cy="6.2" rx=".3" ry=".8"/>
      <ellipse class="st0" cx="8.3" cy="5.5" rx=".8" ry=".3" transform="translate(.6 11.7) rotate(-72.4)"/>
      <ellipse class="st0" cx="7.8" cy="4.9" rx=".8" ry=".3" transform="translate(-.6 8.6) rotate(-55.5)"/>
      <ellipse class="st0" cx="7.3" cy="4.3" rx=".8" ry=".3" transform="translate(-.4 7.9) rotate(-55.5)"/>
      <ellipse class="st0" cx="9.9" cy="5.7" rx=".3" ry=".8" transform="translate(-.4 10.6) rotate(-55.5)"/>
      <ellipse class="st0" cx="9.9" cy="6.7" rx=".3" ry=".8" transform="translate(-2 6.6) rotate(-33.7)"/>
      <ellipse class="st0" cx="9.6" cy="4.8" rx=".3" ry=".8" transform="translate(3.1 13.3) rotate(-78.7)"/>
      <ellipse class="st0" cx="9.2" cy="4" rx=".8" ry=".3"/>
      <ellipse class="st0" cx="8.7" cy="3.2" rx=".8" ry=".3" transform="translate(-.5 1.9) rotate(-12)"/>
      <ellipse class="st0" cx="6.9" cy="3.6" rx=".8" ry=".3" transform="translate(0 7.2) rotate(-55.5)"/>
      <ellipse class="st0" cx="8.3" cy="2.5" rx=".8" ry=".3" transform="translate(-.3 4) rotate(-26.3)"/>
      <path class="st0" d="M2,9.7S3.3,6,.4,3.1c0,0,2.1,2.8,1.6,6.6Z"/>
      <path class="st0" d="M2.1,9.7s.5-2.5-1.6-4.2c0,0,1.6,1.6,1.6,4.2Z"/>
      <path class="st0" d="M2.2,9.8s.5-3.2,3.7-4.2c0,0-2.6,1.3-3.7,4.2Z"/>
      <path class="st0" d="M2.2,9.8s.1-3.9,3.3-5.5c0,0-2.5,1.9-3.3,5.5Z"/>
      <path class="st0" d="M2.2,9.8s.5-2.1,2.6-2.7c0,0-1.7.7-2.6,2.7Z"/>
    </g>
    <path class="st0" d="M2.2,9.9h0c-.1,0-.2,0-.2-.2,0-.3.6-7.6,2.9-8.4.8-.2,1.6.1,2.5,1.2,0,0,0,.2,0,.3,0,0-.2,0-.3,0-.8-.9-1.5-1.3-2.1-1.1-1.8.6-2.5,6.1-2.7,8.1,0,0,0,.2-.2.2Z"/>
  </g>
</svg>