<?xml version="1.0" encoding="UTF-8"?>
<svg id="Livello_1" xmlns="http://www.w3.org/2000/svg" version="1.1" viewBox="0 0 11 11">
  <!-- Generator: Adobe Illustrator 29.7.1, SVG Export Plug-In . SVG Version: 2.1.1 Build 8)  -->
  <defs>
    <style>
      .st0 {
        fill: #fcc133;
      }
    </style>
  </defs>
  <g id="segale">
    <g>
      <path class="st0" d="M8.1,3.6l1.1.6-1-.6c0-.4-.6-.6-1-.4,0,.4.5.6.9.5Z"/>
      <path class="st0" d="M7.6,3.9c0,.4.6.7.9.4l.9.5-.9-.6c-.1-.4-.6-.6-.9-.3Z"/>
      <path class="st0" d="M8,4.7c0,.4.6.7.9.4l1.1.5-1.1-.7c-.1-.4-.6-.5-.9-.3Z"/>
      <path class="st0" d="M8.5,5.4c0,.4.5.6.9.5l1.1.8-1-.9c0-.4-.6-.6-1-.4Z"/>
      <path class="st0" d="M9.7,6.6l.8.7-.7-.7c0-.4-.6-.6-1-.4,0,.2.2.4.4.5l1.3,1.1-1-1c0,0,.2,0,.2,0Z"/>
      <path class="st0" d="M7,4.3c.4-.2.4-.8.1-1-.4.2-.5.7-.2,1v1.7s.1-1.7.1-1.7Z"/>
      <path class="st0" d="M7.4,5c.3-.2.4-.8.1-1-.4.2-.5.7-.2,1v1.3s0-1.3,0-1.3Z"/>
      <path class="st0" d="M7.8,5.8c.3-.2.4-.8.1-1-.4.2-.5.7-.2,1v1.3s0-1.3,0-1.3Z"/>
      <path class="st0" d="M8.3,6.5c.3-.2.4-.8,0-1-.4.2-.5.7-.2,1v1.5s.1-1.4.1-1.4Z"/>
      <path class="st0" d="M9.7,7.5c.1-.4-.2-.8-.6-.8-.2.4.1.9.5.9l.6.9-.5-.9Z"/>
      <path class="st0" d="M8.9,6.9c0-.2,0-.5-.2-.7-.4.2-.5.7-.2,1v1.2s0-1.2,0-1.2c0,0,.2-.1.2-.2l.5,1.4-.4-1.5Z"/>
    </g>
    <path class="st0" d="M.5,9.7C1,6.9,2.9-1.4,6.8,2.8c0,.1,0,.3-.2.1C2.9-.9,1.4,7.2.9,9.8c0,.3-.5.2-.5,0H.5Z"/>
  </g>
</svg>