<?xml version="1.0" encoding="UTF-8"?>
<svg id="Livello_1" xmlns="http://www.w3.org/2000/svg" version="1.1" viewBox="0 0 11 11">
  <!-- Generator: Adobe Illustrator 29.7.1, SVG Export Plug-In . SVG Version: 2.1.1 Build 8)  -->
  <defs>
    <style>
      .st0 {
        fill: #fcc133;
      }
    </style>
  </defs>
  <g id="erba">
    <path class="st0" d="M7.5,5.8c.2-1.7.6-3.4,1.5-4.5-.7.4-1.2,1.1-1.7,1.8-.5.8-.9,1.5-1.3,2.3.2.5.4,1,.6,1.5.3-.4.6-.8.9-1.2Z"/>
    <path class="st0" d="M10.6,4.3c-1.9.4-3.3,2.1-4.2,3.9-.3-1.1-.7-2.1-1.2-3.1-.6-1.2-1.5-2.3-2.6-3-.4-.2-.8-.4-1.2-.5.4.2.7.5.9.8.8.9,1.2,2,1.4,3.2.1.6.2,1.2.2,1.8-.2-.3-.4-.6-.6-.8-.8-1-2-1.7-3.2-1.8.5.3.9.7,1.2,1.1.3.4.5.9.6,1.4.2.7.2,1.5.2,2.3,0,.2,0,.4,0,.6,0,0,0,0,0,0h0s5.4,0,5.4,0h1.1c0-.2,0-.4,0-.6,0-1.9.4-4.1,2.1-5.3Z"/>
  </g>
</svg>