<?xml version="1.0" encoding="UTF-8"?>
<svg id="Livello_1" xmlns="http://www.w3.org/2000/svg" version="1.1" viewBox="0 0 11 11">
  <!-- Generator: Adobe Illustrator 29.7.1, SVG Export Plug-In . SVG Version: 2.1.1 Build 8)  -->
  <defs>
    <style>
      .st0 {
        fill: #fcc133;
      }
    </style>
  </defs>
  <g id="senape">
    <path class="st0" d="M3.2,10.8c0,0-.2,0-.2-.2-.2-2.5.6-5.1,2.3-7l1.6-1.9c0,0,.2,0,.3,0,0,0,0,.2,0,.3l-1.6,1.9c-1.6,1.8-2.4,4.3-2.2,6.7,0,.1,0,.2-.2.2,0,0,0,0,0,0Z"/>
    <path class="st0" d="M7.8,2.3s0,0,0,0c-.3,0-.6-.1-.8-.3-.4-.4-.5-1.1-.1-1.5.1-.1.3-.2.5-.3,0,0,.1,0,.1,0s0,.1,0,.1c-.1,0-.3,0-.4.2-.3.3-.2.8.1,1.1.2.2.4.3.6.3.2,0,.4,0,.5-.2.1-.1.2-.3.2-.6,0,0,0-.1.1-.1,0,0,.1,0,.1.1,0,.3,0,.6-.3.7-.2.2-.4.3-.7.3Z"/>
    <path class="st0" d="M7.4,2.1c-.1,0-.2,0-.3-.1-.2-.2-.1-.7.3-1.2.1-.1.2-.2.4-.3,0,0,.1,0,.2,0,0,0,0,.1,0,.2-.1,0-.2.1-.3.2-.3.3-.4.7-.3.8,0,0,.2,0,.3,0,.2,0,.3-.2.5-.3.1-.1.2-.3.3-.4,0,0,0,0,.2,0,0,0,0,0,0,.2,0,.2-.2.4-.3.5-.2.2-.4.3-.6.4,0,0-.2,0-.2,0Z"/>
    <path class="st0" d="M7.1,2s0,0,0,0c0,0,0-.1,0-.2l.8-.9s.1,0,.2,0c0,0,0,.1,0,.2l-.8.9s0,0,0,0Z"/>
    <g>
      <path class="st0" d="M4.2,3.6c0,0,.2,0,.3.1.4,0,.8-.2.9-.6s-.2-.8-.6-.9c-.1,0-.2,0-.3,0,0,0,0-.2.1-.3,0-.4-.2-.8-.6-.9s-.8.2-.9.6c0,.1,0,.2,0,.3,0,0-.2,0-.3-.1-.4,0-.8.2-.9.6s.2.8.6.9c.1,0,.2,0,.3,0,0,0,0,.2-.1.3,0,.4.2.8.6.9.4,0,.8-.2.9-.6,0-.1,0-.2,0-.3ZM3.3,3.2c0,0-.2,0-.2,0,0,0,0-.2,0-.2s.2,0,.2,0c0,0,0,.2,0,.2ZM3.4,2.7c0,0-.2,0-.2,0,0,0,0-.2,0-.2,0,0,.2,0,.2,0,0,0,0,.2,0,.2ZM3.8,3.3c0,0-.2,0-.2,0,0,0,0-.2,0-.2,0,0,.2,0,.2,0,0,0,0,.2,0,.2ZM3.9,2.8c0,0-.2,0-.2,0,0,0,0-.2,0-.2,0,0,.2,0,.2,0,0,0,0,.2,0,.2Z"/>
      <path class="st0" d="M7,6.6c-.1,0-.2,0-.3,0,0,0,0-.2.1-.3,0-.4-.2-.8-.6-.9-.4,0-.8.2-.9.6,0,.1,0,.2,0,.3,0,0-.2,0-.3-.1-.4,0-.8.2-.9.6s.2.8.6.9c.1,0,.2,0,.3,0,0,0,0,.2-.1.3,0,.4.2.8.6.9.4,0,.8-.2.9-.6,0-.1,0-.2,0-.3,0,0,.2,0,.3.1.4,0,.8-.2.9-.6,0-.4-.2-.8-.6-.9ZM5.7,7.6c0,0-.2,0-.2,0,0,0,0-.2,0-.2,0,0,.2,0,.2,0,0,0,0,.2,0,.2ZM5.8,7c0,0-.2,0-.2,0,0,0,0-.2,0-.2,0,0,.2,0,.2,0s0,.2,0,.2ZM6.2,7.6c0,0-.2,0-.2,0s0-.2,0-.2c0,0,.2,0,.2,0,0,0,0,.2,0,.2ZM6.3,7.1c0,0-.2,0-.2,0,0,0,0-.2,0-.2s.2,0,.2,0c0,0,0,.2,0,.2Z"/>
      <path class="st0" d="M8.6,3.4c0,0-.1,0-.2,0,0,0,0-.1,0-.2,0-.3-.1-.5-.4-.5-.3,0-.5.1-.5.4,0,0,0,.1,0,.2,0,0-.1,0-.2,0-.3,0-.5.1-.5.4,0,.3.1.5.4.5,0,0,.1,0,.2,0,0,0,0,.1,0,.2,0,.3.1.5.4.5s.5-.1.5-.4c0,0,0-.1,0-.2,0,0,.1,0,.2,0,.3,0,.5-.1.5-.4s-.1-.5-.4-.5ZM7.8,4s0,0-.1,0c0,0,0,0,0-.1,0,0,0,0,.1,0,0,0,0,0,0,.1ZM7.9,3.6s0,0-.1,0c0,0,0,0,0-.1,0,0,0,0,.1,0,0,0,0,0,0,.1ZM8.2,4s0,0-.1,0c0,0,0,0,0-.1,0,0,0,0,.1,0,0,0,0,0,0,.1ZM8.2,3.7s0,0-.1,0c0,0,0,0,0-.1,0,0,0,0,.1,0,0,0,0,0,0,.1Z"/>
    </g>
  </g>
</svg>