<?xml version="1.0" encoding="UTF-8"?>
<svg id="Livello_1" xmlns="http://www.w3.org/2000/svg" version="1.1" viewBox="0 0 11 11">
  <!-- Generator: Adobe Illustrator 29.7.1, SVG Export Plug-In . SVG Version: 2.1.1 Build 8)  -->
  <defs>
    <style>
      .st0 {
        fill: #fcc133;
      }
    </style>
  </defs>
  <g id="soia">
    <path id="piselli" class="st0" d="M1.4,7.2c-.2.9.1,1.8.7,2.2h0s.6.9.6.9c.2.3.7.3.9,0,.2-.4.4-.7.4-.8.5-.3.9-.9,1-1.6s0-1,0-1.4c.4-.2.8-.5,1.2-.9.3-.4.5-.8.6-1.2.4,0,.9,0,1.3,0,.7-.2,1.3-.7,1.5-1.2h0s.7-.5.7-.5c.3-.2.3-.7,0-.8l-1-.5h0c-.5-.5-1.4-.6-2.3-.4-.8.3-1.5.9-1.6,1.5-.7,0-1.5.3-2,1-.5.6-.7,1.4-.5,2-.6.3-1.1,1-1.2,1.8ZM7.3,3.4c.7-.2,1.2-.6,1.7-1.1-.2,1-1,1.8-2.4,1.2.2,0,.5,0,.7,0ZM4.7,5.5c.6-.4.9-1,1.1-1.7.2,1-.4,2.1-1.7,2,.2-.1.4-.2.6-.4ZM4,6.5c.5.9.6,2.1-.8,2.5.6-.7.9-1.6.8-2.5Z"/>
    <path class="st0" d="M3.3,5.1s0,0,0,0l-.9-.4c0,0,0-.1,0-.2,0,0,.1,0,.2,0l.9.4c0,0,0,.1,0,.2,0,0,0,0-.1,0Z"/>
    <path class="st0" d="M3.3,5.5s0,0,0,0l-.9-.3c0,0,0,0,0-.2,0,0,0,0,.2,0l.9.3c0,0,0,0,0,.2,0,0,0,0-.1,0Z"/>
    <path class="st0" d="M2.6,6.3s0,0,0,0l-.6-.5s0-.1,0-.2c0,0,.1,0,.2,0l.6.5s0,.1,0,.2c0,0,0,0,0,0Z"/>
    <path class="st0" d="M2.4,6.8s0,0,0,0l-.8-.6c0,0,0-.1,0-.2s.1,0,.2,0l.8.6c0,0,0,.1,0,.2,0,0,0,0,0,0Z"/>
    <path class="st0" d="M2.4,7s0,0,0,0l-1-.4c0,0,0,0,0-.2,0,0,0,0,.2,0l1,.4c0,0,0,0,0,.2,0,0,0,0-.1,0Z"/>
    <path class="st0" d="M2.2,7.5s0,0,0,0l-.9-.4c0,0,0-.1,0-.2,0,0,.1,0,.2,0l.9.4c0,0,0,.1,0,.2,0,0,0,0-.1,0Z"/>
    <path class="st0" d="M2.1,8s0,0,0,0l-.9-.4c0,0,0-.1,0-.2,0,0,.1,0,.2,0l.9.4c0,0,0,.1,0,.2,0,0,0,0-.1,0Z"/>
    <path class="st0" d="M1.9,8.2s0,0,0,0h-.8c0,0-.1-.2-.1-.2,0,0,0-.1.1-.1h.8c0,0,.1.2.1.2,0,0,0,.1-.1.1Z"/>
    <path class="st0" d="M1.9,8.7s0,0,0,0h-.7c0,0-.1-.1-.1-.2,0,0,0-.1.1-.1h.7c0,0,.1.1.1.2,0,0,0,.1-.1.1Z"/>
    <path class="st0" d="M3.4,4.7s0,0,0,0l-.7-.5c0,0,0-.1,0-.2,0,0,.1,0,.2,0l.7.5c0,0,0,.1,0,.2,0,0,0,0-.1,0Z"/>
    <path class="st0" d="M3.6,4.3s0,0,0,0l-.7-.6c0,0,0-.1,0-.2,0,0,.1,0,.2,0l.7.6c0,0,0,.1,0,.2,0,0,0,0,0,0Z"/>
    <path class="st0" d="M3.8,3.8s0,0,0,0l-.6-.5s0-.1,0-.2c0,0,.1,0,.2,0l.6.5s0,.1,0,.2c0,0,0,0,0,0Z"/>
    <path class="st0" d="M4.2,3.4s0,0,0,0l-.6-.5c0,0,0-.1,0-.2,0,0,.1,0,.2,0l.6.5c0,0,0,.1,0,.2,0,0,0,0,0,0Z"/>
    <path class="st0" d="M4.8,3.2s0,0,0,0l-.7-.5c0,0,0-.1,0-.2,0,0,.1,0,.2,0l.7.5c0,0,0,.1,0,.2,0,0,0,0,0,0Z"/>
    <path class="st0" d="M5.1,2.9s0,0,0,0l-.6-.5s0-.1,0-.2c0,0,.1,0,.2,0l.6.5s0,.1,0,.2c0,0,0,0,0,0Z"/>
    <path class="st0" d="M5.8,2.6s0,0,0,0l-.7-.6s0-.1,0-.2c0,0,.1,0,.2,0l.7.6s0,.1,0,.2c0,0,0,0,0,0Z"/>
    <path class="st0" d="M6.1,2.1s0,0,0,0l-.6-.4c0,0,0-.1,0-.2,0,0,.1,0,.2,0l.6.4c0,0,0,.1,0,.2,0,0,0,0,0,0Z"/>
    <path class="st0" d="M6.5,1.8s0,0,0,0l-.7-.6c0,0,0-.1,0-.2,0,0,.1,0,.2,0l.7.6c0,0,0,.1,0,.2,0,0,0,0,0,0Z"/>
    <path class="st0" d="M6.7,1.6s0,0,0,0l-.4-.6c0,0,0-.1,0-.2,0,0,.1,0,.2,0l.4.6c0,0,0,.1,0,.2,0,0,0,0,0,0Z"/>
    <path class="st0" d="M7.1,1.4s0,0,0,0l-.4-.5c0,0,0-.1,0-.2,0,0,.1,0,.2,0l.4.5c0,0,0,.1,0,.2s0,0,0,0Z"/>
    <path class="st0" d="M7.5,1.2s0,0-.1,0l-.2-.6c0,0,0-.1,0-.2,0,0,.1,0,.2,0l.2.6c0,0,0,.1,0,.2,0,0,0,0,0,0Z"/>
    <path class="st0" d="M8,1.2h0c0,0-.1,0-.1-.1v-.5c0,0,0-.1.1-.1h0c0,0,.1,0,.1.1v.5c0,0,0,.1-.1.1Z"/>
  </g>
</svg>