<?xml version="1.0" encoding="UTF-8"?>
<svg id="Livello_1" xmlns="http://www.w3.org/2000/svg" version="1.1" viewBox="0 0 11 11">
  <!-- Generator: Adobe Illustrator 29.7.1, SVG Export Plug-In . SVG Version: 2.1.1 Build 8)  -->
  <defs>
    <style>
      .st0 {
        fill: #fcc133;
      }
    </style>
  </defs>
  <g id="trifoglio_rosso">
    <path class="st0" d="M6.8,4.2c-1.2,1.8-1.6,4.3-3.6,5.5-.6.4-1.4.7-2.1.8-.1,0-.2,0-.3-.2,0-.1,0-.2.2-.3,1.4-.3,2.7-1,3.5-2.2.8-1.2,1.2-2.6,2.1-3.9,0,0,.2,0,.1.1h0Z"/>
    <path class="st0" d="M7.9,6.6h0c0,.1,0,.2-.2.2h0c-.3,0-.7-.1-1-.4l-.3-.2c-.3-.2-.5-.5-.5-.9h0c0-.1,0-.2.2-.2h0c.3,0,.7.1,1,.4l.3.2c.3.2.5.5.5.9Z"/>
    <path class="st0" d="M6.3,7h0c0,0-.1,0-.2,0h0c-.2-.2-.3-.4-.4-.7v-.2c0-.3,0-.5,0-.8h0c0,0,.1,0,.2,0h0c.2.2.3.4.4.7v.2c0,.3,0,.5,0,.8Z"/>
    <path class="st0" d="M6,5h0c0,0,0,.2,0,.3h0c-.3.2-.7.2-1,.2h-.3c-.4-.1-.7-.3-.9-.6h0c0,0,0-.2,0-.3h0c.3-.2.7-.2,1-.2h.3c.4.1.7.3.9.6Z"/>
    <path class="st0" d="M4.4,5.9h0c0,0,0,.2,0,.2h0c.2,0,.5,0,.8,0h.2c.2-.2.4-.4.5-.6h0c0,0,0-.2,0-.2h0c-.2,0-.5,0-.8,0h-.2c-.2.2-.4.4-.5.6Z"/>
    <path class="st0" d="M9.3,3.9c.3-.4.5-.8.4-1,0-.1-.3,0-.6.1.2-.5.2-1,0-1.1-.1-.1-.3,0-.5.3.1-.5.1-.9,0-1-.1,0-.3,0-.5.3.1-.6.1-1-.1-1.1-.2,0-.5.3-.8.8,0-.3,0-.5-.1-.5-.2,0-.5.3-.7.7,0-.3-.2-.5-.3-.5-.2,0-.5.4-.5.9-.1-.3-.3-.4-.4-.4-.1,0-.2.4-.2.8-.2-.3-.3-.6-.4-.5-.2.2-.3,1.4.3,1.9,0,0,.1,0,.2.1.2.2.5.4.7.6.2.2.5.4.8.5.3,0,.5.1.8.1.3,0,.7,0,1,0,.1,0,.2,0,.3,0,.8,0,1.4-1.1,1.4-1.3,0-.2-.3,0-.6.2ZM7.9,5s0,0,0,0c0,0,0,0,0,0,0,0,0,0,0,0,.3-.1.6-.3.5-.3,0-.1-.6-.1-1.1,0,0,0,0,0,0,0s0,0,0,0c.2,0,.7-.3.7-.4,0,0,0,0,0,0s0,0,0,0c-.1,0-.5,0-.7.2,0,0,0,0,0,0,0,0,0,0,0,0,.2-.2.6-.6.5-.8,0,0,0,0,0,0,0,0,0,0,0,0-.2,0-.5.4-.7.6,0,0,0,0,0,0,0,0,0,0,0,0,.2-.4.3-.9.2-1,0,0,0,0,0,0-.1,0-.4.4-.6.7,0,0,0,0,0,0,0,0,0,0,0,0,0-.3.2-.7,0-.9,0,0,0,0,0,0,0,0,0,0,0,0-.1,0-.3.5-.4.8,0,0,0,0,0,0,0,0,0,0,0,0,0-.3-.1-.6-.2-.6,0,0-.2.3-.2.6,0,0,0,0,0,0,0,0,0,0,0,0,0-.3-.2-.5-.3-.5,0,0,0,.2,0,.5,0,0,0,0,0,0h0s0,0,0,0c0-.2,0-.6.2-.6,0,0,0,0,0,0,.1,0,.2.2.3.4,0-.2.1-.5.3-.5h0c.1,0,.2.2.3.5,0-.2.2-.6.4-.6,0,0,0,0,.1,0,0,0,0,0,0,0,0,.1,0,.4,0,.6.2-.3.4-.6.6-.5.2,0,0,.5,0,.8.2-.2.4-.4.5-.4,0,0,0,0,.1,0,0,0,0,0,0,.1,0,.2-.2.5-.4.7.2,0,.4-.1.6-.1,0,0,0,0,0,0,0,0,0,0,0,.1,0,0-.2.2-.3.3.3,0,.7,0,.7.2,0,.2-.4.4-.6.5Z"/>
  </g>
</svg>