<?xml version="1.0" encoding="UTF-8"?>
<svg id="Livello_1" xmlns="http://www.w3.org/2000/svg" version="1.1" viewBox="0 0 100 82.7">
  <!-- Generator: Adobe Illustrator 29.7.1, SVG Export Plug-In . SVG Version: 2.1.1 Build 8)  -->
  <defs>
    <style>
      .st0 {
        display: none;
      }

      .st0, .st1 {
        fill: #2c2c2c;
      }
    </style>
  </defs>
  <path class="st0" d="M66.1,50.2l-.5.5-4.2-4.3c.8-1.9,2-3.5,2.9-5.3C73.9,20.1,57.3-3.2,34.4-1.1,22.5,0,12.1,8.7,8.8,20.1c-7.1,24.3,17.3,45.7,40.6,35.6,1.1-.5,5.5-3.3,6-3l4.1,4.1-.5.5c-1.6,1.6-1.6,4.1,0,5.7l20.6,20.6c1.6,1.6,4.1,1.6,5.7,0l7.1-7.1c1.6-1.6,1.6-4.1,0-5.7l-20.6-20.6c-1.6-1.6-4.1-1.6-5.7,0ZM50,45.5c-11.3,9.1-28.7,3.2-33-10.5-3.7-12,4.2-26,17-27.4,22.2-2.5,33.4,23.9,16,37.9Z"/>
  <g>
    <g>
      <path class="st1" d="M36,55.1h10c1-2.5,1.7-5.4,2-8.5h-10.1c-.3,3.1-1.1,5.9-1.9,8.5Z"/>
      <path class="st1" d="M73,27.5c1,2.5,1.6,5.4,1.9,8.5h10.2c-.4-3.1-1.1-6.1-2-8.5h-10.1Z"/>
      <path class="st1" d="M50.2,36h10.3c-.2-1.7-.5-3.4-1-5-.3-1.2-.7-2.3-1.2-3.5h-10.2c.3,1,.6,1.9,1,2.9.4,1.8.8,3.6,1.1,5.6Z"/>
      <path class="st1" d="M48.4,41.3c0-3.4-.4-6.6-1.1-9.6h-10.1c.6,3,1.1,6.3,1.1,9.6s0,2.1,0,3.2h10.1v-3.2Z"/>
      <path class="st1" d="M71.9,51.6c.4-1.6.7-3.3,1-5h-10.3c-.3,3.1-1.1,5.9-1.9,8.5h10.2c.4-1.1.8-2.2,1.2-3.5h-.2Z"/>
      <path class="st1" d="M60.6,45.4c0-1.4.2-2.8.2-4.1v-3.2h-10.3v3.2c0,1.1,0,2.9-.2,4.4-.2,1.8-.4,3.5-.8,5.2h10.3c.4-1.7.7-3.5.8-5.4h0Z"/>
      <path class="st1" d="M12.8,19c-5.9,0-10.8,10.2-10.8,22.3s5,22.3,10.8,22.3,10.8-10.2,10.8-22.3-5-22.3-10.8-22.3ZM12.8,48.3c-2,0-3.6-3.2-3.6-7s1.6-7,3.6-7,3.6,3.2,3.6,7-1.6,7-3.6,7Z"/>
      <path class="st1" d="M98,41.3c0-12.1-5-22.3-10.8-22.3h-7s.2.2.3.3c4.6,4,7.3,12.5,7.3,22s-3.1,18.5-7.6,22.3h7c5.9,0,10.8-10.2,10.8-22.3Z"/>
      <path class="st1" d="M73.2,41.3c0-3.3-.4-6.6-1.1-9.6h-10.2c.6,3,1.1,6.3,1.1,9.6s0,2.1,0,3.2h10.3v-3.2h0Z"/>
      <path class="st1" d="M45.1,21.5h0c.8,1.1,1.5,2.3,2.1,3.8h10.1c-.4-1-1-1.8-1.6-2.5h0c-.4-.5-.8-1.2-1.5-1.7h-9.6c0,.1.2.3.3.4"/>
      <path class="st1" d="M84.4,50.9c.7-2.9,1.1-6.2,1.1-9.6s0-2.1,0-3.2h-10.3v3.2c0,3.3-.3,6.6-1.1,9.6h10.3Z"/>
      <path class="st1" d="M58.2,55.7c.3-.8.6-1.8,1-2.8h-10.2c-.3,1.3-.7,2.4-1.3,3.6-.4,1-.8,1.9-1.4,2.8h9.9c.7-1.1,1.4-2.2,1.9-3.6h0"/>
      <path class="st1" d="M83.9,53h-10.1c-.6,2.3-1.6,4.6-2.7,6.4h9.9c1.2-1.7,2.1-3.9,2.9-6.4Z"/>
      <path class="st1" d="M79.2,61.5h-9.6c-.6.8-1.3,1.5-2,2.1h7c1.6,0,3.2-.7,4.6-2.1Z"/>
      <path class="st1" d="M54.2,61.7l.2-.2h-9.6c-.5.7-1.1,1.3-1.7,1.8l-.3.3h7.1c1.5,0,3-.6,4.4-1.9,0,0,0,0-.1,0Z"/>
      <path class="st1" d="M68.3,59.8h0c.5-.7,1.1-1.6,1.6-2.5h-10.1c-.7,1.6-1.6,3.1-2.5,4.2h9.6c.5-.5,1.1-1.2,1.5-1.7h0Z"/>
      <path class="st1" d="M69.6,21.1c1,1.2,1.8,2.7,2.5,4.2h10c-.8-1.7-1.9-3.2-3-4.2h-9.6,0Z"/>
      <path class="st1" d="M43.5,59.8c.5-.7,1.1-1.6,1.6-2.5h-9.9c-.7,1.6-1.6,3.1-2.5,4.2h9.5c.5-.5,1-1.1,1.5-1.7h-.2Z"/>
      <path class="st1" d="M58.7,23.2c1.1,1.8,1.9,4,2.7,6.4h10.2c-.3-1-.6-1.9-1-2.8h0c-.5-1.4-1.2-2.5-1.9-3.6,0,0-10,0-10,0Z"/>
      <path class="st1" d="M62.3,19h-7c.7.6,1.4,1.3,2,2.1h9.6s-.2-.2-.3-.3c-1.4-1.3-2.8-1.8-4.2-1.8h0Z"/>
      <path class="st1" d="M34.1,23.2c1.1,1.8,1.9,3.9,2.7,6.4h10.1c-.7-2.4-1.8-4.7-3-6.4h-9.8Z"/>
      <path class="st1" d="M30.6,19c.7.6,1.4,1.3,2,2.1h9.5c-1.2-1.2-2.8-2.1-4.6-2.1h-6.9Z"/>
    </g>
    <g>
      <path class="st1" d="M18.2,19l.6.3-.6-.3Z"/>
      <path class="st1" d="M34.8,31c-1.9-7.2-5.6-12-9.6-12h-7s.2,0,.6.3c1.7,1.2,6.6,5.8,6.6,22s-7.8,22.3-7.8,22.3h7.5c1.5,0,3-.6,4.4-1.9,3.3-3.1,5.6-9.1,6.3-16.2,0-1.4.2-2.8.2-4.1,0-3.6-.4-7.1-1.3-10.3h0Z"/>
    </g>
  </g>
</svg>