<?xml version="1.0" encoding="UTF-8"?>
<svg id="Livello_1" xmlns="http://www.w3.org/2000/svg" version="1.1" viewBox="0 0 100 54.7">
  <!-- Generator: Adobe Illustrator 29.7.1, SVG Export Plug-In . SVG Version: 2.1.1 Build 8)  -->
  <defs>
    <style>
      .st0 {
        fill: #2c2c2c;
      }
    </style>
  </defs>
  <g>
    <path class="st0" d="M36.8,40.3h9.4c.9-2.4,1.6-5.1,1.9-8h-9.5c-.3,2.9-1,5.6-1.8,8Z"/>
    <path class="st0" d="M71.7,14.3c.9,2.4,1.5,5.1,1.8,8h9.6c-.4-2.9-1-5.7-1.9-8h-9.5Z"/>
    <path class="st0" d="M50.2,22.3h9.7c-.2-1.6-.5-3.2-.9-4.7-.3-1.1-.7-2.2-1.1-3.3h-9.6c.3.9.6,1.8.9,2.7.4,1.7.8,3.4,1,5.3Z"/>
    <path class="st0" d="M48.5,27.3c0-3.2-.4-6.2-1-9h-9.5c.6,2.8,1,5.9,1,9s0,2,0,3h9.5c0-1,0-2,0-3Z"/>
    <path class="st0" d="M70.6,37c.4-1.5.7-3.1.9-4.7h-9.7c-.3,2.9-1,5.6-1.8,8h9.6c.4-1,.8-2.1,1.1-3.3h0Z"/>
    <path class="st0" d="M60,31.2c0-1.3.2-2.6.2-3.9s0-2,0-3h-9.7c0,1,0,2,0,3s0,2.7-.2,4.1c-.2,1.7-.4,3.3-.8,4.9h9.7c.4-1.6.7-3.3.8-5.1Z"/>
    <path class="st0" d="M15,6.3c-5.6,0-10.2,9.6-10.2,21s4.7,21,10.2,21,10.2-9.6,10.2-21S20.5,6.3,15,6.3ZM15,33.9c-1.9,0-3.4-3-3.4-6.6s1.5-6.6,3.4-6.6,3.4,3,3.4,6.6-1.5,6.6-3.4,6.6Z"/>
    <path class="st0" d="M95.2,27.3c0-11.4-4.7-21-10.2-21h-6.6c0,0,.2.2.3.3,4.3,3.8,6.9,11.8,6.9,20.7s-2.9,17.4-7.2,21h6.6c5.6,0,10.2-9.6,10.2-21Z"/>
    <path class="st0" d="M71.8,27.3c0-3.1-.4-6.2-1-9h-9.6c.6,2.8,1,5.9,1,9s0,2,0,3h9.7c0-1,0-2,0-3h0Z"/>
    <path class="st0" d="M45.4,8.7h.1c.8,1,1.4,2.2,2,3.6h9.5c-.4-.9-.9-1.7-1.5-2.4h0c-.4-.5-.8-1.1-1.4-1.6h-9c0,.1.2.3.3.4"/>
    <path class="st0" d="M82.4,36.3c.7-2.7,1-5.8,1-9s0-2,0-3h-9.7c0,1,0,2,0,3,0,3.1-.3,6.2-1,9h9.7Z"/>
    <path class="st0" d="M57.7,40.9c.3-.8.6-1.7.9-2.6h-9.6c-.3,1.2-.7,2.3-1.2,3.4-.4.9-.8,1.8-1.3,2.6h9.3c.7-1,1.3-2.1,1.8-3.4h.1"/>
    <path class="st0" d="M81.9,38.3h-9.5c-.6,2.2-1.5,4.3-2.5,6h9.3c1.1-1.6,2-3.7,2.7-6Z"/>
    <path class="st0" d="M77.5,46.3h-9c-.6.8-1.2,1.4-1.9,2h6.6c1.5,0,3-.7,4.3-2Z"/>
    <path class="st0" d="M54,46.5s0,0,.2-.2h-9c-.5.7-1,1.2-1.6,1.7,0,0-.2.2-.3.3h6.7c1.4,0,2.8-.6,4.1-1.8h-.1Z"/>
    <path class="st0" d="M67.2,44.7h0c.5-.7,1-1.5,1.5-2.4h-9.5c-.7,1.5-1.5,2.9-2.4,4h9c.5-.5,1-1.1,1.4-1.6Z"/>
    <path class="st0" d="M68.5,8.3c.9,1.1,1.7,2.5,2.4,4h9.4c-.8-1.6-1.8-3-2.8-4h-9Z"/>
    <path class="st0" d="M43.9,44.7c.5-.7,1-1.5,1.5-2.4h-9.3c-.7,1.5-1.5,2.9-2.4,4h8.9c.5-.5.9-1,1.4-1.6h0Z"/>
    <path class="st0" d="M58.2,10.3c1,1.7,1.8,3.8,2.5,6h9.6c-.3-.9-.6-1.8-.9-2.6h0c-.5-1.3-1.1-2.4-1.8-3.4h-9.4Z"/>
    <path class="st0" d="M61.6,6.3h-6.6c.7.6,1.3,1.2,1.9,2h9s-.2-.2-.3-.3c-1.3-1.2-2.6-1.7-4-1.7Z"/>
    <path class="st0" d="M35,10.3c1,1.7,1.8,3.7,2.5,6h9.5c-.7-2.3-1.7-4.4-2.8-6h-9.2Z"/>
    <path class="st0" d="M31.7,6.3c.7.6,1.3,1.2,1.9,2h8.9c-1.1-1.1-2.6-2-4.3-2h-6.5Z"/>
  </g>
  <g>
    <path class="st0" d="M20.1,6.3l.6.3c-.4-.2-.6-.3-.6-.3Z"/>
    <path class="st0" d="M35.7,17.6c-1.8-6.8-5.3-11.3-9-11.3h-6.6s.2,0,.6.3c1.6,1.1,6.2,5.5,6.2,20.7s-7.3,21-7.3,21h7.1c1.4,0,2.8-.6,4.1-1.8,3.1-2.9,5.3-8.6,5.9-15.3,0-1.3.2-2.6.2-3.9,0-3.4-.4-6.7-1.2-9.7Z"/>
  </g>
</svg>