<?xml version="1.0" encoding="UTF-8"?>
<svg id="Livello_1" xmlns="http://www.w3.org/2000/svg" version="1.1" viewBox="0 0 11 11">
  <!-- Generator: Adobe Illustrator 29.7.1, SVG Export Plug-In . SVG Version: 2.1.1 Build 8)  -->
  <defs>
    <style>
      .st0 {
        fill: #fcc133;
      }
    </style>
  </defs>
  <g id="vecce">
    <g>
      <path class="st0" d="M3.4,7.7c0,0-.2,0-.3,0-.2,0-.5.2-.7.3-.3.3,0,.5,0,.5h.6c0,0,.2.4.4.5.1,0,.2-.1.2-.3,0-.3-.1-.6-.2-.8,0-.1,0-.2-.2-.2Z"/>
      <path class="st0" d="M4.8,6.7c0-.8-.4-.8-.4-.8l-.4.2v-.4s0-.4-1.1.3c-1,.7-.5,1.9-.4,2,.2-.1.4-.3.6-.3,0,0,.3,0,.3,0,.2,0,.2.2.3.3,0,.2.2.5.2.8.4.2.7,0,.7,0,.6-.5.3-1.9.3-1.9ZM2.5,7.3c.1,0,.2.1.3.3-.1,0-.2-.1-.3-.3ZM2.8,6.8c.2.1.2.3.3.5-.2-.1-.2-.3-.3-.5ZM3.2,6.3c.1.2.2.4.1.6-.1-.2-.2-.4-.1-.6ZM3.7,7.3c.1-.2.3-.4.6-.6-.1.2-.3.4-.6.6ZM3.9,7.5c.1-.1.3-.2.5-.2-.1.1-.3.2-.5.2ZM3.9,7.9c.2,0,.4-.1.6,0-.2,0-.4.1-.6,0Z"/>
    </g>
    <g>
      <path class="st0" d="M6.7,7c0,0-.1,0-.2,0-.2,0-.3.1-.5.2-.2.2,0,.3,0,.3h.4s.1.3.3.4c0,0,.1,0,.2-.2,0-.2,0-.4,0-.6,0,0,0-.1-.1-.2Z"/>
      <path class="st0" d="M7.6,6.4c0-.5-.2-.5-.2-.5h-.3c0,.1,0-.2,0-.2,0,0,0-.3-.7.1-.7.4-.4,1.2-.4,1.3.1,0,.3-.1.4-.2,0,0,.2,0,.2,0,.1,0,.1.1.2.2,0,.2,0,.4,0,.5.3.2.4,0,.4,0,.4-.3.3-1.2.3-1.2ZM6.2,6.7c0,0,.1,0,.2.2,0,0-.1,0-.2-.2ZM6.3,6.4c0,0,.1.2.1.4,0,0-.1-.2-.1-.4ZM6.7,6.1c0,.1,0,.2,0,.4,0-.1,0-.2,0-.4ZM6.9,6.8c0-.2.2-.3.4-.4,0,.2-.2.3-.4.4ZM7,6.9c0,0,.2-.1.4-.1,0,0-.2.1-.4.1ZM7,7.2c.1,0,.3,0,.4,0-.1,0-.3,0-.4,0Z"/>
    </g>
    <g>
      <path class="st0" d="M5.1,5.3s0,0-.1,0c0,0-.2,0-.3.1-.1.1,0,.2,0,.2h.3s.1.2.2.2c0,0,0,0,0-.1,0-.1,0-.2-.1-.3,0,0,0,0,0,0Z"/>
      <path class="st0" d="M5.6,4.9c0-.3-.2-.3-.2-.3h-.2c0,0,0,0,0,0,0,0,0-.2-.4.2-.4.3-.1.8-.1.8,0,0,.2-.1.3-.2,0,0,.1,0,.1,0,0,0,0,0,.1.1,0,0,0,.2,0,.3.2,0,.3,0,.3,0,.2-.2,0-.8,0-.8ZM4.7,5.2c0,0,0,0,.1.1,0,0,0,0-.1-.1ZM4.8,4.9c0,0,.1.1.1.2,0,0-.1-.1-.1-.2ZM4.9,4.7c0,0,0,.1,0,.2,0,0,0-.1,0-.2ZM5.2,5.1c0-.1.1-.2.2-.3,0,.1-.1.2-.2.3ZM5.2,5.2c0,0,.1-.1.2-.1,0,0-.1.1-.2.1ZM5.3,5.4c0,0,.2,0,.3,0,0,0-.2,0-.3,0Z"/>
    </g>
    <path class="st0" d="M1.4,10.6c0-.9.8-1.4,1.4-1.9.1-.1.3,0,.2.2-.6.5-1.2.9-1.2,1.7,0,.3-.4.2-.4,0h0Z"/>
    <path class="st0" d="M7,3.4s-1.3-.2-1.1-.7.1,0,.1,0c0,0,0-.1,0-.1,0-.3.1-.3,1,.9h0Z"/>
    <path class="st0" d="M7.1,2.9s-1-.5-.7-.9.1,0,.1,0c0,0,0,0,0-.1,0-.2.2-.2.6,1h0Z"/>
    <path class="st0" d="M7.3,2.4s-.7-.6-.4-.8.1,0,.1,0c0,0,0,0,0,0,.1-.2.2-.2.3.9h0Z"/>
    <path class="st0" d="M6.9,3.4s1,.8,1.3.4,0-.1,0-.1c0,0,0,0,.1,0,.2-.2.2-.3-1.3-.3h0Z"/>
    <path class="st0" d="M6.8,3.8s-1.4,0-1.3-.5.1,0,.1,0c0,0,0-.1,0-.1,0-.3,0-.4,1.3.7h0Z"/>
    <path class="st0" d="M6.8,3.9s.9,1.1,1.3.7,0-.2,0-.2c0,0,.1,0,.1,0,.3-.2.3-.3-1.4-.5h0Z"/>
    <path class="st0" d="M7.2,2.9s.9.5,1.1.1,0-.1,0-.1c0,0,0,0,0,0,.1-.2,0-.3-1.1,0h0Z"/>
    <path class="st0" d="M7.4,2.5s.9.3.9,0,0,0,0,0c0,0,0,0,0,0,0-.2,0-.3-.9.2h0Z"/>
    <path class="st0" d="M7.5,2.2c-.4.9-1,2.8-1.4,3.6-.2.4-.5.8-.8,1.1,0,0-.2,0-.2,0,0,0,0-.2,0-.2,1.1-1.1,1.7-3.2,2.3-4.5,0,0,.1,0,0,0h0Z"/>
    <path class="st0" d="M7.4,2.2s0,0,0,0c0,0,0,0,0,0,0,0,.1-.5.3-1.3,0-.2,0-.4,0-.5-.1-.2-.4-.2-.4-.2,0,0,0,0,0,0s0,0,0,0c0,0,.3,0,.5.2.1.1.1.3,0,.6-.2.8-.3,1.3-.3,1.3,0,0,0,0,0,0Z"/>
    <path class="st0" d="M7.4,2.2s0,0,0,0c0,0,0,0,0,0,0,0,.8-1.6,1.4-1.6s0,0,0,0c.2,0,.3.2.4.5,0,0,0,0,0,0,0,0,0,0,0,0,0-.3-.2-.4-.4-.5,0,0,0,0,0,0-.5,0-1.3,1.5-1.3,1.5s0,0,0,0Z"/>
  </g>
</svg>